SplineFontDB: 3.0
FontName: Vazir-Bold
FullName: Vazir Bold
FamilyName: Vazir
Weight: Bold
Copyright: Copyright (c) 2003 by Bitstream, Inc. All Rights Reserved.\nDejaVu changes are in public domain\nChanges by Saber Rastikerdar are in public domain.\nNon-Arabic(Latin) glyphs and data in extended version are imported from Roboto font under the Apache License, Version 2.0.
Version: 15.1.0
ItalicAngle: 0
UnderlinePosition: -500
UnderlineWidth: 100
Ascent: 1638
Descent: 410
InvalidEm: 0
LayerCount: 2
Layer: 0 1 "Back" 1
Layer: 1 1 "Fore" 0
PreferredKerning: 4
XUID: [1021 502 1027637223 8571893]
UniqueID: 4013149
UseUniqueID: 1
FSType: 0
OS2Version: 1
OS2_WeightWidthSlopeOnly: 0
OS2_UseTypoMetrics: 1
CreationTime: 1431850356
ModificationTime: 1506268709
PfmFamily: 33
TTFWeight: 700
TTFWidth: 5
LineGap: 0
VLineGap: 0
Panose: 2 11 6 3 3 8 4 2 2 4
OS2TypoAscent: 2350
OS2TypoAOffset: 0
OS2TypoDescent: -1100
OS2TypoDOffset: 0
OS2TypoLinegap: 0
OS2WinAscent: 2350
OS2WinAOffset: 0
OS2WinDescent: 1100
OS2WinDOffset: 0
HheadAscent: 2350
HheadAOffset: 0
HheadDescent: -1100
HheadDOffset: 0
OS2SubXSize: 1331
OS2SubYSize: 1433
OS2SubXOff: 0
OS2SubYOff: 286
OS2SupXSize: 1331
OS2SupYSize: 1433
OS2SupXOff: 0
OS2SupYOff: 983
OS2StrikeYSize: 102
OS2StrikeYPos: 530
OS2CapHeight: 1638
OS2XHeight: 1082
OS2Vendor: 'PfEd'
OS2CodePages: 00000041.20080000
OS2UnicodeRanges: 80002003.80000000.00000008.00000000
Lookup: 1 9 0 "'fina' Terminal Forms in Arabic lookup 9" { "'fina' Terminal Forms in Arabic lookup 9 subtable"  } ['fina' ('arab' <'KUR ' 'SND ' 'URD ' 'dflt' > ) ]
Lookup: 1 9 0 "'medi' Medial Forms in Arabic lookup 11" { "'medi' Medial Forms in Arabic lookup 11 subtable"  } ['medi' ('arab' <'KUR ' 'SND ' 'URD ' 'dflt' > ) ]
Lookup: 1 9 0 "'init' Initial Forms in Arabic lookup 13" { "'init' Initial Forms in Arabic lookup 13 subtable"  } ['init' ('arab' <'KUR ' 'SND ' 'URD ' 'dflt' > ) ]

StartChar: exclam
Encoding: 33 33 1
GlifName: exclam
Width: 641
VWidth: 2804
GlyphClass: 2
Flags: W
LayerCount: 2
Fore
SplineSet
145.091796875 180.493164062 m 0,0,1
 145.091796875 252.936523438 145.091796875 252.936523438 196.463867188 304.307617188 c 128,-1,2
 247.834960938 355.6796875 247.834960938 355.6796875 320.278320312 355.6796875 c 128,-1,3
 392.72265625 355.6796875 392.72265625 355.6796875 444.09375 304.307617188 c 128,-1,4
 495.463867188 252.936523438 495.463867188 252.936523438 495.463867188 180.493164062 c 128,-1,5
 495.463867188 108.049804688 495.463867188 108.049804688 444.09375 56.6787109375 c 128,-1,6
 392.72265625 5.306640625 392.72265625 5.306640625 320.278320312 5.306640625 c 0,7,8
 299.705078125 5.306640625 299.705078125 5.306640625 280.225585938 9.7607421875 c 128,-1,9
 260.747070312 14.21484375 260.747070312 14.21484375 242.829101562 23.0751953125 c 128,-1,10
 224.911132812 31.935546875 224.911132812 31.935546875 209.326171875 44.919921875 c 0,11,12
 192.16796875 59.2138671875 192.16796875 59.2138671875 179.182617188 76.4482421875 c 128,-1,13
 166.197265625 93.6826171875 166.197265625 93.6826171875 158.041992188 113.330078125 c 0,14,15
 145.091796875 144.526367188 145.091796875 144.526367188 145.091796875 180.493164062 c 0,0,1
213.161132812 1466.07128906 m 1,16,-1
 430.612304688 1466.07128906 l 1,17,-1
 471.639648438 1466.07128906 l 1,18,-1
 470.599609375 1425.05761719 l 1,19,-1
 446.08203125 498.310546875 l 5,20,-1
 445.092773438 459.32421875 l 5,21,-1
 406.094726562 459.32421875 l 5,22,-1
 238.90234375 459.32421875 l 5,23,-1
 199.953125 459.32421875 l 5,24,-1
 198.916992188 498.259765625 l 5,25,-1
 173.17578125 1425.00683594 l 1,26,-1
 172.08203125 1466.07128906 l 1,27,-1
 213.161132812 1466.07128906 l 1,16,-1
EndSplineSet
EndChar

StartChar: period
Encoding: 46 46 2
GlifName: period
Width: 641
VWidth: 2804
GlyphClass: 2
Flags: W
LayerCount: 2
Fore
SplineSet
145.091796875 180.493164062 m 0,0,1
 145.091796875 252.936523438 145.091796875 252.936523438 196.463867188 304.307617188 c 128,-1,2
 247.834960938 355.6796875 247.834960938 355.6796875 320.278320312 355.6796875 c 128,-1,3
 392.72265625 355.6796875 392.72265625 355.6796875 444.09375 304.307617188 c 128,-1,4
 495.463867188 252.936523438 495.463867188 252.936523438 495.463867188 180.493164062 c 128,-1,5
 495.463867188 108.049804688 495.463867188 108.049804688 444.09375 56.6787109375 c 128,-1,6
 392.72265625 5.306640625 392.72265625 5.306640625 320.278320312 5.306640625 c 0,7,8
 299.705078125 5.306640625 299.705078125 5.306640625 280.225585938 9.7607421875 c 128,-1,9
 260.747070312 14.21484375 260.747070312 14.21484375 242.829101562 23.0751953125 c 128,-1,10
 224.911132812 31.935546875 224.911132812 31.935546875 209.326171875 44.919921875 c 0,11,12
 192.16796875 59.2138671875 192.16796875 59.2138671875 179.182617188 76.4482421875 c 128,-1,13
 166.197265625 93.6826171875 166.197265625 93.6826171875 158.041992188 113.330078125 c 0,14,15
 145.091796875 144.526367188 145.091796875 144.526367188 145.091796875 180.493164062 c 0,0,1
EndSplineSet
EndChar

StartChar: colon
Encoding: 58 58 3
GlifName: colon
Width: 641
VWidth: 2804
GlyphClass: 2
Flags: W
LayerCount: 2
Fore
SplineSet
145.091796875 1050.49316406 m 0,0,1
 145.091796875 1122.93652344 145.091796875 1122.93652344 196.463867188 1174.30761719 c 0,2,3
 221.541015625 1199.38574219 221.541015625 1199.38574219 253.2109375 1212.53222656 c 128,-1,4
 284.879882812 1225.6796875 284.879882812 1225.6796875 320.278320312 1225.6796875 c 0,5,6
 392.72265625 1225.6796875 392.72265625 1225.6796875 444.09375 1174.30761719 c 128,-1,7
 495.463867188 1122.93652344 495.463867188 1122.93652344 495.463867188 1050.49316406 c 128,-1,8
 495.463867188 978.049804688 495.463867188 978.049804688 444.09375 926.678710938 c 128,-1,9
 392.72265625 875.306640625 392.72265625 875.306640625 320.278320312 875.306640625 c 0,10,11
 304.861328125 875.306640625 304.861328125 875.306640625 289.984375 877.834960938 c 128,-1,12
 275.107421875 880.36328125 275.107421875 880.36328125 261.125 885.32421875 c 128,-1,13
 247.141601562 890.286132812 247.141601562 890.286132812 234.081054688 897.732421875 c 128,-1,14
 221.01953125 905.177734375 221.01953125 905.177734375 209.326171875 914.919921875 c 0,15,16
 174.33984375 944.065429688 174.33984375 944.065429688 158.041992188 983.330078125 c 0,17,18
 151.547851562 998.973632812 151.547851562 998.973632812 148.3203125 1015.88378906 c 128,-1,19
 145.091796875 1032.79296875 145.091796875 1032.79296875 145.091796875 1050.49316406 c 0,0,1
145.091796875 180.493164062 m 0,20,21
 145.091796875 252.936523438 145.091796875 252.936523438 196.463867188 304.307617188 c 128,-1,22
 247.834960938 355.6796875 247.834960938 355.6796875 320.278320312 355.6796875 c 128,-1,23
 392.72265625 355.6796875 392.72265625 355.6796875 444.09375 304.307617188 c 128,-1,24
 495.463867188 252.936523438 495.463867188 252.936523438 495.463867188 180.493164062 c 128,-1,25
 495.463867188 108.049804688 495.463867188 108.049804688 444.09375 56.6787109375 c 128,-1,26
 392.72265625 5.306640625 392.72265625 5.306640625 320.278320312 5.306640625 c 0,27,28
 299.705078125 5.306640625 299.705078125 5.306640625 280.225585938 9.7607421875 c 128,-1,29
 260.747070312 14.21484375 260.747070312 14.21484375 242.829101562 23.0751953125 c 128,-1,30
 224.911132812 31.935546875 224.911132812 31.935546875 209.326171875 44.919921875 c 0,31,32
 192.16796875 59.2138671875 192.16796875 59.2138671875 179.182617188 76.4482421875 c 128,-1,33
 166.197265625 93.6826171875 166.197265625 93.6826171875 158.041992188 113.330078125 c 0,34,35
 145.091796875 144.526367188 145.091796875 144.526367188 145.091796875 180.493164062 c 0,20,21
EndSplineSet
EndChar

StartChar: afii57388
Encoding: 1548 1548 5
GlifName: afii57388
Width: 739
VWidth: 2812
GlyphClass: 2
Flags: W
LayerCount: 2
Fore
SplineSet
196.286132812 337.889648438 m 0,0,1
 248.787109375 597.743164062 248.787109375 597.743164062 458 756.318359375 c 2,2,-1
 479.926757812 772.938476562 l 1,3,-1
 503.290039062 758.405273438 l 1,4,-1
 551.524414062 728.401367188 l 1,5,-1
 596.72265625 700.286132812 l 1,6,-1
 557.142578125 664.693359375 l 2,7,8
 425.723632812 546.515625 425.723632812 546.515625 400.288085938 367.825195312 c 1,9,10
 457.500976562 363.08984375 457.500976562 363.08984375 497.8828125 342.73828125 c 128,-1,11
 538.264648438 322.38671875 538.264648438 322.38671875 558.359375 282.899414062 c 0,12,13
 582.2265625 234.950195312 582.2265625 234.950195312 581.080078125 187.219726562 c 0,14,15
 579.82421875 103.581054688 579.82421875 103.581054688 530.471679688 56.2724609375 c 128,-1,16
 481.120117188 8.962890625 481.120117188 8.962890625 396.096679688 8.9072265625 c 0,17,18
 364.05078125 8.7734375 364.05078125 8.7734375 336.604492188 14.1806640625 c 0,19,20
 237.368164062 33.73046875 237.368164062 33.73046875 203.586914062 119.728515625 c 128,-1,21
 169.806640625 205.7265625 169.806640625 205.7265625 196.286132812 337.889648438 c 0,0,1
EndSplineSet
EndChar

StartChar: uni0615
Encoding: 1557 1557 6
GlifName: uni0615
Width: -29
VWidth: 2714
GlyphClass: 4
Flags: W
AnchorPoint: "Anchor-10" 658.199 1624.46 mark 0
AnchorPoint: "Anchor-9" 658.199 1624.46 mark 0
AnchorPoint: "Anchor-1" 672.366 2447.86 basemark 0
AnchorPoint: "Anchor-1" 658.199 1624.46 mark 0
LayerCount: 2
Fore
SplineSet
541.2421875 1790.00390625 m 1,0,-1
 677.703125 1790.00390625 l 2,1,2
 781.798204784 1790.00390625 781.798204784 1790.00390625 845.899102392 1824.50195312 c 128,-1,3
 910 1859 910 1859 912.581054688 1912.3965269 c 128,-1,4
 915.162109375 1965.79305381 915.162109375 1965.79305381 882.439453125 1983.51855469 c 0,5,6
 775.123475479 2043.41282427 775.123475479 2043.41282427 541.2421875 1790.00390625 c 1,0,-1
991.1328125 1928.79980469 m 0,7,8
 991.00004589 1714.07421875 991.00004589 1714.07421875 668.384765625 1714.07421875 c 6,9,-1
 354.936523438 1714.07421875 l 1,10,-1
 354.936523438 1790.00390625 l 1,11,-1
 462.987304688 1790.00390625 l 1,12,-1
 462.987304688 2322.15039062 l 1,13,-1
 540.234375 2321.18359375 l 1,14,-1
 539.275390625 1893.90234375 l 1,15,16
 747 2130 747 2130 912.387695312 2066.69433594 c 0,17,18
 991 2037 991 2037 991.1328125 1928.79980469 c 0,7,8
EndSplineSet
EndChar

StartChar: uni061B
Encoding: 1563 1563 7
GlifName: uni061B_
Width: 739
VWidth: 2812
GlyphClass: 2
Flags: W
LayerCount: 2
Fore
SplineSet
222.091796875 180.493164062 m 0,0,1
 222.091796875 252.936523438 222.091796875 252.936523438 273.463867188 304.307617188 c 128,-1,2
 324.834960938 355.6796875 324.834960938 355.6796875 397.278320312 355.6796875 c 128,-1,3
 469.72265625 355.6796875 469.72265625 355.6796875 521.09375 304.307617188 c 128,-1,4
 572.463867188 252.936523438 572.463867188 252.936523438 572.463867188 180.493164062 c 128,-1,5
 572.463867188 108.049804688 572.463867188 108.049804688 521.09375 56.6787109375 c 128,-1,6
 469.72265625 5.306640625 469.72265625 5.306640625 397.278320312 5.306640625 c 0,7,8
 366.3125 5.306640625 366.3125 5.306640625 338.018554688 15.3671875 c 128,-1,9
 309.723632812 25.4267578125 309.723632812 25.4267578125 286.326171875 44.919921875 c 0,10,11
 269.16796875 59.2138671875 269.16796875 59.2138671875 256.182617188 76.4482421875 c 128,-1,12
 243.197265625 93.6826171875 243.197265625 93.6826171875 235.041992188 113.330078125 c 0,13,14
 222.091796875 144.526367188 222.091796875 144.526367188 222.091796875 180.493164062 c 0,0,1
196.286132812 777.889648438 m 4,15,16
 248.97601778 1037.88166257 248.97601778 1037.88166257 458 1196.31835938 c 6,17,-1
 479.926757812 1212.93847656 l 5,18,-1
 503.290039062 1198.40527344 l 5,19,-1
 551.524414062 1168.40136719 l 5,20,-1
 596.72265625 1140.28613281 l 5,21,-1
 557.142578125 1104.69335938 l 6,22,23
 426 987 426 987 400.288085938 807.825195312 c 5,24,25
 521 798 521 798 558.359375 722.899414062 c 4,26,27
 582 675 582 675 581.079101562 627.21875 c 4,28,29
 580 572 580 572 557.680664062 531.51171875 c 4,30,31
 535 491 535 491 493.723632812 470.09765625 c 4,32,33
 452 449 452 449 396.096679688 448.907226562 c 4,34,35
 380 449 380 449 365.373046875 450.146484375 c 4,36,37
 350 451 350 451 336.604492188 454.180664062 c 4,38,39
 237 474 237 474 203.586914062 559.728515625 c 4,40,41
 170 646 170 646 196.286132812 777.889648438 c 4,15,16
EndSplineSet
EndChar

StartChar: uni061F
Encoding: 1567 1567 8
GlifName: uni061F_
Width: 974
VWidth: 2804
GlyphClass: 2
Flags: W
LayerCount: 2
Fore
SplineSet
429.463867188 304.307617188 m 128,-1,1
 480.834960938 355.6796875 480.834960938 355.6796875 553.278320312 355.6796875 c 128,-1,2
 625.72265625 355.6796875 625.72265625 355.6796875 677.09375 304.307617188 c 128,-1,3
 728.463867188 252.936523438 728.463867188 252.936523438 728.463867188 180.493164062 c 128,-1,4
 728.463867188 108.049804688 728.463867188 108.049804688 677.09375 56.6787109375 c 128,-1,5
 625.72265625 5.306640625 625.72265625 5.306640625 553.278320312 5.306640625 c 0,6,7
 465.784718047 5.306640625 465.784718047 5.306640625 412.182617188 76.4482421875 c 0,8,9
 378.091796875 121.694147044 378.091796875 121.694147044 378.091796875 187.315335241 c 128,-1,0
 378.091796875 252.936523438 378.091796875 252.936523438 429.463867188 304.307617188 c 128,-1,1
251.631835938 698.514648438 m 0,10,11
 2 941 2 941 90.845703125 1193.91992188 c 0,12,13
 115 1262 115 1262 162.005859375 1315.46484375 c 0,14,15
 295 1465 295 1465 501.259765625 1464.37109375 c 0,16,17
 707 1464 707 1464 811.715820312 1353.3046875 c 0,18,19
 916 1243 916 1243 916 1036 c 2,20,-1
 916 986.25 l 1,21,-1
 876 986.25 l 1,22,-1
 715.799804688 986.248046875 l 1,23,-1
 675.799804688 986.248046875 l 1,24,-1
 675.799804688 1034.88574219 l 2,25,26
 676 1144 676 1144 609.458984375 1175.02929688 c 0,27,28
 575 1191 575 1191 517.59375 1190.89453125 c 0,29,30
 419 1191 419 1191 379.341796875 1143.67089844 c 0,31,32
 286 1032 286 1032 468.479492188 840.391601562 c 0,33,34
 695 603 695 603 696.69921875 456.333007812 c 5,35,-1
 415.881835938 456.333007812 l 5,36,37
 415 540 415 540 251.631835938 698.514648438 c 0,10,11
EndSplineSet
EndChar

StartChar: uni0621
Encoding: 1569 1569 9
GlifName: uni0621
Width: 938
VWidth: 2992
GlyphClass: 2
Flags: W
AnchorPoint: "Anchor-7" 465.326 -199.646 basechar 0
AnchorPoint: "Anchor-10" 483.848 1412.06 basechar 0
LayerCount: 2
Fore
SplineSet
77.76953125 51.8525390625 m 1,0,-1
 77.76953125 229.793945312 l 1,1,-1
 77.76953125 251.80859375 l 1,2,-1
 96.369140625 263.587890625 l 2,3,4
 184.840820312 319.615234375 184.840820312 319.615234375 266.465820312 354.80078125 c 1,5,6
 86.029296875 478.015625 86.029296875 478.015625 86.5537109375 659.467773438 c 0,7,8
 87.052734375 797.756835938 87.052734375 797.756835938 179.916992188 907.088867188 c 0,9,10
 191.053710938 920.057617188 191.053710938 920.057617188 203.176757812 931.754882812 c 128,-1,11
 215.30078125 943.452148438 215.30078125 943.452148438 228.279296875 953.76953125 c 128,-1,12
 241.2578125 964.087890625 241.2578125 964.087890625 255.150390625 973.135742188 c 128,-1,13
 269.043945312 982.182617188 269.043945312 982.182617188 283.7578125 989.877929688 c 128,-1,14
 298.47265625 997.573242188 298.47265625 997.573242188 314.026367188 1003.99707031 c 128,-1,15
 329.580078125 1010.42089844 329.580078125 1010.42089844 345.921875 1015.51855469 c 128,-1,16
 362.264648438 1020.6171875 362.264648438 1020.6171875 379.370117188 1024.44238281 c 128,-1,17
 396.4765625 1028.26757812 396.4765625 1028.26757812 414.337890625 1030.79492188 c 128,-1,18
 432.19921875 1033.32128906 432.19921875 1033.32128906 450.749023438 1034.57421875 c 128,-1,19
 469.299804688 1035.82714844 469.299804688 1035.82714844 488.569335938 1035.80664062 c 0,20,21
 659.740234375 1036.01855469 659.740234375 1036.01855469 789.92578125 924.778320312 c 2,22,-1
 812.577148438 905.422851562 l 1,23,-1
 800.517578125 878.177734375 l 1,24,-1
 743.94140625 750.359375 l 1,25,-1
 726.45703125 710.859375 l 1,26,-1
 688.415039062 731.323242188 l 2,27,28
 597.84765625 780.041015625 597.84765625 780.041015625 500.293945312 780.4375 c 0,29,30
 438.385742188 780.305664062 438.385742188 780.305664062 401.688476562 766.501953125 c 128,-1,31
 364.990234375 752.69921875 364.990234375 752.69921875 350.005859375 726.893554688 c 128,-1,32
 335.020507812 701.088867188 335.020507812 701.088867188 335.028320312 659.258789062 c 0,33,34
 335.006835938 562.88671875 335.006835938 562.88671875 522.896484375 471.892578125 c 1,35,-1
 792.581054688 526.356445312 l 1,36,-1
 833.3671875 534.59375 l 1,37,-1
 839.989257812 493.513671875 l 1,38,-1
 867.787109375 321.06640625 l 1,39,-1
 874.444335938 279.767578125 l 1,40,-1
 832.888671875 274.965820312 l 2,41,42
 540.491210938 241.177734375 540.491210938 241.177734375 137.2109375 16.89453125 c 2,43,-1
 77.76953125 -16.1630859375 l 1,44,-1
 77.76953125 51.8525390625 l 1,0,-1
EndSplineSet
EndChar

StartChar: uni0627
Encoding: 1575 1575 15
GlifName: uni0627
Width: 497
VWidth: 2992
GlyphClass: 2
Flags: W
AnchorPoint: "Anchor-10" 249.871 1583.46 basechar 0
AnchorPoint: "Anchor-7" 253.587 -196.365 basechar 0
LayerCount: 2
Fore
SplineSet
170.890625 1458.15039062 m 5,0,-1
 344.205078125 1458.15039062 l 5,1,-1
 384.205078125 1458.15039062 l 5,2,-1
 384.205078125 1418.15039062 l 5,3,-1
 384.205078125 40.751953125 l 1,4,-1
 384.205078125 0.751953125 l 1,5,-1
 344.205078125 0.751953125 l 1,6,-1
 170.890625 0.751953125 l 1,7,-1
 130.890625 0.751953125 l 1,8,-1
 130.890625 40.751953125 l 1,9,-1
 130.890625 1418.15039062 l 5,10,-1
 130.890625 1458.15039062 l 5,11,-1
 170.890625 1458.15039062 l 5,0,-1
EndSplineSet
Substitution2: "'fina' Terminal Forms in Arabic lookup 9 subtable" uniFE8E
EndChar

StartChar: uni062C
Encoding: 1580 1580 20
GlifName: uni062C_
Width: 1386
VWidth: 2703
GlyphClass: 2
Flags: W
AnchorPoint: "Anchor-7" 536.833 -922.619 basechar 0
AnchorPoint: "Anchor-10" 633.478 1366.07 basechar 0
LayerCount: 2
Fore
SplineSet
791.528320312 -701.249023438 m 1024
EndSplineSet
Refer: 21 1581 N 1 0 0 1 0 0 2
Refer: 264 -1 S 1.07 0 0 1.07 701.95 -134.716 2
Substitution2: "'fina' Terminal Forms in Arabic lookup 9 subtable" uniFE9E
Substitution2: "'medi' Medial Forms in Arabic lookup 11 subtable" uniFEA0
Substitution2: "'init' Initial Forms in Arabic lookup 13 subtable" uniFE9F
EndChar

StartChar: uni062D
Encoding: 1581 1581 21
GlifName: uni062D_
Width: 1386
VWidth: 2992
GlyphClass: 2
Flags: W
AnchorPoint: "Anchor-7" 536.833 -882.619 basechar 0
AnchorPoint: "Anchor-10" 633.478 1406.07 basechar 0
LayerCount: 2
Fore
SplineSet
84.9873046875 -104.853515625 m 0,0,1
 84.9873046875 177.396484375 84.9873046875 177.396484375 246.2109375 367.045898438 c 128,-1,2
 407.435546875 556.694335938 407.435546875 556.694335938 720.947265625 648.377929688 c 1,3,4
 534.04296875 723.96484375 534.04296875 723.96484375 469.58203125 723.6875 c 0,5,6
 376.053710938 723.947265625 376.053710938 723.947265625 315.234375 645.607421875 c 2,7,-1
 287.206054688 609.504882812 l 1,8,-1
 267.182617188 583.711914062 l 1,9,-1
 237.903320312 598.166992188 l 1,10,-1
 84.04296875 674.126953125 l 1,11,-1
 44.9541015625 693.424804688 l 1,12,-1
 67.5341796875 730.713867188 l 1,13,-1
 84.2275390625 758.279296875 l 2,14,15
 151.692382812 869.743164062 151.692382812 869.743164062 249.6484375 927.563476562 c 128,-1,16
 347.603515625 985.383789062 347.603515625 985.383789062 470.986328125 985.840820312 c 0,17,18
 499.314453125 985.875976562 499.314453125 985.875976562 529.189453125 982.194335938 c 128,-1,19
 559.064453125 978.512695312 559.064453125 978.512695312 590.081054688 971.290039062 c 128,-1,20
 621.09765625 964.068359375 621.09765625 964.068359375 654.139648438 953.149414062 c 128,-1,21
 687.180664062 942.23046875 687.180664062 942.23046875 721.44921875 928.044921875 c 128,-1,22
 755.71875 913.859375 755.71875 913.859375 792.490234375 895.999023438 c 0,23,24
 1097.03222656 747.607421875 1097.03222656 747.607421875 1259.6171875 740.655273438 c 2,25,-1
 1300.875 738.890625 l 1,26,-1
 1297.796875 697.709960938 l 1,27,-1
 1284.80761719 523.948242188 l 1,28,-1
 1282.20800781 489.168945312 l 1,29,-1
 1247.39941406 487.006835938 l 2,30,31
 1161.00585938 481.638671875 1161.00585938 481.638671875 1089.32617188 472.473632812 c 128,-1,32
 1017.64648438 463.30859375 1017.64648438 463.30859375 961.659179688 450.584960938 c 0,33,34
 641.627929688 376.345703125 641.627929688 376.345703125 488.380859375 241.366210938 c 128,-1,35
 335.134765625 106.38671875 335.134765625 106.38671875 335.249023438 -89.3046875 c 0,36,37
 335.137695312 -254.271484375 335.137695312 -254.271484375 452.981445312 -336.079101562 c 128,-1,38
 570.826171875 -417.887695312 570.826171875 -417.887695312 826.395507812 -417.783203125 c 0,39,40
 1033.953125 -417.991210938 1033.953125 -417.991210938 1226.06542969 -326.192382812 c 2,41,-1
 1272.37695312 -304.063476562 l 1,42,-1
 1282.52246094 -354.377929688 l 1,43,-1
 1318.58203125 -533.204101562 l 1,44,-1
 1324.70214844 -563.553710938 l 1,45,-1
 1296.85449219 -577.086914062 l 2,46,47
 1089.22265625 -677.991210938 1089.22265625 -677.991210938 811.534179688 -678.249023438 c 0,48,49
 408.517578125 -677.98828125 408.517578125 -677.98828125 224.650390625 -479.484375 c 0,50,51
 84.9873046875 -328.662109375 84.9873046875 -328.662109375 84.9873046875 -104.853515625 c 0,0,1
EndSplineSet
Substitution2: "'fina' Terminal Forms in Arabic lookup 9 subtable" uniFEA2
Substitution2: "'medi' Medial Forms in Arabic lookup 11 subtable" uniFEA4
Substitution2: "'init' Initial Forms in Arabic lookup 13 subtable" uniFEA3
EndChar

StartChar: uni062F
Encoding: 1583 1583 23
GlifName: uni062F_
Width: 994
VWidth: 2992
GlyphClass: 2
Flags: W
AnchorPoint: "Anchor-10" 424.137 1415.03 basechar 0
AnchorPoint: "Anchor-7" 437.24 -199.316 basechar 0
LayerCount: 2
Fore
SplineSet
109.126953125 290.370117188 m 2,0,1
 231.096679688 265.00390625 231.096679688 265.00390625 341.650390625 265.107421875 c 0,2,3
 671.990234375 265.01171875 671.990234375 265.01171875 671.954101562 406.389648438 c 0,4,5
 671.973632812 494.135742188 671.973632812 494.135742188 574.0625 605.10546875 c 128,-1,6
 476.151367188 716.076171875 476.151367188 716.076171875 275.705078125 842.139648438 c 2,7,-1
 241.11328125 863.89453125 l 1,8,-1
 263.602539062 898.013671875 l 1,9,-1
 363.85546875 1050.11328125 l 1,10,-1
 384.900390625 1082.04199219 l 1,11,-1
 417.743164062 1062.453125 l 2,12,13
 931.966796875 755.736328125 931.966796875 755.736328125 932.479492188 408.899414062 c 0,14,15
 932.372070312 327.206054688 932.372070312 327.206054688 907.288085938 261.310546875 c 128,-1,16
 882.203125 195.416015625 882.203125 195.416015625 834.1953125 147.227539062 c 128,-1,17
 786.1875 99.0390625 786.1875 99.0390625 715.786132812 66.6240234375 c 128,-1,18
 645.385742188 34.2080078125 645.385742188 34.2080078125 555.153320312 18.3095703125 c 128,-1,19
 464.920898438 2.4111328125 464.920898438 2.4111328125 354.880859375 2.259765625 c 0,20,21
 203.629882812 1.9921875 203.629882812 1.9921875 92.2783203125 26.81640625 c 2,22,-1
 60.982421875 33.7939453125 l 1,23,-1
 60.982421875 65.8583984375 l 1,24,-1
 60.982421875 251.208007812 l 1,25,-1
 60.982421875 300.3828125 l 1,26,-1
 109.126953125 290.370117188 l 2,0,1
EndSplineSet
Substitution2: "'fina' Terminal Forms in Arabic lookup 9 subtable" uniFEAA
EndChar

StartChar: uni0631
Encoding: 1585 1585 25
GlifName: uni0631
Width: 826
VWidth: 2184
GlyphClass: 2
Flags: W
AnchorPoint: "Anchor-10" 459.256 1410.2 basechar 0
AnchorPoint: "Anchor-7" 364.969 -709.998 basechar 0
LayerCount: 2
Fore
SplineSet
681.751953125 587.689453125 m 2,0,1
 768.982421875 389.452148438 768.982421875 389.452148438 769.375 204.022460938 c 0,2,3
 769.177734375 -101.666992188 769.177734375 -101.666992188 581.90234375 -276.66796875 c 128,-1,4
 394.627929688 -451.66796875 394.627929688 -451.66796875 33.654296875 -489.931640625 c 2,5,-1
 -0.9326171875 -493.59765625 l 1,6,-1
 -9.3681640625 -459.85546875 l 1,7,-1
 -51.9365234375 -289.580078125 l 1,8,-1
 -63.1572265625 -244.6953125 l 1,9,-1
 -17.1220703125 -240.078125 l 2,10,11
 256.266601562 -212.66015625 256.266601562 -212.66015625 384.930664062 -105.368164062 c 128,-1,12
 513.59375 1.923828125 513.59375 1.923828125 513.250976562 192.177734375 c 0,13,14
 513.014648438 336.087890625 513.014648438 336.087890625 438.7578125 495.072265625 c 2,15,-1
 420.044921875 535.137695312 l 1,16,-1
 461.780273438 549.751953125 l 1,17,-1
 631.919921875 609.331054688 l 1,18,-1
 666.846679688 621.5625 l 1,19,-1
 681.751953125 587.689453125 l 2,0,1
EndSplineSet
PairPos2: "'kern' Horizontal Kerning lookup 15-2" uniFBFE dx=60 dy=0 dh=60 dv=0 dx=0 dy=0 dh=0 dv=0
PairPos2: "'kern' Horizontal Kerning lookup 15-1" uniFEE7 dx=-178 dy=0 dh=-178 dv=0 dx=0 dy=0 dh=0 dv=0
PairPos2: "'kern' Horizontal Kerning lookup 15-2" uniFB90 dx=-226 dy=0 dh=-226 dv=0 dx=0 dy=0 dh=0 dv=0
PairPos2: "'kern' Horizontal Kerning lookup 15-2" uniFB8E dx=-226 dy=0 dh=-226 dv=0 dx=0 dy=0 dh=0 dv=0
PairPos2: "'kern' Horizontal Kerning lookup 15-2" uni06A9 dx=-226 dy=0 dh=-226 dv=0 dx=0 dy=0 dh=0 dv=0
PairPos2: "'kern' Horizontal Kerning lookup 15-2" uni064A dx=-60 dy=0 dh=-60 dv=0 dx=0 dy=0 dh=0 dv=0
PairPos2: "'kern' Horizontal Kerning lookup 15-2" afii57414 dx=-60 dy=0 dh=-60 dv=0 dx=0 dy=0 dh=0 dv=0
PairPos2: "'kern' Horizontal Kerning lookup 15-2" uni0649 dx=-60 dy=0 dh=-60 dv=0 dx=0 dy=0 dh=0 dv=0
PairPos2: "'kern' Horizontal Kerning lookup 15-2" uniFEEB dx=-178 dy=0 dh=-178 dv=0 dx=0 dy=0 dh=0 dv=0
PairPos2: "'kern' Horizontal Kerning lookup 15-2" uni0647 dx=-178 dy=0 dh=-178 dv=0 dx=0 dy=0 dh=0 dv=0
PairPos2: "'kern' Horizontal Kerning lookup 15-2" uni0646 dx=-60 dy=0 dh=-60 dv=0 dx=0 dy=0 dh=0 dv=0
PairPos2: "'kern' Horizontal Kerning lookup 15-2" uniFEE3 dx=-178 dy=0 dh=-178 dv=0 dx=0 dy=0 dh=0 dv=0
PairPos2: "'kern' Horizontal Kerning lookup 15-2" uni0645 dx=-178 dy=0 dh=-178 dv=0 dx=0 dy=0 dh=0 dv=0
PairPos2: "'kern' Horizontal Kerning lookup 15-2" uniFEFB dx=-143 dy=0 dh=-143 dv=0 dx=0 dy=0 dh=0 dv=0
PairPos2: "'kern' Horizontal Kerning lookup 15-2" uniFEDF dx=-143 dy=0 dh=-143 dv=0 dx=0 dy=0 dh=0 dv=0
PairPos2: "'kern' Horizontal Kerning lookup 15-2" uni0644 dx=-60 dy=0 dh=-60 dv=0 dx=0 dy=0 dh=0 dv=0
PairPos2: "'kern' Horizontal Kerning lookup 15-2" uniFEDB dx=-226 dy=0 dh=-226 dv=0 dx=0 dy=0 dh=0 dv=0
PairPos2: "'kern' Horizontal Kerning lookup 15-2" uni0643 dx=-143 dy=0 dh=-143 dv=0 dx=0 dy=0 dh=0 dv=0
PairPos2: "'kern' Horizontal Kerning lookup 15-2" uniFED7 dx=-178 dy=0 dh=-178 dv=0 dx=0 dy=0 dh=0 dv=0
PairPos2: "'kern' Horizontal Kerning lookup 15-2" uni0642 dx=-60 dy=0 dh=-60 dv=0 dx=0 dy=0 dh=0 dv=0
PairPos2: "'kern' Horizontal Kerning lookup 15-2" uniFED3 dx=-178 dy=0 dh=-178 dv=0 dx=0 dy=0 dh=0 dv=0
PairPos2: "'kern' Horizontal Kerning lookup 15-2" uni0641 dx=-178 dy=0 dh=-178 dv=0 dx=0 dy=0 dh=0 dv=0
PairPos2: "'kern' Horizontal Kerning lookup 15-2" uniFECF dx=-178 dy=0 dh=-178 dv=0 dx=0 dy=0 dh=0 dv=0
PairPos2: "'kern' Horizontal Kerning lookup 15-2" uniFECB dx=-178 dy=0 dh=-178 dv=0 dx=0 dy=0 dh=0 dv=0
PairPos2: "'kern' Horizontal Kerning lookup 15-2" uniFEC7 dx=-178 dy=0 dh=-178 dv=0 dx=0 dy=0 dh=0 dv=0
PairPos2: "'kern' Horizontal Kerning lookup 15-2" uni0638 dx=-178 dy=0 dh=-178 dv=0 dx=0 dy=0 dh=0 dv=0
PairPos2: "'kern' Horizontal Kerning lookup 15-2" uniFEC3 dx=-178 dy=0 dh=-178 dv=0 dx=0 dy=0 dh=0 dv=0
PairPos2: "'kern' Horizontal Kerning lookup 15-2" uni0637 dx=-178 dy=0 dh=-178 dv=0 dx=0 dy=0 dh=0 dv=0
PairPos2: "'kern' Horizontal Kerning lookup 15-2" uniFEBF dx=-178 dy=0 dh=-178 dv=0 dx=0 dy=0 dh=0 dv=0
PairPos2: "'kern' Horizontal Kerning lookup 15-2" uni0636 dx=-178 dy=0 dh=-178 dv=0 dx=0 dy=0 dh=0 dv=0
PairPos2: "'kern' Horizontal Kerning lookup 15-2" uniFEBB dx=-178 dy=0 dh=-178 dv=0 dx=0 dy=0 dh=0 dv=0
PairPos2: "'kern' Horizontal Kerning lookup 15-2" uni0635 dx=-178 dy=0 dh=-178 dv=0 dx=0 dy=0 dh=0 dv=0
PairPos2: "'kern' Horizontal Kerning lookup 15-2" uniFEB7 dx=-178 dy=0 dh=-178 dv=0 dx=0 dy=0 dh=0 dv=0
PairPos2: "'kern' Horizontal Kerning lookup 15-2" uni0634 dx=-178 dy=0 dh=-178 dv=0 dx=0 dy=0 dh=0 dv=0
PairPos2: "'kern' Horizontal Kerning lookup 15-2" uniFEB3 dx=-178 dy=0 dh=-178 dv=0 dx=0 dy=0 dh=0 dv=0
PairPos2: "'kern' Horizontal Kerning lookup 15-2" uni0633 dx=-178 dy=0 dh=-178 dv=0 dx=0 dy=0 dh=0 dv=0
PairPos2: "'kern' Horizontal Kerning lookup 15-2" uni0630 dx=-178 dy=0 dh=-178 dv=0 dx=0 dy=0 dh=0 dv=0
PairPos2: "'kern' Horizontal Kerning lookup 15-2" uni062F dx=-178 dy=0 dh=-178 dv=0 dx=0 dy=0 dh=0 dv=0
PairPos2: "'kern' Horizontal Kerning lookup 15-2" uniFEA7 dx=-178 dy=0 dh=-178 dv=0 dx=0 dy=0 dh=0 dv=0
PairPos2: "'kern' Horizontal Kerning lookup 15-2" uniFEA3 dx=-178 dy=0 dh=-178 dv=0 dx=0 dy=0 dh=0 dv=0
PairPos2: "'kern' Horizontal Kerning lookup 15-2" uniFE9F dx=-178 dy=0 dh=-178 dv=0 dx=0 dy=0 dh=0 dv=0
PairPos2: "'kern' Horizontal Kerning lookup 15-2" uniFE9B dx=-178 dy=0 dh=-178 dv=0 dx=0 dy=0 dh=0 dv=0
PairPos2: "'kern' Horizontal Kerning lookup 15-2" uni062B dx=-178 dy=0 dh=-178 dv=0 dx=0 dy=0 dh=0 dv=0
PairPos2: "'kern' Horizontal Kerning lookup 15-2" uniFE97 dx=-178 dy=0 dh=-178 dv=0 dx=0 dy=0 dh=0 dv=0
PairPos2: "'kern' Horizontal Kerning lookup 15-2" uni062A dx=-178 dy=0 dh=-178 dv=0 dx=0 dy=0 dh=0 dv=0
PairPos2: "'kern' Horizontal Kerning lookup 15-2" uni0629 dx=-178 dy=0 dh=-178 dv=0 dx=0 dy=0 dh=0 dv=0
PairPos2: "'kern' Horizontal Kerning lookup 15-2" uni0628 dx=-178 dy=0 dh=-178 dv=0 dx=0 dy=0 dh=0 dv=0
PairPos2: "'kern' Horizontal Kerning lookup 15-2" uni0627 dx=-143 dy=0 dh=-143 dv=0 dx=0 dy=0 dh=0 dv=0
PairPos2: "'kern' Horizontal Kerning lookup 15-2" uni0623 dx=-143 dy=0 dh=-143 dv=0 dx=0 dy=0 dh=0 dv=0
PairPos2: "'kern' Horizontal Kerning lookup 15-2" uni0622 dx=-143 dy=0 dh=-143 dv=0 dx=0 dy=0 dh=0 dv=0
PairPos2: "'kern' Horizontal Kerning lookup 15-2" uni0621 dx=-178 dy=0 dh=-178 dv=0 dx=0 dy=0 dh=0 dv=0
PairPos2: "'kern' Horizontal Kerning lookup 15-2" uniFB94 dx=-226 dy=0 dh=-226 dv=0 dx=0 dy=0 dh=0 dv=0
PairPos2: "'kern' Horizontal Kerning lookup 15-2" uniFB92 dx=-226 dy=0 dh=-226 dv=0 dx=0 dy=0 dh=0 dv=0
PairPos2: "'kern' Horizontal Kerning lookup 15-2" uni06AF dx=-226 dy=0 dh=-226 dv=0 dx=0 dy=0 dh=0 dv=0
PairPos2: "'kern' Horizontal Kerning lookup 15-2" afii57506 dx=-178 dy=0 dh=-178 dv=0 dx=0 dy=0 dh=0 dv=0
PairPos2: "'kern' Horizontal Kerning lookup 15-2" afii57440 dx=-178 dy=0 dh=-178 dv=0 dx=0 dy=0 dh=0 dv=0
PairPos2: "'kern' Horizontal Kerning lookup 15-2" uniFE8B dx=-178 dy=0 dh=-178 dv=0 dx=0 dy=0 dh=0 dv=0
Substitution2: "'fina' Terminal Forms in Arabic lookup 9 subtable" uniFEAE
EndChar

StartChar: uni0633
Encoding: 1587 1587 27
GlifName: uni0633
Width: 2506
VWidth: 2992
GlyphClass: 2
Flags: W
AnchorPoint: "Anchor-10" 1794.53 1417.1 basechar 0
AnchorPoint: "Anchor-7" 595.902 -760.086 basechar 0
LayerCount: 2
Fore
SplineSet
1552.80175781 -0.0810546875 m 0,0,1
 1469.15820312 -0.0810546875 1469.15820312 -0.0810546875 1405.66601562 27.72265625 c 1,2,3
 1392.46289062 -83.001953125 1392.46289062 -83.001953125 1339.97460938 -194.200195312 c 0,4,5
 1183.13085938 -520.015625 1183.13085938 -520.015625 707.33203125 -519.724609375 c 0,6,7
 391.533203125 -519.868164062 391.533203125 -519.868164062 226.708007812 -367.251953125 c 128,-1,8
 61.8828125 -214.635742188 61.8828125 -214.635742188 61.7529296875 81.05859375 c 0,9,10
 62.009765625 293.97265625 62.009765625 293.97265625 166.068359375 545.420898438 c 2,11,-1
 181.341796875 582.328125 l 1,12,-1
 218.271484375 567.106445312 l 1,13,-1
 376.791992188 501.768554688 l 1,14,-1
 413.215820312 486.755859375 l 1,15,-1
 398.7578125 450.108398438 l 2,16,17
 318.01171875 245.42578125 318.01171875 245.42578125 318.268554688 82.8779296875 c 0,18,19
 318.145507812 -94.3017578125 318.145507812 -94.3017578125 413.4609375 -178.705078125 c 128,-1,20
 508.776367188 -263.107421875 508.776367188 -263.107421875 714.362304688 -263.203125 c 0,21,22
 938.39453125 -263.107421875 938.39453125 -263.107421875 1044.11230469 -164.2734375 c 128,-1,23
 1149.83007812 -65.439453125 1149.83007812 -65.439453125 1150.5546875 142.051757812 c 0,24,25
 1150.97753906 316.815429688 1150.97753906 316.815429688 1064.49023438 494.2421875 c 2,26,-1
 1044.77441406 534.689453125 l 1,27,-1
 1087.25292969 549.530273438 l 1,28,-1
 1259.89453125 609.84765625 l 1,29,-1
 1298.53808594 623.348632812 l 1,30,-1
 1311.14355469 584.404296875 l 1,31,-1
 1371.07226562 399.267578125 l 2,32,33
 1385.75878906 353.48046875 1385.75878906 353.48046875 1409.81152344 324.673828125 c 128,-1,34
 1433.86425781 295.8671875 1433.86425781 295.8671875 1469.4140625 281.930664062 c 128,-1,35
 1504.96386719 267.994140625 1504.96386719 267.994140625 1554.49902344 267.9921875 c 0,36,37
 1610.63378906 267.994140625 1610.63378906 267.994140625 1644.20605469 283.35546875 c 128,-1,38
 1677.77929688 298.716796875 1677.77929688 298.716796875 1693.140625 331.418945312 c 128,-1,39
 1708.50097656 364.122070312 1708.50097656 364.122070312 1708.30175781 418.555664062 c 0,40,41
 1708.00488281 500.560546875 1708.00488281 500.560546875 1705.375 530.127929688 c 2,42,-1
 1699.97460938 590.84375 l 1,43,-1
 1696.52929688 629.58203125 l 1,44,-1
 1735.15527344 634.115234375 l 1,45,-1
 1899.88085938 653.448242188 l 1,46,-1
 1941.53808594 658.336914062 l 1,47,-1
 1944.44628906 616.495117188 l 1,48,-1
 1960.52148438 385.279296875 l 2,49,50
 1964.84179688 320.983398438 1964.84179688 320.983398438 1991.93164062 294.640625 c 128,-1,51
 2019.02050781 268.297851562 2019.02050781 268.297851562 2078.86523438 268.5 c 0,52,53
 2133.68945312 268.684570312 2133.68945312 268.684570312 2160.18652344 306.504882812 c 128,-1,54
 2186.68359375 344.325195312 2186.68359375 344.325195312 2186.42285156 439.1796875 c 0,55,56
 2186.32519531 462.8671875 2186.32519531 462.8671875 2183.6640625 489.94140625 c 128,-1,57
 2181.00292969 517.014648438 2181.00292969 517.014648438 2175.76074219 547.514648438 c 128,-1,58
 2170.51855469 578.013671875 2170.51855469 578.013671875 2162.53613281 612.120117188 c 128,-1,59
 2154.55371094 646.2265625 2154.55371094 646.2265625 2143.96386719 683.216796875 c 2,60,-1
 2132.76171875 722.346679688 l 1,61,-1
 2172.08007812 732.8671875 l 1,62,-1
 2343.03125 778.607421875 l 1,63,-1
 2380.01660156 788.50390625 l 1,64,-1
 2391.52148438 751.986328125 l 2,65,66
 2456.82421875 544.7109375 2456.82421875 544.7109375 2442.453125 442.956054688 c 1,67,-1
 2442.43554688 440.166015625 l 2,68,69
 2440.88574219 194.822265625 2440.88574219 194.822265625 2307.13085938 77.068359375 c 0,70,71
 2263.28320312 38.78515625 2263.28320312 38.78515625 2206.29394531 19.873046875 c 128,-1,72
 2149.30371094 0.9609375 2149.30371094 0.9609375 2081.16699219 0.912109375 c 0,73,74
 1998.03027344 0.951171875 1998.03027344 0.951171875 1934.15332031 28.404296875 c 128,-1,75
 1870.27636719 55.857421875 1870.27636719 55.857421875 1830.62792969 110.814453125 c 1,76,77
 1722.43457031 -0.0810546875 1722.43457031 -0.0810546875 1552.80175781 -0.0810546875 c 0,0,1
EndSplineSet
Substitution2: "'fina' Terminal Forms in Arabic lookup 9 subtable" uniFEB2
Substitution2: "'medi' Medial Forms in Arabic lookup 11 subtable" uniFEB4
Substitution2: "'init' Initial Forms in Arabic lookup 13 subtable" uniFEB3
EndChar

StartChar: uni0635
Encoding: 1589 1589 29
GlifName: uni0635
Width: 2655
VWidth: 2992
GlyphClass: 2
Flags: W
AnchorPoint: "Anchor-7" 595.902 -760.086 basechar 0
AnchorPoint: "Anchor-10" 2064.53 1412.1 basechar 0
LayerCount: 2
Fore
SplineSet
1379.078125 373.250976562 m 2,0,1
 1395.35351562 322.662109375 1395.35351562 322.662109375 1417.00195312 302.85546875 c 1,2,3
 1599.34082031 602.616210938 1599.34082031 602.616210938 1784.1640625 754.672851562 c 128,-1,4
 1968.98730469 906.729492188 1968.98730469 906.729492188 2161.4296875 906.42578125 c 0,5,6
 2390.88769531 905.95703125 2390.88769531 905.95703125 2513.04785156 730.977539062 c 0,7,8
 2583.94042969 629.693359375 2583.94042969 629.693359375 2584.56347656 498.024414062 c 0,9,10
 2584.79882812 457.62890625 2584.79882812 457.62890625 2579.18847656 419.4921875 c 128,-1,11
 2573.57714844 381.35546875 2573.57714844 381.35546875 2562.05371094 345.705078125 c 0,12,13
 2450.09082031 0 2450.09082031 0 1773.15136719 0 c 2,14,-1
 1722.34082031 0 l 2,15,16
 1656.59863281 0 1656.59863281 0 1600.10644531 4.12109375 c 128,-1,17
 1543.61523438 8.2421875 1543.61523438 8.2421875 1495.06445312 16.7451171875 c 128,-1,18
 1446.51464844 25.2490234375 1446.51464844 25.2490234375 1406.80859375 38.1650390625 c 1,19,20
 1395.125 -77.3623046875 1395.125 -77.3623046875 1339.97460938 -194.200195312 c 0,21,22
 1183.13085938 -520.015625 1183.13085938 -520.015625 707.33203125 -519.724609375 c 0,23,24
 391.533203125 -519.868164062 391.533203125 -519.868164062 226.708007812 -367.251953125 c 128,-1,25
 61.8828125 -214.635742188 61.8828125 -214.635742188 61.7529296875 81.05859375 c 0,26,27
 62.009765625 293.97265625 62.009765625 293.97265625 166.068359375 545.420898438 c 2,28,-1
 181.341796875 582.328125 l 1,29,-1
 218.271484375 567.106445312 l 1,30,-1
 376.791992188 501.768554688 l 1,31,-1
 413.215820312 486.755859375 l 1,32,-1
 398.7578125 450.108398438 l 2,33,34
 318.01171875 245.42578125 318.01171875 245.42578125 318.268554688 82.8779296875 c 0,35,36
 318.145507812 -94.3017578125 318.145507812 -94.3017578125 413.4609375 -178.705078125 c 128,-1,37
 508.776367188 -263.107421875 508.776367188 -263.107421875 714.362304688 -263.203125 c 0,38,39
 938.39453125 -263.107421875 938.39453125 -263.107421875 1044.11230469 -164.2734375 c 128,-1,40
 1149.83007812 -65.439453125 1149.83007812 -65.439453125 1150.5546875 142.051757812 c 0,41,42
 1150.97753906 316.815429688 1150.97753906 316.815429688 1064.49023438 494.2421875 c 2,43,-1
 1044.77441406 534.689453125 l 1,44,-1
 1087.25292969 549.530273438 l 1,45,-1
 1259.89453125 609.84765625 l 1,46,-1
 1298.60644531 623.373046875 l 1,47,-1
 1311.16601562 584.336914062 l 1,48,-1
 1379.078125 373.250976562 l 2,0,1
1698.70507812 264.416992188 m 1,49,-1
 1778.78125 264.416992188 l 2,50,51
 2063.57128906 264.01171875 2063.57128906 264.01171875 2200.46484375 324.596679688 c 0,52,53
 2244.2578125 343.909179688 2244.2578125 343.909179688 2271.5625 368.213867188 c 128,-1,54
 2298.8671875 392.518554688 2298.8671875 392.518554688 2310.94921875 421.412109375 c 128,-1,55
 2323.03222656 450.306640625 2323.03222656 450.306640625 2322.67089844 486.731445312 c 0,56,57
 2322.39550781 513.415039062 2322.39550781 513.415039062 2315.71679688 534.5625 c 128,-1,58
 2309.03710938 555.708984375 2309.03710938 555.708984375 2296.12597656 572.774414062 c 0,59,60
 2249.16699219 634.10546875 2249.16699219 634.10546875 2162.05664062 634.573242188 c 0,61,62
 2094.57714844 634.419921875 2094.57714844 634.419921875 2021.56445312 595.635742188 c 128,-1,63
 1948.55273438 556.852539062 1948.55273438 556.852539062 1866.25976562 473.439453125 c 128,-1,64
 1783.96582031 390.026367188 1783.96582031 390.026367188 1698.70507812 264.416992188 c 1,49,-1
EndSplineSet
Substitution2: "'fina' Terminal Forms in Arabic lookup 9 subtable" uniFEBA
Substitution2: "'medi' Medial Forms in Arabic lookup 11 subtable" uniFEBC
Substitution2: "'init' Initial Forms in Arabic lookup 13 subtable" uniFEBB
EndChar

StartChar: uni0637
Encoding: 1591 1591 31
GlifName: uni0637
Width: 1524
VWidth: 2992
GlyphClass: 2
Flags: W
AnchorPoint: "Anchor-10" 475.36 1582.58 basechar 0
AnchorPoint: "Anchor-7" 641.602 -196.453 basechar 0
LayerCount: 2
Fore
SplineSet
1037.85253906 896.423828125 m 0,0,1
 1271 896 1271 896 1392.47851562 719.697265625 c 0,2,3
 1460 621 1460 621 1459.67382812 493.75 c 0,4,5
 1460 245 1460 245 1254.05566406 122.579101562 c 128,-1,6
 1048 0 1048 0 658.228515625 0 c 2,7,-1
 101.302734375 0 l 1,8,-1
 61.302734375 0 l 1,9,-1
 61.302734375 40 l 1,10,-1
 61.302734375 224.221679688 l 1,11,-1
 61.302734375 264.193359375 l 1,12,-1
 101.274414062 264.221679688 l 1,13,-1
 302.63671875 264.36328125 l 1,14,15
 322 294 322 294 355.6328125 348.911132812 c 1,16,-1
 355.6328125 1418.87402344 l 5,17,-1
 355.6328125 1458.87402344 l 5,18,-1
 395.6328125 1458.87402344 l 5,19,-1
 568.946289062 1458.87402344 l 5,20,-1
 608.946289062 1458.87402344 l 5,21,-1
 608.946289062 1418.87402344 l 5,22,-1
 608.946289062 690.1328125 l 1,23,24
 809 896 809 896 1037.85253906 896.423828125 c 0,0,1
663.833007812 264.534179688 m 2,25,26
 956.852539062 264.534179688 956.852539062 264.534179688 1074.90332031 316.236328125 c 0,27,28
 1139.91113281 344.708007812 1139.91113281 344.708007812 1168.87792969 383.353515625 c 128,-1,29
 1197.84472656 421.999023438 1197.84472656 421.999023438 1197.73828125 475.396484375 c 0,30,31
 1197.9453125 542.287109375 1197.9453125 542.287109375 1151.95800781 583.853515625 c 0,32,33
 1107.45019531 624.921875 1107.45019531 624.921875 1037.46191406 624.573242188 c 0,34,35
 827.743164062 624.931640625 827.743164062 624.931640625 583.6640625 264.534179688 c 1,36,-1
 663.833007812 264.534179688 l 2,25,26
EndSplineSet
Substitution2: "'fina' Terminal Forms in Arabic lookup 9 subtable" uniFEC2
Substitution2: "'medi' Medial Forms in Arabic lookup 11 subtable" uniFEC4
Substitution2: "'init' Initial Forms in Arabic lookup 13 subtable" uniFEC3
EndChar

StartChar: uni0639
Encoding: 1593 1593 33
GlifName: uni0639
Width: 1330
VWidth: 2992
GlyphClass: 2
Flags: W
AnchorPoint: "Anchor-10" 723.478 1406.07 basechar 0
AnchorPoint: "Anchor-7" 516.833 -882.619 basechar 0
LayerCount: 2
Fore
SplineSet
652.064453125 546.64453125 m 1,0,1
 819.3359375 574.0234375 819.3359375 574.0234375 941.010742188 574.546875 c 0,2,3
 1037.18359375 575.010742188 1037.18359375 575.010742188 1128.28710938 564.590820312 c 2,4,-1
 1168.54882812 559.985351562 l 1,5,-1
 1163.41992188 519.786132812 l 1,6,-1
 1141.06738281 344.625976562 l 1,7,-1
 1136.43359375 308.317382812 l 1,8,-1
 1099.85742188 309.71875 l 2,9,10
 1014.78515625 312.978515625 1014.78515625 312.978515625 986.146484375 312.188476562 c 0,11,12
 640.442382812 302.366210938 640.442382812 302.366210938 477.787109375 197.5703125 c 128,-1,13
 315.131835938 92.7744140625 315.131835938 92.7744140625 315.240234375 -104.857421875 c 0,14,15
 315.133789062 -261.711914062 315.133789062 -261.711914062 430.146484375 -339.924804688 c 128,-1,16
 545.159179688 -418.138671875 545.159179688 -418.138671875 795.2890625 -418.266601562 c 0,17,18
 993.951171875 -418.01171875 993.951171875 -418.01171875 1186.13671875 -326.642578125 c 2,19,-1
 1232.39746094 -304.649414062 l 1,20,-1
 1242.52246094 -354.861328125 l 1,21,-1
 1278.58203125 -533.6875 l 1,22,-1
 1284.67578125 -563.909179688 l 1,23,-1
 1257.00195312 -577.499023438 l 2,24,25
 1050.27148438 -679.009765625 1050.27148438 -679.009765625 783.040039062 -678.733398438 c 0,26,27
 550.682617188 -678.825195312 550.682617188 -678.825195312 391.110351562 -616.2421875 c 128,-1,28
 231.538085938 -553.66015625 231.538085938 -553.66015625 148.26171875 -426.7578125 c 128,-1,29
 64.984375 -299.85546875 64.984375 -299.85546875 64.9755859375 -112.30859375 c 0,30,31
 64.9873046875 81.1708984375 64.9873046875 81.1708984375 149.848632812 224.094726562 c 128,-1,32
 234.709960938 367.017578125 234.709960938 367.017578125 400.171875 452.586914062 c 1,33,34
 301.9921875 586.24609375 301.9921875 586.24609375 301.84375 735.095703125 c 0,35,36
 302.017578125 811.616210938 302.017578125 811.616210938 332.177734375 888.420898438 c 0,37,38
 361.715820312 961.963867188 361.715820312 961.963867188 420.62109375 1024.23632812 c 0,39,40
 533.76171875 1144 533.76171875 1144 734 1144 c 0,41,42
 899.380859375 1144 899.380859375 1144 1088.2578125 1014.68652344 c 2,43,-1
 1115.890625 995.767578125 l 1,44,-1
 1102.12597656 965.239257812 l 1,45,-1
 1034.77734375 815.866210938 l 1,46,-1
 1016.37597656 775.053710938 l 1,47,-1
 977.884765625 797.916992188 l 2,48,49
 838.05078125 880.979492188 838.05078125 880.979492188 743.950195312 880.802734375 c 0,50,51
 637.610351562 880.965820312 637.610351562 880.965820312 590.063476562 801.83203125 c 0,52,53
 566.044921875 762.76171875 566.044921875 762.76171875 566.20703125 722.154296875 c 0,54,55
 566.04296875 686.237304688 566.04296875 686.237304688 585.396484375 646.977539062 c 0,56,57
 590.90234375 635.885742188 590.90234375 635.885742188 600.270507812 620.760742188 c 128,-1,58
 609.638671875 605.635742188 609.638671875 605.635742188 622.912109375 586.598632812 c 128,-1,59
 636.186523438 567.560546875 636.186523438 567.560546875 652.064453125 546.64453125 c 1,0,1
EndSplineSet
Substitution2: "'fina' Terminal Forms in Arabic lookup 9 subtable" uniFECA
Substitution2: "'medi' Medial Forms in Arabic lookup 11 subtable" uniFECC
Substitution2: "'init' Initial Forms in Arabic lookup 13 subtable" uniFECB
EndChar

StartChar: afii57440
Encoding: 1600 1600 35
GlifName: afii57440
Width: 286
VWidth: 2992
GlyphClass: 2
Flags: W
AnchorPoint: "Anchor-10" 143.774 1416.11 basechar 0
AnchorPoint: "Anchor-7" 147.7 -194.739 basechar 0
LayerCount: 2
Fore
SplineSet
-6.9384765625 0 m 2,0,1
 -61.728515625 0 -61.728515625 0 -93.2529296875 35.75390625 c 128,-1,2
 -124.778320312 71.5078125 -124.778320312 71.5078125 -124.778320312 128.313476562 c 2,3,-1
 -124.778320312 147.134765625 l 2,4,5
 -124.853515625 173.228515625 -124.853515625 173.228515625 -116.311523438 195.063476562 c 128,-1,6
 -107.76953125 216.897460938 -107.76953125 216.897460938 -92.3896484375 232.041015625 c 128,-1,7
 -77.0107421875 247.185546875 -77.0107421875 247.185546875 -55.0478515625 255.591796875 c 128,-1,8
 -33.083984375 263.999023438 -33.083984375 263.999023438 -6.9384765625 263.999023438 c 2,9,-1
 294.642578125 263.999023438 l 2,10,11
 306.939453125 264 306.939453125 264 316.68359375 259.9609375 c 128,-1,12
 326.426757812 255.922851562 326.426757812 255.922851562 332.703125 250.8515625 c 128,-1,13
 338.979492188 245.780273438 338.979492188 245.780273438 343.46484375 235.477539062 c 128,-1,14
 347.950195312 225.17578125 347.950195312 225.17578125 350.19140625 218.545898438 c 128,-1,15
 352.431640625 211.916992188 352.431640625 211.916992188 353.612304688 198.470703125 c 128,-1,16
 354.793945312 185.024414062 354.793945312 185.024414062 354.952148438 179.958007812 c 128,-1,17
 355.110351562 174.890625 355.110351562 174.890625 354.94140625 161.421875 c 128,-1,18
 354.771484375 147.952148438 354.771484375 147.952148438 354.771484375 147.174804688 c 2,19,-1
 354.771484375 128.376953125 l 2,20,21
 354.776367188 126.390625 354.776367188 126.390625 355.209960938 109.713867188 c 128,-1,22
 355.642578125 93.037109375 355.642578125 93.037109375 355.19921875 85.5986328125 c 128,-1,23
 354.754882812 78.16015625 354.754882812 78.16015625 353.397460938 62.2685546875 c 128,-1,24
 352.040039062 46.376953125 352.040039062 46.376953125 347.927734375 37.9013671875 c 128,-1,25
 343.815429688 29.42578125 343.815429688 29.42578125 337.482421875 19.2724609375 c 128,-1,26
 331.150390625 9.1181640625 331.150390625 9.1181640625 320.184570312 4.5595703125 c 128,-1,27
 309.21875 0 309.21875 0 294.69140625 0 c 2,28,-1
 -6.9384765625 0 l 2,0,1
EndSplineSet
EndChar

StartChar: uni0643
Encoding: 1603 1603 38
GlifName: uni0643
Width: 1981
VWidth: 2992
GlyphClass: 2
Flags: W
AnchorPoint: "Anchor-7" 750.268 -196.468 basechar 0
AnchorPoint: "Anchor-10" 943.11 1606.05 basechar 0
LayerCount: 2
Fore
SplineSet
950.491210938 264.215820312 m 0,0,1
 996 264 996 264 1047.12109375 266.712890625 c 0,2,3
 1099 269 1099 269 1156.03222656 274.639648438 c 0,4,5
 1391 296 1391 296 1497.56152344 380.125 c 0,6,7
 1601.82910156 461.866023423 1601.82910156 461.866023423 1601.82910156 611.591796875 c 2,8,-1
 1601.82910156 1414.56640625 l 5,9,-1
 1601.82910156 1454.56640625 l 5,10,-1
 1641.82910156 1454.56640625 l 5,11,-1
 1819.70996094 1454.56640625 l 5,12,-1
 1859.70996094 1454.56640625 l 5,13,-1
 1859.70996094 1414.56640625 l 5,14,-1
 1859.70996094 614.360351562 l 2,15,16
 1860 328 1860 328 1678.07519531 177.345703125 c 0,17,18
 1465 0 1465 0 952.133789062 0 c 0,19,20
 448 0 448 0 252.124023438 143.46484375 c 0,21,22
 70 276 70 276 69.1611328125 544.438476562 c 0,23,24
 68.9994246689 686.505451014 68.9994246689 686.505451014 119.12109375 799.057617188 c 2,25,-1
 135.24609375 835.267578125 l 1,26,-1
 171.6015625 819.473632812 l 1,27,-1
 329.373046875 750.928710938 l 1,28,-1
 364.610351562 735.619140625 l 1,29,-1
 350.733398438 699.79296875 l 2,30,31
 327 639 327 639 328.450195312 557.395507812 c 0,32,33
 330 415 330 415 431.810546875 351.442382812 c 0,34,35
 570 265 570 265 950.491210938 264.215820312 c 0,0,1
730.405273438 811.7890625 m 2,36,37
 776.317382812 806.888671875 776.317382812 806.888671875 816.13671875 804.252929688 c 128,-1,38
 855.95703125 801.6171875 855.95703125 801.6171875 888.805664062 801.265625 c 0,39,40
 987.177734375 801.01953125 987.177734375 801.01953125 1033.29492188 819.899414062 c 0,41,42
 1045.82421875 825.07421875 1045.82421875 825.07421875 1052.45214844 830.510742188 c 128,-1,43
 1059.08007812 835.946289062 1059.08007812 835.946289062 1060.81933594 840.497070312 c 128,-1,44
 1062.55761719 845.047851562 1062.55761719 845.047851562 1062.75 852.112304688 c 0,45,46
 1062.70898438 866.37109375 1062.70898438 866.37109375 1059.09082031 874.416015625 c 128,-1,47
 1055.47167969 882.461914062 1055.47167969 882.461914062 1046.29492188 890.077148438 c 0,48,49
 1041.39453125 894.3671875 1041.39453125 894.3671875 1035.01269531 898.061523438 c 128,-1,50
 1028.63183594 901.756835938 1028.63183594 901.756835938 1020.05664062 905.137695312 c 128,-1,51
 1011.48144531 908.518554688 1011.48144531 908.518554688 1000.15917969 911.254882812 c 128,-1,52
 988.837890625 913.9921875 988.837890625 913.9921875 975.337890625 915.865234375 c 0,53,54
 856.888671875 933.874023438 856.888671875 933.874023438 792.764648438 998.846679688 c 128,-1,55
 728.641601562 1063.81835938 728.641601562 1063.81835938 730.94140625 1169.41796875 c 0,56,57
 736.901367188 1412.22851562 736.901367188 1412.22851562 1160.671875 1443.44433594 c 2,58,-1
 1203.61035156 1446.60742188 l 1,59,-1
 1203.61035156 1403.55273438 l 1,60,-1
 1203.61035156 1274.98925781 l 1,61,-1
 1203.61035156 1238.51464844 l 1,62,-1
 1167.29101562 1235.15917969 l 2,63,64
 1115.48339844 1230.37207031 1115.48339844 1230.37207031 1074.39746094 1222.375 c 128,-1,65
 1033.31054688 1214.37890625 1033.31054688 1214.37890625 1009.68359375 1206.04980469 c 128,-1,66
 986.056640625 1197.72167969 986.056640625 1197.72167969 970.493164062 1188.52734375 c 128,-1,67
 954.9296875 1179.33300781 954.9296875 1179.33300781 949.530273438 1172.54296875 c 128,-1,68
 944.131835938 1165.75195312 944.131835938 1165.75195312 944.139648438 1160.43847656 c 0,69,70
 944.064453125 1120.33789062 944.064453125 1120.33789062 1048.98535156 1104.29394531 c 0,71,72
 1157.39257812 1087.58691406 1157.39257812 1087.58691406 1216.56152344 1023.45410156 c 128,-1,73
 1275.73144531 959.322265625 1275.73144531 959.322265625 1275.36425781 856.006835938 c 0,74,75
 1275.14941406 784.7421875 1275.14941406 784.7421875 1239.04980469 728.333007812 c 128,-1,76
 1202.94921875 671.924804688 1202.94921875 671.924804688 1135.59375 635.145507812 c 0,77,78
 1051.21191406 588.993164062 1051.21191406 588.993164062 906.008789062 589.088867188 c 0,79,80
 822.961914062 588.997070312 822.961914062 588.997070312 720.075195312 604.83203125 c 2,81,-1
 686.16015625 610.051757812 l 1,82,-1
 686.16015625 644.366210938 l 1,83,-1
 686.16015625 772.014648438 l 1,84,-1
 686.16015625 816.510742188 l 1,85,-1
 730.405273438 811.7890625 l 2,36,37
EndSplineSet
Substitution2: "'fina' Terminal Forms in Arabic lookup 9 subtable" uniFEDA
Substitution2: "'medi' Medial Forms in Arabic lookup 11 subtable" uniFEDC
Substitution2: "'init' Initial Forms in Arabic lookup 13 subtable" uniFEDB
EndChar

StartChar: uni0644
Encoding: 1604 1604 39
GlifName: uni0644
Width: 1441
VWidth: 2992
GlyphClass: 2
Flags: W
AnchorPoint: "Anchor-7" 595.902 -760.086 basechar 0
AnchorPoint: "Anchor-10" 593.908 1181.66 basechar 0
LayerCount: 2
Fore
SplineSet
1072.60449219 139.879882812 m 2,0,-1
 1075.91699219 1418.09082031 l 5,1,-1
 1076.01464844 1457.99316406 l 5,2,-1
 1115.91699219 1457.99316406 l 5,3,-1
 1287.88574219 1457.99316406 l 5,4,-1
 1327.91015625 1457.99316406 l 5,5,-1
 1327.88574219 1417.96875 l 5,6,-1
 1327.18554688 339.270507812 l 2,7,8
 1327 192 1327 192 1317.74707031 65.4951171875 c 0,9,10
 1296 -222 1296 -222 1133.94628906 -371.120117188 c 0,11,12
 972 -520 972 -520 681.4296875 -519.734375 c 0,13,14
 378 -520 378 -520 219.685546875 -366.990234375 c 0,15,16
 62 -214 62 -214 62.740234375 80.833984375 c 0,17,18
 63 186 63 186 84.2939453125 289.541992188 c 0,19,20
 107.325014091 398.538152145 107.325014091 398.538152145 149.284179688 501.560546875 c 2,21,-1
 164.435546875 538.76171875 l 1,22,-1
 201.572265625 523.454101562 l 1,23,-1
 360.096679688 458.114257812 l 1,24,-1
 396.471679688 443.122070312 l 1,25,-1
 382.08203125 406.50390625 l 2,26,27
 318 243 318 243 318.24609375 78.2021484375 c 0,28,29
 318 -98 318 -98 405.7109375 -180.333984375 c 0,30,31
 493 -263 493 -263 681.786132812 -263.2265625 c 0,32,33
 816 -263 816 -263 901.967773438 -220.075195312 c 128,-1,34
 988 -177 988 -177 1030.22070312 -88.0478515625 c 0,35,36
 1072 1 1072 1 1072.60449219 139.879882812 c 2,0,-1
EndSplineSet
Substitution2: "'fina' Terminal Forms in Arabic lookup 9 subtable" uniFEDE
Substitution2: "'medi' Medial Forms in Arabic lookup 11 subtable" uniFEE0
Substitution2: "'init' Initial Forms in Arabic lookup 13 subtable" uniFEDF
EndChar

StartChar: uni0645
Encoding: 1605 1605 40
GlifName: uni0645
Width: 1242
VWidth: 2662
GlyphClass: 2
Flags: W
AnchorPoint: "Anchor-7" 724.983 -296.909 basechar 0
AnchorPoint: "Anchor-10" 697.239 1414.48 basechar 0
LayerCount: 2
Fore
SplineSet
842.154296875 238 m 0,0,1
 875.946289062 237.740234375 875.946289062 237.740234375 895.067382812 246.678710938 c 128,-1,2
 914.188476562 255.6171875 914.188476562 255.6171875 923.155273438 276.891601562 c 128,-1,3
 932.122070312 298.166992188 932.122070312 298.166992188 932.35546875 336.271484375 c 0,4,5
 931.65625 362.2421875 931.65625 362.2421875 926.926757812 385.907226562 c 128,-1,6
 922.197265625 409.573242188 922.197265625 409.573242188 913.352539062 431.993164062 c 0,7,8
 901.541992188 461.091796875 901.541992188 461.091796875 884.946289062 479.327148438 c 128,-1,9
 868.350585938 497.5625 868.350585938 497.5625 845.409179688 506.513671875 c 128,-1,10
 822.467773438 515.46484375 822.467773438 515.46484375 791.158203125 516.009765625 c 0,11,12
 692.166992188 517.463867188 692.166992188 517.463867188 628.708984375 360.682617188 c 1,13,14
 666.138671875 329.127929688 666.138671875 329.127929688 700.33984375 304.955078125 c 128,-1,15
 734.540039062 280.78125 734.540039062 280.78125 761.096679688 266.49609375 c 128,-1,16
 787.653320312 252.211914062 787.653320312 252.211914062 808 245.10546875 c 128,-1,17
 828.346679688 238 828.346679688 238 842.154296875 238 c 0,0,1
1183.39257812 349.009765625 m 0,18,19
 1182.96386719 193.803710938 1182.96386719 193.803710938 1106.74511719 90.3798828125 c 0,20,21
 1024.39648438 -22.9814453125 1024.39648438 -22.9814453125 851.991210938 -23.1376953125 c 0,22,23
 738.705078125 -22.984375 738.705078125 -22.984375 585.934570312 70.529296875 c 0,24,25
 539.41015625 99.08984375 539.41015625 99.08984375 485.970703125 126.380859375 c 0,26,27
 461.90234375 138.715820312 461.90234375 138.715820312 429.185546875 137.75390625 c 0,28,29
 412.690429688 137.565429688 412.690429688 137.565429688 397.190429688 123.486328125 c 128,-1,30
 381.690429688 109.40625 381.690429688 109.40625 366.579101562 75.4892578125 c 128,-1,31
 351.46875 41.572265625 351.46875 41.572265625 340.327148438 -9.07421875 c 128,-1,32
 329.186523438 -59.7216796875 329.186523438 -59.7216796875 322.393554688 -139.274414062 c 128,-1,33
 315.600585938 -218.828125 315.600585938 -218.828125 315.751953125 -317.94921875 c 0,34,35
 315.998046875 -512.259765625 315.998046875 -512.259765625 329.666992188 -671.390625 c 2,36,-1
 333.396484375 -714.813476562 l 1,37,-1
 289.813476562 -714.813476562 l 1,38,-1
 110.231445312 -714.813476562 l 1,39,-1
 72.7255859375 -714.813476562 l 1,40,-1
 70.314453125 -677.385742188 l 2,41,42
 57.9921875 -486.163085938 57.9921875 -486.163085938 59.0625 -313.713867188 c 0,43,44
 62.0771484375 58.7080078125 62.0771484375 58.7080078125 142.340820312 217.123046875 c 0,45,46
 222.916992188 375.174804688 222.916992188 375.174804688 363.782226562 407.8984375 c 1,47,48
 520.3671875 783.891601562 520.3671875 783.891601562 788.727539062 785.381835938 c 0,49,50
 877.806640625 785.720703125 877.806640625 785.720703125 951.094726562 752.671875 c 128,-1,51
 1024.38378906 719.623046875 1024.38378906 719.623046875 1077.92285156 654.373046875 c 0,52,53
 1182.96582031 526.3515625 1182.96582031 526.3515625 1183.39257812 349.009765625 c 0,18,19
EndSplineSet
Substitution2: "'init' Initial Forms in Arabic lookup 13 subtable" uniFEE3
Substitution2: "'medi' Medial Forms in Arabic lookup 11 subtable" uniFEE4
Substitution2: "'fina' Terminal Forms in Arabic lookup 9 subtable" uniFEE2
EndChar

StartChar: uni0647
Encoding: 1607 1607 42
GlifName: uni0647
Width: 942
VWidth: 2992
GlyphClass: 2
Flags: W
AnchorPoint: "Anchor-10" 430.775 1419.01 basechar 0
AnchorPoint: "Anchor-7" 450.63 -200.576 basechar 0
LayerCount: 2
Fore
SplineSet
463.1328125 631.505859375 m 1,0,1
 385.611328125 559.6171875 385.611328125 559.6171875 348.76953125 498.889648438 c 128,-1,2
 311.927734375 438.161132812 311.927734375 438.161132812 311.884765625 390.985351562 c 0,3,4
 311.907226562 357.7265625 311.907226562 357.7265625 320.203125 334.561523438 c 128,-1,5
 328.499023438 311.396484375 328.499023438 311.396484375 347.545898438 295.247070312 c 128,-1,6
 366.591796875 279.098632812 366.591796875 279.098632812 398.016601562 271.545898438 c 128,-1,7
 429.442382812 263.994140625 429.442382812 263.994140625 475.34375 263.9921875 c 0,8,9
 566.467773438 263.99609375 566.467773438 263.99609375 603.56640625 294.447265625 c 128,-1,10
 640.666015625 324.8984375 640.666015625 324.8984375 640.423828125 392.00390625 c 0,11,12
 640.276367188 433.005859375 640.276367188 433.005859375 596.317382812 494.984375 c 128,-1,13
 552.358398438 556.963867188 552.358398438 556.963867188 463.1328125 631.505859375 c 1,0,1
396.034179688 1043.15234375 m 2,14,15
 641.438476562 864.775390625 641.438476562 864.775390625 766.172851562 702.048828125 c 128,-1,16
 890.907226562 539.322265625 890.907226562 539.322265625 890.791992188 386.384765625 c 0,17,18
 891.026367188 175.22265625 891.026367188 175.22265625 707.4609375 60.5810546875 c 0,19,20
 618.577148438 5.0703125 618.577148438 5.0703125 476.206054688 4.1943359375 c 0,21,22
 345.583007812 3.984375 345.583007812 3.984375 251.565429688 51.0205078125 c 0,23,24
 157.260742188 98.1591796875 157.260742188 98.1591796875 109.21484375 183.623046875 c 128,-1,25
 61.16796875 269.087890625 61.16796875 269.087890625 61.3681640625 385.787109375 c 0,26,27
 60.9951171875 594.495117188 60.9951171875 594.495117188 278.879882812 819.970703125 c 1,28,-1
 247.0703125 846.790039062 l 1,29,-1
 218.240234375 871.096679688 l 1,30,-1
 240.806640625 901.30859375 l 1,31,-1
 340.46875 1034.734375 l 1,32,-1
 364.096679688 1066.3671875 l 1,33,-1
 396.034179688 1043.15234375 l 2,14,15
EndSplineSet
Substitution2: "'fina' Terminal Forms in Arabic lookup 9 subtable" uniFEEA
Substitution2: "'medi' Medial Forms in Arabic lookup 11 subtable" uniFEEC
Substitution2: "'init' Initial Forms in Arabic lookup 13 subtable" uniFEEB
EndChar

StartChar: uni0648
Encoding: 1608 1608 43
GlifName: uni0648
Width: 910
VWidth: 2184
GlyphClass: 2
Flags: W
AnchorPoint: "Anchor-7" 364.969 -729.998 basechar 0
AnchorPoint: "Anchor-10" 459.256 1410.2 basechar 0
LayerCount: 2
Fore
SplineSet
588.1953125 271.143554688 m 1,0,1
 575.05859375 412.637695312 575.05859375 412.637695312 536.100585938 473.859375 c 128,-1,2
 497.143554688 535.081054688 497.143554688 535.081054688 437.416992188 535.124023438 c 0,3,4
 403.306640625 535.080078125 403.306640625 535.080078125 379.44921875 514.15625 c 128,-1,5
 355.591796875 493.233398438 355.591796875 493.233398438 338.299804688 442.059570312 c 0,6,7
 330.024414062 417.83984375 330.024414062 417.83984375 326.057617188 395.610351562 c 128,-1,8
 322.090820312 373.381835938 322.090820312 373.381835938 322.159179688 352.60546875 c 0,9,10
 322.1015625 303.122070312 322.1015625 303.122070312 356.25390625 279.436523438 c 128,-1,11
 390.405273438 255.750976562 390.405273438 255.750976562 478.641601562 256.362304688 c 0,12,13
 531.318359375 256.821289062 531.318359375 256.821289062 588.1953125 271.143554688 c 1,0,1
478.30078125 -2.1884765625 m 0,14,15
 283.78515625 -2.087890625 283.78515625 -2.087890625 178.393554688 84.61328125 c 128,-1,16
 73.001953125 171.315429688 73.001953125 171.315429688 73.0048828125 338.3515625 c 0,17,18
 73 468.0390625 73 468.0390625 128.57421875 584.715820312 c 0,19,20
 179.874023438 691.58984375 179.874023438 691.58984375 261.204101562 747.811523438 c 128,-1,21
 342.53515625 804.034179688 342.53515625 804.034179688 449.120117188 804.077148438 c 0,22,23
 525.6796875 804.047851562 525.6796875 804.047851562 589.040039062 774.217773438 c 128,-1,24
 652.401367188 744.387695312 652.401367188 744.387695312 699.625976562 687.80859375 c 128,-1,25
 746.8515625 631.229492188 746.8515625 631.229492188 778.307617188 549.33984375 c 0,26,27
 842.043945312 384.342773438 842.043945312 384.342773438 840.83203125 179.908203125 c 0,28,29
 838.807617188 -115.940429688 838.807617188 -115.940429688 654.556640625 -284.838867188 c 128,-1,30
 470.3046875 -453.737304688 470.3046875 -453.737304688 117.39453125 -489.954101562 c 2,31,-1
 82.912109375 -493.493164062 l 1,32,-1
 74.5048828125 -459.864257812 l 1,33,-1
 31.9296875 -289.563476562 l 1,34,-1
 20.720703125 -244.7265625 l 1,35,-1
 66.7021484375 -240.06640625 l 2,36,37
 459.448242188 -200.262695312 459.448242188 -200.262695312 564.58984375 5.3193359375 c 1,38,39
 529.71875 1.3349609375 529.71875 1.3349609375 510.37890625 -0.384765625 c 128,-1,40
 491.038085938 -2.10546875 491.038085938 -2.10546875 478.30078125 -2.1884765625 c 0,14,15
EndSplineSet
Substitution2: "'fina' Terminal Forms in Arabic lookup 9 subtable" uniFEEE
EndChar

StartChar: uni0649
Encoding: 1609 1609 44
GlifName: uni0649
Width: 1524
VWidth: 2992
GlyphClass: 2
Flags: MW
AnchorPoint: "Anchor-10" 717.6 1418.22 basechar 0
AnchorPoint: "Anchor-7" 595.902 -750.086 basechar 0
LayerCount: 2
Fore
SplineSet
1211.80859375 -0.3525390625 m 0,0,1
 1211.80859375 10.4991307509 1211.80859375 10.4991307509 1202.40332031 13.7890625 c 0,2,3
 1193.52441406 16.89453125 1193.52441406 16.89453125 1173.32617188 17.015625 c 2,4,-1
 1060.16308594 17.6943359375 l 2,5,6
 1055.36425781 17.7177734375 1055.36425781 17.7177734375 1050.62695312 17.8115234375 c 128,-1,7
 1045.88867188 17.904296875 1045.88867188 17.904296875 1041.203125 18.0673828125 c 128,-1,8
 1036.51757812 18.2314453125 1036.51757812 18.2314453125 1031.9296875 18.462890625 c 0,9,10
 902.79296875 25.00390625 902.79296875 25.00390625 833.967773438 91.689453125 c 128,-1,11
 765.142578125 158.374023438 765.142578125 158.374023438 771.314453125 276.3828125 c 0,12,13
 781.8203125 473.454101562 781.8203125 473.454101562 901.521484375 604.037109375 c 0,14,15
 957.18359375 664.7265625 957.18359375 664.7265625 1028.453125 705.25 c 128,-1,16
 1099.72265625 745.772460938 1099.72265625 745.772460938 1184.2734375 765.661132812 c 128,-1,17
 1268.82421875 785.549804688 1268.82421875 785.549804688 1367 785.549804688 c 2,18,-1
 1388.37597656 785.549804688 l 1,19,-1
 1428.43945312 785.549804688 l 1,20,-1
 1428.37597656 745.486328125 l 1,21,-1
 1428.0703125 552.676757812 l 1,22,-1
 1428.00683594 512.740234375 l 1,23,-1
 1388.0703125 512.740234375 l 1,24,-1
 1365.96777344 512.740234375 l 2,25,26
 1315.8359375 512.821289062 1315.8359375 512.821289062 1272.66308594 505.774414062 c 128,-1,27
 1229.49023438 498.727539062 1229.49023438 498.727539062 1194.51757812 485.266601562 c 128,-1,28
 1159.54589844 471.806640625 1159.54589844 471.806640625 1130.90625 451.821289062 c 0,29,30
 1036.12988281 385.551757812 1036.12988281 385.551757812 1032.52832031 300.26171875 c 0,31,32
 1031.58482299 279.147392361 1031.58482299 279.147392361 1069.92871094 279.215820312 c 2,33,-1
 1180.96191406 279.413085938 l 2,34,35
 1312.01074219 279.736328125 1312.01074219 279.736328125 1385.36914062 217.821289062 c 128,-1,36
 1458.72851562 155.90625 1458.72851562 155.90625 1458.34960938 38.9404296875 c 0,37,38
 1458.05175781 -116.907226562 1458.05175781 -116.907226562 1378.77929688 -232.577148438 c 128,-1,39
 1299.5078125 -348.247070312 1299.5078125 -348.247070312 1146.63671875 -418.0859375 c 0,40,41
 969.732421875 -498.991210938 969.732421875 -498.991210938 756 -499.208984375 c 0,42,43
 417.70703125 -499.100585938 417.70703125 -499.100585938 240.297851562 -353.229492188 c 128,-1,44
 62.888671875 -207.358398438 62.888671875 -207.358398438 62.76171875 78.0234375 c 0,45,46
 63.009765625 301.497070312 63.009765625 301.497070312 205.9140625 623.563476562 c 2,47,-1
 221.7109375 659.1640625 l 1,48,-1
 257.719726562 644.321289062 l 1,49,-1
 416.243164062 578.981445312 l 1,50,-1
 454.133789062 563.364257812 l 1,51,-1
 437.600585938 525.864257812 l 2,52,53
 318.012695312 254.602539062 318.012695312 254.602539062 318.268554688 81.248046875 c 0,54,55
 318.147460938 -82.8642578125 318.147460938 -82.8642578125 423.774414062 -163.090820312 c 128,-1,56
 529.401367188 -243.31640625 529.401367188 -243.31640625 758.951171875 -243.60546875 c 0,57,58
 919.251953125 -243.979492188 919.251953125 -243.979492188 1052.19628906 -182.564453125 c 0,59,60
 1118.44628906 -151.83203125 1118.44628906 -151.83203125 1163.76757812 -105.10546875 c 0,61,62
 1180.36523438 -88.1005859375 1180.36523438 -88.1005859375 1191.01074219 -70.841796875 c 128,-1,63
 1201.65527344 -53.583984375 1201.65527344 -53.583984375 1206.62695312 -36.345703125 c 128,-1,64
 1211.59863281 -19.1083984375 1211.59863281 -19.1083984375 1211.80859375 -0.3525390625 c 0,0,1
EndSplineSet
Substitution2: "'fina' Terminal Forms in Arabic lookup 9 subtable" uniFEF0
Substitution2: "'medi' Medial Forms in Arabic lookup 11 subtable" uniFBE9
Substitution2: "'init' Initial Forms in Arabic lookup 13 subtable" uniFBE8
EndChar

StartChar: uni064B
Encoding: 1611 1611 46
GlifName: uni064B_
Width: -26
VWidth: 2316
GlyphClass: 4
Flags: W
AnchorPoint: "Anchor-10" 593.551 1113.65 mark 0
AnchorPoint: "Anchor-9" 593.551 1113.65 mark 0
AnchorPoint: "Anchor-1" 553.285 1666.25 basemark 0
AnchorPoint: "Anchor-1" 593.551 1113.65 mark 0
LayerCount: 2
Fore
SplineSet
306.700195312 1076.40039062 m 1,0,-1
 306.700195312 1179.97753906 l 1,1,-1
 306.700195312 1193.40453724 l 1,2,-1
 319.127502848 1198.48846364 l 1,3,-1
 774.526916911 1384.78924489 l 1,4,-1
 802.099609375 1396.06904453 l 1,5,-1
 802.099609375 1366.27832031 l 1,6,-1
 802.099609375 1262.70019531 l 1,7,-1
 802.099609375 1249.27317048 l 1,8,-1
 789.672267835 1244.18925682 l 1,9,-1
 334.272853772 1057.88945213 l 1,10,-1
 306.700195312 1046.60972552 l 1,11,-1
 306.700195312 1076.40039062 l 1,0,-1
306.700195312 1328.40039062 m 1,12,-1
 306.700195312 1431.97753906 l 1,13,-1
 306.700195312 1445.40453724 l 1,14,-1
 319.127502848 1450.48846364 l 1,15,-1
 774.526916911 1636.78924489 l 1,16,-1
 802.099609375 1648.06904453 l 1,17,-1
 802.099609375 1618.27832031 l 1,18,-1
 802.099609375 1514.70019531 l 1,19,-1
 802.099609375 1501.27317048 l 1,20,-1
 789.672267835 1496.18925682 l 1,21,-1
 334.272853772 1309.88945213 l 1,22,-1
 306.700195312 1298.60972552 l 1,23,-1
 306.700195312 1328.40039062 l 1,12,-1
EndSplineSet
EndChar

StartChar: uni064C
Encoding: 1612 1612 47
GlifName: uni064C_
Width: -26
VWidth: 2316
GlyphClass: 4
Flags: W
AnchorPoint: "Anchor-10" 680.906 1218.67 mark 0
AnchorPoint: "Anchor-9" 680.906 1218.67 mark 0
AnchorPoint: "Anchor-1" 571.739 1915.46 basemark 0
AnchorPoint: "Anchor-1" 680.906 1218.67 mark 0
LayerCount: 2
Fore
SplineSet
602.965781921 1704.27878472 m 0,0,1
 587.92984442 1686.57151425 587.92984442 1686.57151425 587.714338414 1664.04635577 c 0,2,3
 587.927660765 1620.73609404 587.927660765 1620.73609404 641.333477362 1598.28248926 c 0,4,5
 659.941231424 1590.45916247 659.941231424 1590.45916247 697.963688251 1578.71152612 c 1,6,7
 715.0005202 1613.7360769 715.0005202 1613.7360769 715.001953129 1648.81991463 c 0,8,9
 715.001093866 1692.01336155 715.001093866 1692.01336155 700.678054019 1709.29349794 c 128,-1,10
 686.355014173 1726.57363433 686.355014173 1726.57363433 654.456781803 1726.29455327 c 0,11,12
 642.796151118 1726.21352245 642.796151118 1726.21352245 633.337128291 1723.68845481 c 128,-1,13
 623.878105465 1721.16338717 623.878105465 1721.16338717 616.512282258 1716.38371403 c 128,-1,14
 609.146459051 1711.60404089 609.146459051 1711.60404089 602.965781921 1704.27878472 c 0,0,1
338.79245354 1514.85068495 m 2,15,16
 339.820953164 1459.44429924 339.820953164 1459.44429924 347.950894291 1419.48424319 c 128,-1,17
 356.080835418 1379.52418714 356.080835418 1379.52418714 370.971809466 1355.40920199 c 128,-1,18
 385.862783513 1331.29421683 385.862783513 1331.29421683 405.922283632 1320.15455936 c 128,-1,19
 425.98178375 1309.0149019 425.98178375 1309.0149019 452.334326608 1309.27436257 c 0,20,21
 515.817606486 1309.91806142 515.817606486 1309.91806142 586.525952018 1378.40343036 c 0,22,23
 621.747281156 1413.15396672 621.747281156 1413.15396672 654.544288453 1472.12269185 c 1,24,-1
 650.859450759 1472.90468156 l 2,25,26
 597.901450887 1484.30573904 597.901450887 1484.30573904 560.791889454 1503.18113105 c 128,-1,27
 523.68232802 1522.05652305 523.68232802 1522.05652305 502.365248477 1549.97023345 c 0,28,29
 466 1598.3179852 466 1598.3179852 466 1655.09960938 c 0,30,31
 466 1661.90684396 466 1661.90684396 466.282773603 1668.42842026 c 128,-1,32
 466.565547207 1674.94999656 466.565547207 1674.94999656 467.13888085 1681.29165826 c 128,-1,33
 467.712214494 1687.63331996 467.712214494 1687.63331996 468.588431398 1693.71018208 c 128,-1,34
 469.464648302 1699.78704419 469.464648302 1699.78704419 470.642814211 1705.65430923 c 128,-1,35
 471.82098012 1711.52157427 471.82098012 1711.52157427 473.322720326 1717.14826783 c 128,-1,36
 474.824460532 1722.77496138 474.824460532 1722.77496138 476.639538709 1728.16237538 c 128,-1,37
 478.454616886 1733.54978938 478.454616886 1733.54978938 480.613960396 1738.72085999 c 128,-1,38
 482.773303905 1743.89193061 482.773303905 1743.89193061 485.257955731 1748.7974086 c 0,39,40
 509.695228609 1796.24705791 509.695228609 1796.24705791 551.684718297 1820.71726626 c 128,-1,41
 593.674207986 1845.18747461 593.674207986 1845.18747461 650.053096802 1845.41373512 c 0,42,43
 689.259716827 1845.73357593 689.259716827 1845.73357593 721.893387696 1834.06069263 c 128,-1,44
 754.527058566 1822.38780932 754.527058566 1822.38780932 779.101990916 1798.6502294 c 0,45,46
 832.962252401 1746.5117448 832.962252401 1746.5117448 833.38995226 1650.5743895 c 0,47,48
 833.664309731 1632.39468967 833.664309731 1632.39468967 829.799169473 1609.54252733 c 128,-1,49
 825.934029216 1586.690365 825.934029216 1586.690365 818.312446777 1559.75129358 c 1,50,-1
 822.920964441 1559.50932894 l 2,51,52
 851.686017165 1557.99162335 851.686017165 1557.99162335 880.822800982 1557.51687856 c 2,53,-1
 900.497070312 1557.19641041 l 1,54,-1
 900.497070312 1537.51953125 l 1,55,-1
 900.497070312 1459.00878906 l 1,56,-1
 900.497070312 1438.51327686 l 1,57,-1
 880.007694581 1439.01477717 l 2,58,59
 869.625064373 1439.26890362 869.625064373 1439.26890362 861.657862562 1439.50543828 c 128,-1,60
 853.690660752 1439.74197295 853.690660752 1439.74197295 847.124013491 1439.99675751 c 128,-1,61
 840.55736623 1440.25154208 840.55736623 1440.25154208 835.842348363 1440.52361057 c 128,-1,62
 831.127330497 1440.79567905 831.127330497 1440.79567905 827.976376867 1441.09865536 c 2,63,-1
 766.377654787 1447.0216094 l 1,64,65
 742.314519573 1392.81322489 742.314519573 1392.81322489 709.308021698 1348.03096518 c 128,-1,66
 676.301523823 1303.24870547 676.301523823 1303.24870547 633.160872962 1266.039942 c 0,67,68
 612.138356828 1247.61907766 612.138356828 1247.61907766 590.399009911 1233.64577448 c 128,-1,69
 568.659662993 1219.67247131 568.659662993 1219.67247131 546.193268625 1210.15942076 c 128,-1,70
 523.726874257 1200.6463702 523.726874257 1200.6463702 500.514818779 1195.81006201 c 128,-1,71
 477.302763301 1190.97375382 477.302763301 1190.97375382 453.73578323 1190.96388892 c 0,72,73
 350.336791628 1190.42714256 350.336791628 1190.42714256 297.99335455 1273.86353242 c 128,-1,74
 245.649917472 1357.29992228 245.649917472 1357.29992228 243.150000386 1514.16078942 c 2,75,-1
 242.826177923 1534.47949219 l 1,76,-1
 263.147460938 1534.47949219 l 1,77,-1
 318.795898438 1534.47949219 l 1,78,-1
 338.428087219 1534.47949219 l 1,79,-1
 338.79245354 1514.85068495 l 2,15,16
EndSplineSet
EndChar

StartChar: uni064D
Encoding: 1613 1613 48
GlifName: uni064D_
Width: -26
VWidth: 2316
GlyphClass: 4
Flags: W
AnchorPoint: "Anchor-7" 546.278 61.7109 mark 0
AnchorPoint: "Anchor-6" 546.278 61.7109 mark 0
AnchorPoint: "Anchor-0" 592.022 -447.025 basemark 0
AnchorPoint: "Anchor-0" 546.278 61.7109 mark 0
LayerCount: 2
Fore
SplineSet
312.099609375 -486 m 1,0,-1
 312.099609375 -382.422851562 l 1,1,-1
 312.099609375 -368.995842477 l 1,2,-1
 324.526930822 -363.91192129 l 1,3,-1
 779.927321447 -177.61114004 l 1,4,-1
 807.5 -166.331370278 l 1,5,-1
 807.5 -196.122070312 l 1,6,-1
 807.5 -299.700195312 l 1,7,-1
 807.5 -313.127231046 l 1,8,-1
 795.072644549 -318.211139495 l 1,9,-1
 339.672253924 -504.510944183 l 1,10,-1
 312.099609375 -515.790640907 l 1,11,-1
 312.099609375 -486 l 1,0,-1
312.099609375 -234 m 1,12,-1
 312.099609375 -130.422851562 l 1,13,-1
 312.099609375 -116.995842477 l 1,14,-1
 324.526930822 -111.91192129 l 1,15,-1
 779.927321447 74.3888599593 l 1,16,-1
 807.5 85.668629721 l 1,17,-1
 807.5 55.8779296875 l 1,18,-1
 807.5 -47.7001953125 l 1,19,-1
 807.5 -61.1272310468 l 1,20,-1
 795.072644549 -66.2111394951 l 1,21,-1
 339.672253924 -252.510944183 l 1,22,-1
 312.099609375 -263.790640907 l 1,23,-1
 312.099609375 -234 l 1,12,-1
EndSplineSet
EndChar

StartChar: uni064E
Encoding: 1614 1614 49
GlifName: uni064E_
Width: -26
VWidth: 2316
GlyphClass: 4
Flags: W
AnchorPoint: "Anchor-10" 581.66 1364.63 mark 0
AnchorPoint: "Anchor-9" 581.66 1364.63 mark 0
AnchorPoint: "Anchor-1" 541.396 1691.77 basemark 0
AnchorPoint: "Anchor-1" 581.66 1364.63 mark 0
LayerCount: 2
Fore
SplineSet
276.099609375 1349.09960938 m 1,0,-1
 276.099609375 1452.67773438 l 1,1,-1
 276.099609375 1466.10474347 l 1,2,-1
 288.526930822 1471.18866465 l 1,3,-1
 743.927321447 1657.48944589 l 1,4,-1
 771.5 1668.76921565 l 1,5,-1
 771.5 1638.97851562 l 1,6,-1
 771.5 1535.40039062 l 1,7,-1
 771.5 1521.97338153 l 1,8,-1
 759.072678553 1516.88946035 l 1,9,-1
 303.672287928 1330.58867911 l 1,10,-1
 276.099609375 1319.30890935 l 1,11,-1
 276.099609375 1349.09960938 l 1,0,-1
EndSplineSet
EndChar

StartChar: uni064F
Encoding: 1615 1615 50
GlifName: uni064F_
Width: -26
VWidth: 2316
GlyphClass: 4
Flags: W
AnchorPoint: "Anchor-10" 611.295 1299.37 mark 0
AnchorPoint: "Anchor-9" 611.295 1299.37 mark 0
AnchorPoint: "Anchor-1" 580.134 1920.4 basemark 0
AnchorPoint: "Anchor-1" 611.295 1299.37 mark 0
LayerCount: 2
Fore
SplineSet
822.652987786 1454.00195313 m 2,0,1
 791.932771719 1454.00195313 791.932771719 1454.00195313 766.715299324 1455.2788364 c 128,-1,2
 741.497826929 1456.55571968 741.497826929 1456.55571968 721.420460817 1459.16704819 c 2,3,-1
 701.883500246 1461.70808977 l 1,4,5
 563.377644063 1275.29133072 563.377644063 1275.29133072 319.606008547 1262.69850749 c 2,6,-1
 298.57421875 1261.61204142 l 1,7,-1
 298.57421875 1282.671875 l 1,8,-1
 298.57421875 1360.92578125 l 1,9,-1
 298.57421875 1380.09144749 l 1,10,-1
 317.722497956 1380.90763731 l 2,11,12
 480.661723503 1387.85287434 480.661723503 1387.85287434 571.602853299 1495.74689008 c 1,13,14
 554.644064906 1501.1877747 554.644064906 1501.1877747 539.207899332 1507.93203567 c 128,-1,15
 523.771733758 1514.67629663 523.771733758 1514.67629663 506.835829759 1523.94881352 c 0,16,17
 409.965750351 1578.30861702 409.965750351 1578.30861702 410.250340051 1675.6983251 c 0,18,19
 410.661777251 1711.05299518 410.661777251 1711.05299518 420.760679611 1741.18641722 c 128,-1,20
 430.85958197 1771.31983926 430.85958197 1771.31983926 450.780575366 1795.54779067 c 0,21,22
 502.611332206 1858.00463179 502.611332206 1858.00463179 592.957581869 1857.95995664 c 0,23,24
 626.60996975 1857.98203472 626.60996975 1857.98203472 656.440897967 1847.83745205 c 128,-1,25
 686.271826184 1837.69286938 686.271826184 1837.69286938 711.254416801 1817.57758412 c 0,26,27
 729.451951344 1802.92445202 729.451951344 1802.92445202 742.794584726 1784.53557368 c 128,-1,28
 756.137218108 1766.14669533 756.137218108 1766.14669533 764.485652544 1744.16906693 c 0,29,30
 776.047704879 1712.39460598 776.047704879 1712.39460598 775.544635239 1675.17178007 c 0,31,32
 775.081666705 1625.64325733 775.081666705 1625.64325733 757.77021999 1573.87050799 c 1,33,34
 792.624940257 1571.15263048 792.624940257 1571.15263048 821.890853359 1572.26772461 c 2,35,-1
 842.65234375 1573.05878198 l 1,36,-1
 842.65234375 1552.28222656 l 1,37,-1
 842.65234375 1474.00195312 l 1,38,-1
 842.65234375 1454.00259715 l 1,39,-1
 822.652987786 1454.00195313 l 2,0,1
638.5669323 1593.84846785 m 1,40,41
 657.018922857 1637.0277168 657.018922857 1637.0277168 657.158057799 1673.71639858 c 0,42,43
 657.036288168 1705.49225893 657.036288168 1705.49225893 639.224804535 1720.0641485 c 0,44,45
 619.436634505 1737.11622215 619.436634505 1737.11622215 596.666954964 1737.47352414 c 0,46,47
 578.387720086 1737.68841041 578.387720086 1737.68841041 565.544044708 1731.8612058 c 128,-1,48
 552.70036933 1726.03400119 552.70036933 1726.03400119 543.381297449 1713.87370374 c 0,49,50
 530.317734175 1696.19539271 530.317734175 1696.19539271 529.868681553 1671.87078293 c 0,51,52
 529.913818613 1655.76989198 529.913818613 1655.76989198 542.464709973 1641.04689516 c 128,-1,53
 555.015601333 1626.32389835 555.015601333 1626.32389835 584.121871334 1612.94814129 c 0,54,55
 592.429421572 1609.09465168 592.429421572 1609.09465168 606.774362883 1604.0534206 c 128,-1,56
 621.119304194 1599.01218952 621.119304194 1599.01218952 638.5669323 1593.84846785 c 1,40,41
EndSplineSet
EndChar

StartChar: uni0650
Encoding: 1616 1616 51
GlifName: uni0650
Width: -26
VWidth: 2316
GlyphClass: 4
Flags: W
AnchorPoint: "Anchor-7" 571.144 -21.8242 mark 0
AnchorPoint: "Anchor-6" 571.144 -21.8242 mark 0
AnchorPoint: "Anchor-0" 619.091 -334.624 basemark 0
AnchorPoint: "Anchor-0" 571.144 -21.8242 mark 0
LayerCount: 2
Fore
SplineSet
322.900390625 -345.599609375 m 1,0,-1
 322.900390625 -242.022460938 l 1,1,-1
 322.900390625 -228.595462755 l 1,2,-1
 335.327698161 -223.511536357 l 1,3,-1
 790.727112224 -37.2107551065 l 1,4,-1
 818.299804688 -25.9309554655 l 1,5,-1
 818.299804688 -55.7216796875 l 1,6,-1
 818.299804688 -159.299804688 l 1,7,-1
 818.299804688 -172.72682952 l 1,8,-1
 805.872463148 -177.81074318 l 1,9,-1
 350.473049085 -364.110547867 l 1,10,-1
 322.900390625 -375.39027447 l 1,11,-1
 322.900390625 -345.599609375 l 1,0,-1
EndSplineSet
EndChar

StartChar: uni0651
Encoding: 1617 1617 52
GlifName: uni0651
Width: -26
VWidth: 2393
GlyphClass: 4
Flags: W
AnchorPoint: "Anchor-10" 598.801 1463.71 mark 0
AnchorPoint: "Anchor-9" 598.801 1463.71 mark 0
AnchorPoint: "Anchor-1" 570.087 1849.1 basemark 0
AnchorPoint: "Anchor-1" 598.801 1463.71 mark 0
LayerCount: 2
Fore
SplineSet
628.403416837 1769.32195162 m 2,0,1
 630.195785149 1727.63191747 630.195785149 1727.63191747 630.623518614 1685.95902149 c 0,2,3
 630.435621922 1645.0773879 630.435621922 1645.0773879 641.624839251 1629.60168962 c 128,-1,4
 652.814056581 1614.12599134 652.814056581 1614.12599134 676.55866211 1614.25154114 c 0,5,6
 702.161551842 1614.45103586 702.161551842 1614.45103586 714.753653822 1632.33207817 c 128,-1,7
 727.345755802 1650.21312048 727.345755802 1650.21312048 727.62746464 1695.3119849 c 0,8,9
 727.885431276 1731.38032714 727.885431276 1731.38032714 711.52520403 1808.77272862 c 2,10,-1
 707.171165343 1829.36960084 l 1,11,-1
 727.964018473 1832.6629361 l 1,12,-1
 816.040190347 1846.61313141 l 1,13,-1
 833.499943997 1849.37854422 l 1,14,-1
 838.388860594 1832.39063675 l 2,15,16
 847.666099852 1800.15427539 847.666099852 1800.15427539 852.220230301 1768.19962108 c 128,-1,17
 856.774360749 1736.24496676 856.774360749 1736.24496676 856.527528468 1704.98447437 c 0,18,19
 856.775893765 1598.8190859 856.775893765 1598.8190859 814.978362452 1540.61877324 c 128,-1,20
 773.180831138 1482.41846058 773.180831138 1482.41846058 690.5612364 1481.66667791 c 0,21,22
 634.294536723 1481.25712523 634.294536723 1481.25712523 592.231670009 1517.51060067 c 1,23,24
 549.71714665 1418.19046241 549.71714665 1418.19046241 431.987901918 1417.88958965 c 0,25,26
 355.934928667 1418.06455687 355.934928667 1418.06455687 315.840294704 1467.18562589 c 128,-1,27
 275.74566074 1516.30669491 275.74566074 1516.30669491 274.305041602 1606.1962176 c 0,28,29
 273.35941966 1668.44556848 273.35941966 1668.44556848 287.791201092 1721.03408976 c 2,30,-1
 292.564782717 1738.42872673 l 1,31,-1
 310.358285102 1735.4703911 l 1,32,-1
 388.672738227 1722.44988328 l 1,33,-1
 409.372438137 1719.00836522 l 1,34,-1
 404.941638987 1698.49764505 l 2,35,36
 395.316097872 1653.93981845 395.316097872 1653.93981845 395.57658948 1619.78331496 c 0,37,38
 395.844990881 1583.88399647 395.844990881 1583.88399647 407.177694065 1569.96742854 c 128,-1,39
 418.510397248 1556.05086061 418.510397248 1556.05086061 443.780715963 1555.90196851 c 0,40,41
 475.544961456 1555.70738847 475.544961456 1555.70738847 491.766165895 1576.97798193 c 128,-1,42
 507.987370333 1598.24857539 507.987370333 1598.24857539 509.964868321 1649.98178707 c 0,43,44
 511.895880615 1700.36505974 511.895880615 1700.36505974 511.097088488 1768.22749181 c 2,45,-1
 510.858902547 1788.46289062 l 1,46,-1
 531.095703125 1788.46289062 l 1,47,-1
 608.421875 1788.46289062 l 1,48,-1
 627.580495648 1788.46289062 l 1,49,-1
 628.403416837 1769.32195162 l 2,0,1
EndSplineSet
EndChar

StartChar: uni0652
Encoding: 1618 1618 53
GlifName: uni0652
Width: -26
VWidth: 2316
GlyphClass: 4
Flags: W
AnchorPoint: "Anchor-10" 603.219 1222.43 mark 0
AnchorPoint: "Anchor-9" 603.219 1222.43 mark 0
AnchorPoint: "Anchor-1" 577.537 1799.66 basemark 0
AnchorPoint: "Anchor-1" 603.219 1222.43 mark 0
LayerCount: 2
Fore
SplineSet
378.139648438 1461.671875 m 128,-1,1
 378.139648438 1506.29999427 378.139648438 1506.29999427 393.907871888 1544.84671016 c 128,-1,2
 409.676095338 1583.39342604 409.676095338 1583.39342604 440.696853353 1614.41471835 c 0,3,4
 503.254892145 1676.97167969 503.254892145 1676.97167969 593.439453125 1676.97167969 c 0,5,6
 638.067055034 1676.97167969 638.067055034 1676.97167969 676.613561078 1661.20343648 c 128,-1,7
 715.160067123 1645.43519328 715.160067123 1645.43519328 746.181198125 1614.41459656 c 0,8,9
 766.845192988 1593.7506017 766.845192988 1593.7506017 780.785457842 1569.6525462 c 128,-1,10
 794.725722695 1545.55449071 794.725722695 1545.55449071 801.732490254 1518.46982263 c 128,-1,11
 808.739257812 1491.38515455 808.739257812 1491.38515455 808.739257812 1461.671875 c 0,12,13
 808.739257812 1371.48818969 808.739257812 1371.48818969 746.181198123 1308.93013 c 0,14,15
 725.517220281 1288.26615215 725.517220281 1288.26615215 701.419293885 1274.32589079 c 128,-1,16
 677.321367489 1260.38562942 677.321367489 1260.38562942 650.236899058 1253.37884986 c 128,-1,17
 623.152430628 1246.37207031 623.152430628 1246.37207031 593.439453125 1246.37207031 c 0,18,19
 548.811332245 1246.37207031 548.811332245 1246.37207031 510.264541701 1262.14059036 c 128,-1,20
 471.717751157 1277.90911041 471.717751157 1277.90911041 440.696609776 1308.93025179 c 128,-1,21
 409.679383182 1339.94801261 409.679383182 1339.94801261 393.90951581 1378.49518445 c 128,-1,0
 378.139648438 1417.04235629 378.139648438 1417.04235629 378.139648438 1461.671875 c 128,-1,1
504.539586784 1460.77268455 m 0,22,23
 504.260713948 1422.19902612 504.260713948 1422.19902612 531.082350895 1395.71420973 c 0,24,25
 557.346530125 1369.11242821 557.346530125 1369.11242821 596.13987271 1369.17189885 c 0,26,27
 634.3761146 1369.11242472 634.3761146 1369.11242472 661.196242714 1395.71415178 c 0,28,29
 674.481749438 1409.11013163 674.481749438 1409.11013163 681.039356318 1425.13635663 c 128,-1,30
 687.596963199 1441.16258162 687.596963199 1441.16258162 687.738733528 1460.77223733 c 0,31,32
 687.459839445 1499.2298829 687.459839445 1499.2298829 661.196184773 1525.82952293 c 0,33,34
 634.376338338 1552.31257129 634.376338338 1552.31257129 596.139424166 1552.37204646 c 0,35,36
 576.227490662 1552.34152124 576.227490662 1552.34152124 560.361637927 1545.84848586 c 128,-1,37
 544.495785192 1539.35545048 544.495785192 1539.35545048 531.082079845 1525.82979401 c 0,38,39
 504.260712226 1499.22763757 504.260712226 1499.22763757 504.539586784 1460.77268455 c 0,22,23
EndSplineSet
EndChar

StartChar: uni0653
Encoding: 1619 1619 54
GlifName: uni0653
Width: -30
VWidth: 2673
GlyphClass: 4
Flags: W
AnchorPoint: "Anchor-10" 461.017 1539.11 mark 0
AnchorPoint: "Anchor-9" 461.017 1539.11 mark 0
AnchorPoint: "Anchor-1" 461.017 2035.25 basemark 0
AnchorPoint: "Anchor-1" 461.017 1539.11 mark 0
LayerCount: 2
Fore
SplineSet
400.348632812 1636.8046875 m 2,0,1
 289.097070303 1652.11547185 289.097070303 1652.11547185 197.061523438 1542.6328125 c 1,2,-1
 95.6953125 1709.29980469 l 5,3,4
 214.313143403 1879.44918336 214.313143403 1879.44918336 383.756835938 1852.15820312 c 6,5,-1
 532.506835938 1828.20019531 l 6,6,7
 632 1812 632 1812 752.004882812 1873.74121094 c 5,8,-1
 817.659179688 1677.28320312 l 1,9,10
 689.104504559 1597.06521074 689.104504559 1597.06521074 540.869140625 1617.46582031 c 2,11,-1
 400.348632812 1636.8046875 l 2,0,1
EndSplineSet
EndChar

StartChar: uni0657
Encoding: 1623 1623 57
GlifName: uni0657
Width: -26
VWidth: 2316
GlyphClass: 4
Flags: W
AnchorPoint: "Anchor-10" 573.285 1350.55 mark 0
AnchorPoint: "Anchor-9" 573.285 1350.55 mark 0
AnchorPoint: "Anchor-1" 573.285 2089.85 basemark 0
AnchorPoint: "Anchor-1" 573.285 1350.55 mark 0
LayerCount: 2
Fore
SplineSet
265.087718114 1824.65333543 m 2,0,1
 292.513980079 1823.88726641 292.513980079 1823.88726641 322.919655211 1821.85666139 c 128,-1,2
 353.325330343 1819.82605638 353.325330343 1819.82605638 384.965382755 1816.68305831 c 1,3,4
 538.460468923 2029.46988078 538.460468923 2029.46988078 782.786965021 2052.62368537 c 2,5,-1
 804.673828125 2054.69781224 l 1,6,-1
 804.673828125 2032.71289062 l 1,7,-1
 804.673828125 1954.59179688 l 1,8,-1
 804.673828125 1937.54142498 l 1,9,-1
 787.838224124 1934.84371854 l 2,10,11
 706.323580902 1921.78196101 706.323580902 1921.78196101 639.454883235 1884.98070174 c 128,-1,12
 572.586185567 1848.17944247 572.586185567 1848.17944247 520.213227755 1788.02845622 c 1,13,14
 567.505716175 1770.51361565 567.505716175 1770.51361565 603.03715748 1744.53288411 c 0,15,16
 639.976082392 1716.65732984 639.976082392 1716.65732984 658.982856364 1679.82905996 c 128,-1,17
 677.989630335 1643.00079009 677.989630335 1643.00079009 677.976561375 1598.87780253 c 0,18,19
 678.002721837 1520.88910317 678.002721837 1520.88910317 627.636402523 1469.02987845 c 0,20,21
 578.50585711 1417.99830689 578.50585711 1417.99830689 501.362075731 1418.01367222 c 0,22,23
 418.843905825 1417.99850004 418.843905825 1417.99850004 359.621492688 1475.95139644 c 0,24,25
 335.68170251 1499.97304164 335.68170251 1499.97304164 323.758691057 1532.03837668 c 128,-1,26
 311.835679604 1564.10371172 311.835679604 1564.10371172 311.635316431 1603.31150794 c 0,27,28
 311.747481992 1616.7743824 311.747481992 1616.7743824 313.877079851 1632.98868231 c 128,-1,29
 316.00667771 1649.20298222 316.00667771 1649.20298222 319.823028136 1666.84511953 c 128,-1,30
 323.639378563 1684.48725685 323.639378563 1684.48725685 329.172136675 1704.31017472 c 1,31,32
 314.05926283 1705.22098006 314.05926283 1705.22098006 297.977793368 1705.73383268 c 128,-1,33
 281.896323905 1706.2466853 281.896323905 1706.2466853 264.379926019 1706.37751092 c 2,34,-1
 244.529296875 1706.52577033 l 1,35,-1
 244.529296875 1726.37695312 l 1,36,-1
 244.529296875 1804.66113281 l 1,37,-1
 244.529296875 1825.22757226 l 1,38,-1
 265.087718114 1824.65333543 l 2,0,1
501.030530228 1536.39991456 m 0,39,40
 509.438446349 1536.5235099 509.438446349 1536.5235099 516.304057634 1537.86310195 c 128,-1,41
 523.169668919 1539.20269401 523.169668919 1539.20269401 528.517157094 1541.74363292 c 128,-1,42
 533.864645269 1544.28457183 533.864645269 1544.28457183 537.943497076 1547.66485318 c 128,-1,43
 542.022348884 1551.04513453 542.022348884 1551.04513453 545.451715654 1555.60467295 c 0,44,45
 557.068162263 1572.7633309 557.068162263 1572.7633309 557.312936229 1596.68331388 c 0,46,47
 557.194053816 1619.19727266 557.194053816 1619.19727266 541.688517593 1637.49024088 c 128,-1,48
 526.18298137 1655.78320909 526.18298137 1655.78320909 491.236313933 1670.56833762 c 0,49,50
 470.459132731 1679.28134909 470.459132731 1679.28134909 449.19890408 1685.26770091 c 1,51,52
 430.005415463 1635.75534152 430.005415463 1635.75534152 430.023444045 1604.95951855 c 0,53,54
 430.01375493 1596.29260512 430.01375493 1596.29260512 431.325620754 1589.2128237 c 128,-1,55
 432.637486579 1582.13304228 432.637486579 1582.13304228 435.126762098 1576.43058572 c 0,56,57
 442.712649637 1559.01097902 442.712649637 1559.01097902 462.042954827 1547.81223853 c 0,58,59
 472.450115549 1541.76917431 472.450115549 1541.76917431 482.108721272 1539.00799211 c 128,-1,60
 491.767326995 1536.24680991 491.767326995 1536.24680991 501.030530228 1536.39991456 c 0,39,40
EndSplineSet
EndChar

StartChar: uni065A
Encoding: 1626 1626 58
GlifName: uni065A_
Width: 1135
VWidth: 2316
GlyphClass: 4
Flags: W
AnchorPoint: "Anchor-10" 573.285 1350.55 mark 0
AnchorPoint: "Anchor-9" 573.285 1350.55 mark 0
AnchorPoint: "Anchor-1" 571.012 1862.38 basemark 0
AnchorPoint: "Anchor-1" 573.285 1350.55 mark 0
LayerCount: 2
Fore
SplineSet
485.20342063 1434.15908232 m 1,0,-1
 291.360647192 1758.22353545 l 1,1,-1
 273.256283057 1788.49023438 l 1,2,-1
 308.524414062 1788.49023438 l 1,3,-1
 412.922851562 1788.49023438 l 1,4,-1
 423.626707512 1788.49023438 l 1,5,-1
 429.56401335 1779.58400445 l 1,6,-1
 573.28520692 1563.99564992 l 1,7,-1
 717.007306892 1779.58405122 l 1,8,-1
 722.944617706 1788.49023438 l 1,9,-1
 733.6484375 1788.49023438 l 1,10,-1
 838.047851562 1788.49023438 l 1,11,-1
 873.316256192 1788.49023438 l 1,12,-1
 855.211550075 1758.22342118 l 1,13,-1
 661.365846951 1434.15896805 l 1,14,-1
 655.543744527 1424.42578125 l 1,15,-1
 644.202148438 1424.42578125 l 1,16,-1
 502.3671875 1424.42578125 l 1,17,-1
 491.025503419 1424.42578125 l 1,18,-1
 485.20342063 1434.15908232 l 1,0,-1
EndSplineSet
EndChar

StartChar: afii57392
Encoding: 1632 1632 59
GlifName: afii57392
Width: 1077
VWidth: 2992
GlyphClass: 2
Flags: W
LayerCount: 2
Fore
SplineSet
418.063476562 633.301757812 m 4,0,1
 418.063476562 622.466796875 418.063476562 622.466796875 419.413085938 612.758789062 c 132,-1,2
 420.762695312 603.051757812 420.762695312 603.051757812 423.491210938 594.189453125 c 132,-1,3
 426.219726562 585.327148438 426.219726562 585.327148438 430.448242188 577.157226562 c 132,-1,4
 434.678710938 568.986328125 434.678710938 568.986328125 440.326171875 561.431640625 c 132,-1,5
 445.973632812 553.879882812 445.973632812 553.879882812 453.272460938 546.580078125 c 4,6,7
 471.0078125 528.844726562 471.0078125 528.844726562 492.692382812 520.01953125 c 132,-1,8
 514.450195312 511.1640625 514.450195312 511.1640625 541.791015625 510.772460938 c 4,9,10
 594.069335938 511.526367188 594.069335938 511.526367188 629.125 546.58203125 c 4,11,12
 638.21484375 555.670898438 638.21484375 555.670898438 644.712890625 565.318359375 c 132,-1,13
 651.2109375 574.96484375 651.2109375 574.96484375 655.551757812 585.596679688 c 4,14,15
 664.331054688 607.108398438 664.331054688 607.108398438 664.331054688 633.301757812 c 132,-1,16
 664.331054688 659.49609375 664.331054688 659.49609375 655.551757812 681.008789062 c 4,17,18
 646.870117188 702.280273438 646.870117188 702.280273438 629.125 720.025390625 c 4,19,20
 623.944335938 725.206054688 623.944335938 725.206054688 618.58203125 729.561523438 c 132,-1,21
 613.219726562 733.91796875 613.219726562 733.91796875 607.534179688 737.555664062 c 132,-1,22
 601.84765625 741.193359375 601.84765625 741.193359375 595.837890625 744.060546875 c 132,-1,23
 589.826171875 746.927734375 589.826171875 746.927734375 583.419921875 749.096679688 c 132,-1,24
 577.013671875 751.264648438 577.013671875 751.264648438 570.135742188 752.717773438 c 132,-1,25
 563.255859375 754.170898438 563.255859375 754.170898438 555.907226562 754.9453125 c 132,-1,26
 548.561523438 755.720703125 548.561523438 755.720703125 540.59765625 755.83203125 c 4,27,28
 533.381835938 755.727539062 533.381835938 755.727539062 526.942382812 755.107421875 c 132,-1,29
 520.505859375 754.486328125 520.505859375 754.486328125 514.612304688 753.317382812 c 132,-1,30
 508.717773438 752.149414062 508.717773438 752.149414062 503.34375 750.514648438 c 132,-1,31
 497.96875 748.880859375 497.96875 748.880859375 492.541015625 746.649414062 c 4,32,33
 471.068359375 737.8203125 471.068359375 737.8203125 453.271484375 720.025390625 c 4,34,35
 435.056640625 701.810546875 435.056640625 701.810546875 426.559570312 680.994140625 c 132,-1,36
 418.063476562 660.1796875 418.063476562 660.1796875 418.063476562 633.301757812 c 4,0,1
285.345703125 885.748046875 m 4,37,38
 293.954101562 894.356445312 293.954101562 894.356445312 302.8671875 902.266601562 c 132,-1,39
 311.779296875 910.177734375 311.779296875 910.177734375 321.073242188 917.4453125 c 132,-1,40
 330.366210938 924.712890625 330.366210938 924.712890625 339.954101562 931.256835938 c 4,41,42
 368.8984375 951.009765625 368.8984375 951.009765625 400.520507812 964.201171875 c 4,43,44
 463.611328125 990.51953125 463.611328125 990.51953125 536.678710938 990.51953125 c 4,45,46
 585.233398438 990.51953125 585.233398438 990.51953125 629.446289062 978.874023438 c 4,47,48
 644.268554688 974.970703125 644.268554688 974.970703125 658.620117188 969.743164062 c 132,-1,49
 672.97265625 964.515625 672.97265625 964.515625 686.793945312 957.990234375 c 132,-1,50
 700.614257812 951.46484375 700.614257812 951.46484375 713.8671875 943.659179688 c 132,-1,51
 727.0859375 935.874023438 727.0859375 935.874023438 739.783203125 926.79296875 c 132,-1,52
 752.48046875 917.7109375 752.48046875 917.7109375 764.508789062 907.467773438 c 132,-1,53
 776.536132812 897.223632812 776.536132812 897.223632812 788.01171875 885.748046875 c 4,54,55
 813.890625 859.869140625 813.890625 859.869140625 833.591796875 831.004882812 c 132,-1,56
 853.293945312 802.140625 853.293945312 802.140625 866.459960938 770.579101562 c 4,57,58
 875.252929688 749.50390625 875.252929688 749.50390625 881.119140625 727.1875 c 132,-1,59
 886.986328125 704.872070312 886.986328125 704.872070312 889.884765625 681.70703125 c 132,-1,60
 892.784179688 658.541992188 892.784179688 658.541992188 892.784179688 634.4140625 c 4,61,62
 892.784179688 487.852539062 892.784179688 487.852539062 788.01171875 383.080078125 c 4,63,64
 762.045898438 357.114257812 762.045898438 357.114257812 733.372070312 337.58984375 c 4,65,66
 727.600585938 333.659179688 727.600585938 333.659179688 721.713867188 329.987304688 c 132,-1,67
 715.827148438 326.315429688 715.827148438 326.315429688 709.81640625 322.896484375 c 132,-1,68
 703.805664062 319.478515625 703.805664062 319.478515625 697.688476562 316.32421875 c 132,-1,69
 691.571289062 313.168945312 691.571289062 313.168945312 685.333984375 310.2734375 c 132,-1,70
 679.095703125 307.377929688 679.095703125 307.377929688 672.759765625 304.751953125 c 4,71,72
 662.1953125 300.375 662.1953125 300.375 651.326171875 296.733398438 c 132,-1,73
 640.456054688 293.091796875 640.456054688 293.091796875 629.333984375 290.200195312 c 132,-1,74
 618.2109375 287.30859375 618.2109375 287.30859375 606.826171875 285.16015625 c 4,75,76
 572.884765625 278.756835938 572.884765625 278.756835938 536.625 278.923828125 c 4,77,78
 463.709960938 278.588867188 463.709960938 278.588867188 400.579101562 304.755859375 c 4,79,80
 379.469726562 313.504882812 379.469726562 313.504882812 359.547851562 325.19921875 c 132,-1,81
 339.725585938 336.834960938 339.725585938 336.834960938 321.095703125 351.380859375 c 4,82,83
 316.459960938 355 316.459960938 355 311.90234375 358.796875 c 132,-1,84
 307.34375 362.594726562 307.34375 362.594726562 302.875 366.55859375 c 132,-1,85
 298.407226562 370.522460938 298.407226562 370.522460938 294.02734375 374.650390625 c 132,-1,86
 289.647460938 378.778320312 289.647460938 378.778320312 285.345703125 383.080078125 c 4,87,88
 278.901367188 389.524414062 278.901367188 389.524414062 272.83984375 396.154296875 c 132,-1,89
 266.77734375 402.783203125 266.77734375 402.783203125 261.084960938 409.61328125 c 132,-1,90
 255.391601562 416.442382812 255.391601562 416.442382812 250.0859375 423.4609375 c 132,-1,91
 244.78125 430.479492188 244.78125 430.479492188 239.862304688 437.681640625 c 132,-1,92
 234.944335938 444.884765625 234.944335938 444.884765625 230.41796875 452.28125 c 132,-1,93
 225.892578125 459.676757812 225.892578125 459.676757812 221.770507812 467.241210938 c 132,-1,94
 217.649414062 474.806640625 217.649414062 474.806640625 213.92578125 482.569335938 c 132,-1,95
 210.202148438 490.33203125 210.202148438 490.33203125 206.899414062 498.248046875 c 4,96,97
 180.577148438 561.348632812 180.577148438 561.348632812 180.577148438 634.415039062 c 132,-1,98
 180.577148438 707.483398438 180.577148438 707.483398438 206.89453125 770.575195312 c 132,-1,99
 233.17578125 833.579101562 233.17578125 833.579101562 285.345703125 885.748046875 c 4,37,38
EndSplineSet
EndChar

StartChar: afii57393
Encoding: 1633 1633 60
GlifName: afii57393
Width: 756
VWidth: 2992
GlyphClass: 2
Flags: W
LayerCount: 2
Fore
SplineSet
346.114257812 1392.60742188 m 6,0,1
 554.115234375 936.439578383 554.115234375 936.439578383 554.115234375 268.771484375 c 6,2,-1
 554.115234375 51.5537109375 l 1,3,-1
 554.115234375 11.5537109375 l 1,4,-1
 514.115234375 11.5537109375 l 1,5,-1
 334.796875 11.5537109375 l 1,6,-1
 294.797851562 11.5537109375 l 1,7,-1
 294.796875 51.552734375 l 1,8,-1
 294.791992188 271.930664062 l 6,9,10
 294.999893468 923.666040253 294.999893468 923.666040253 109.013671875 1300.19335938 c 6,11,-1
 89.0361328125 1340.63769531 l 5,12,-1
 131.579101562 1355.6328125 l 5,13,-1
 296.420898438 1413.73730469 l 5,14,-1
 330.932617188 1425.90234375 l 5,15,-1
 346.114257812 1392.60742188 l 6,0,1
EndSplineSet
EndChar

StartChar: afii57394
Encoding: 1634 1634 61
GlifName: afii57394
Width: 1217
VWidth: 2992
GlyphClass: 2
Flags: W
LayerCount: 2
Fore
SplineSet
448.922851562 1107.71582031 m 6,0,1
 475.888748801 1033.07039674 475.888748801 1033.07039674 531.876953125 997.642578125 c 4,2,3
 589 962 589 962 685.017578125 961.76953125 c 4,4,5
 722 962 722 962 749.435546875 970.174804688 c 4,6,7
 777 979 777 979 794.999023438 994.23046875 c 4,8,9
 813 1010 813 1010 825.73828125 1034.3125 c 4,10,11
 875.999168844 1131.99838458 875.999168844 1131.99838458 875.948242188 1364.53515625 c 6,12,-1
 875.939453125 1404.66699219 l 5,13,-1
 916.071289062 1404.54394531 l 5,14,-1
 1095.81640625 1403.99023438 l 5,15,-1
 1136.06347656 1403.86621094 l 5,16,-1
 1135.69140625 1363.62011719 l 6,17,18
 1135 1288 1135 1288 1130.66113281 1220.90332031 c 4,19,20
 1121 1088 1121 1088 1092.43847656 990.6953125 c 4,21,22
 1064 894 1064 894 1013.98144531 831.104492188 c 4,23,24
 959 762 959 762 876.703125 728.3125 c 4,25,26
 794 694 794 694 689.115234375 694.568359375 c 4,27,28
 643 695 643 695 602.887695312 700.092773438 c 4,29,30
 563 705 563 705 528.801757812 716.021484375 c 5,31,32
 554.115234375 492.984670962 554.115234375 492.984670962 554.115234375 268.771484375 c 6,33,-1
 554.115234375 51.5537109375 l 1,34,-1
 554.115234375 11.5537109375 l 1,35,-1
 514.115234375 11.5537109375 l 1,36,-1
 334.796875 11.5537109375 l 1,37,-1
 294.797851562 11.5537109375 l 1,38,-1
 294.796875 51.552734375 l 1,39,-1
 294.791992188 271.930664062 l 6,40,41
 294.999890499 923.656731585 294.999890499 923.656731585 109.013671875 1300.19335938 c 6,42,-1
 89.037109375 1340.63671875 l 5,43,-1
 131.579101562 1355.6328125 l 5,44,-1
 296.19921875 1413.66210938 l 5,45,-1
 333.631835938 1426.85742188 l 5,46,-1
 347.1171875 1389.52832031 l 5,47,-1
 448.922851562 1107.71582031 l 6,0,1
EndSplineSet
EndChar

StartChar: afii57395
Encoding: 1635 1635 62
GlifName: afii57395
Width: 1492
VWidth: 2992
GlyphClass: 2
Flags: W
LayerCount: 2
Fore
SplineSet
528.806640625 716.48828125 m 1,0,1
 554.115234375 488.964043058 554.115234375 488.964043058 554.115234375 268.771484375 c 2,2,-1
 554.115234375 51.5537109375 l 1,3,-1
 554.115234375 11.5537109375 l 1,4,-1
 514.115234375 11.5537109375 l 1,5,-1
 334.796875 11.5537109375 l 1,6,-1
 294.797851562 11.5537109375 l 1,7,-1
 294.796875 51.552734375 l 1,8,-1
 294.791992188 271.9296875 l 2,9,10
 294.999890499 923.656731584 294.999890499 923.656731584 109.013671875 1300.19335938 c 2,11,-1
 89.037109375 1340.63671875 l 1,12,-1
 131.579101562 1355.6328125 l 1,13,-1
 296.168945312 1413.65136719 l 1,14,-1
 334.010742188 1426.99121094 l 1,15,-1
 347.232421875 1389.10742188 l 1,16,-1
 456.920898438 1074.828125 l 2,17,18
 491 978 491 978 604.786132812 977.630859375 c 4,19,20
 669 977 669 977 698.064453125 1025.84863281 c 0,21,22
 727.133882203 1074.2227921 727.133882203 1074.2227921 724.375976562 1193.63671875 c 2,23,-1
 721.672851562 1310.67871094 l 1,24,-1
 720.756835938 1350.3203125 l 1,25,-1
 760.389648438 1351.58203125 l 1,26,-1
 919.044921875 1356.6328125 l 1,27,-1
 959.274414062 1357.9140625 l 1,28,-1
 960.3046875 1317.67675781 l 1,29,-1
 963.998046875 1173.39453125 l 2,30,31
 967 1062 967 1062 996.39453125 1016.91894531 c 0,32,33
 1026 971 1026 971 1080.94921875 970.889648438 c 0,34,35
 1129 971 1129 971 1149.85839844 1030.74511719 c 0,36,37
 1163 1068 1163 1068 1169.51855469 1248.39160156 c 1,38,-1
 1169.83105469 1381.22460938 l 1,39,-1
 1169.92480469 1421.09375 l 1,40,-1
 1209.79394531 1421.13085938 l 1,41,-1
 1386.59667969 1421.29394531 l 1,42,-1
 1426.81152344 1421.33105469 l 1,43,-1
 1426.63378906 1381.11621094 l 1,44,-1
 1426.0546875 1250.5078125 l 2,45,46
 1426 1185 1426 1185 1418.57714844 1100.27832031 c 0,47,48
 1403 911 1403 911 1319.5234375 808.986328125 c 128,-1,49
 1236 707 1236 707 1086.375 707.76953125 c 0,50,51
 941 709 941 709 838.477539062 804.737304688 c 1,52,53
 743 707 743 707 623.098632812 706.943359375 c 0,54,55
 568 707 568 707 528.806640625 716.48828125 c 1,0,1
EndSplineSet
EndChar

StartChar: afii57396
Encoding: 1636 1636 63
GlifName: afii57396
Width: 1056
VWidth: 2992
GlyphClass: 2
Flags: W
LayerCount: 2
Fore
SplineSet
99.330078125 350.529296875 m 0,0,1
 91 557 91 557 410.018554688 746.969726562 c 5,2,3
 181 858 181 858 181.663085938 1040.078125 c 4,4,5
 182 1144 182 1144 236.576171875 1222.01464844 c 4,6,7
 391.713455285 1448.581522 391.713455285 1448.581522 824.802734375 1397.1015625 c 6,8,-1
 862.619140625 1392.60644531 l 5,9,-1
 844.477539062 1130.82128906 l 5,10,-1
 802.954101562 1135.53125 l 6,11,12
 685 1149 685 1149 617.94921875 1136.66796875 c 4,13,14
 550 1125 550 1125 522.426757812 1108.1171875 c 4,15,16
 471 1077 471 1077 470.829101562 1041.8359375 c 4,17,18
 469.998824005 937.852719461 469.998824005 937.852719461 791.032226562 911.575195312 c 6,19,-1
 827.313476562 908.60546875 l 5,20,-1
 830.385742188 661.240234375 l 5,21,-1
 805.006835938 651.0078125 l 6,22,23
 370 475 370 475 375.432617188 392.86328125 c 0,24,25
 383.006555608 273.897028992 383.006555608 273.897028992 723.578125 276.052734375 c 2,26,-1
 957.317382812 277.532226562 l 1,27,-1
 960.4375 -0.0703125 l 1,28,-1
 716.973632812 0.46875 l 2,29,30
 325 1 325 1 178.984375 152.590820312 c 0,31,32
 103 231 103 231 99.330078125 350.529296875 c 0,0,1
EndSplineSet
EndChar

StartChar: afii57397
Encoding: 1637 1637 64
GlifName: afii57397
Width: 1257
VWidth: 2992
GlyphClass: 2
Flags: W
LayerCount: 2
Fore
SplineSet
605.099609375 976.397460938 m 5,0,1
 350 693 350 693 349.721679688 493.2421875 c 4,2,3
 350 407 350 407 429.357479656 341.241442785 c 0,4,5
 509 275 509 275 632.096679688 275.03125 c 0,6,7
 785 275 785 275 854.736328125 357.174804688 c 0,8,9
 907 419 907 419 906.259765625 500.182617188 c 4,10,11
 906 735 906 735 605.099609375 976.397460938 c 5,0,1
344.1171875 1181.1875 m 5,12,-1
 489.322265625 1415.32617188 l 5,13,-1
 523.5078125 1393.3984375 l 6,14,15
 1176 975 1176 975 1176.70605469 477.306640625 c 4,16,17
 1177 223 1177 223 962.2109375 89.9609375 c 0,18,19
 828 7 828 7 620.391601562 7.97265625 c 0,20,21
 453 9 453 9 324.718261719 79.9086914062 c 0,22,23
 76 218 76 218 78.630859375 476.333984375 c 4,24,25
 82 783 82 783 393.618164062 1143.26269531 c 5,26,-1
 344.1171875 1181.1875 l 5,12,-1
EndSplineSet
EndChar

StartChar: afii57398
Encoding: 1638 1638 65
GlifName: afii57398
Width: 1305
VWidth: 2992
GlyphClass: 2
Flags: W
LayerCount: 2
Fore
SplineSet
802.471679688 1076.07617188 m 5,0,1
 653 1041 653 1041 494.139648438 1040.07324219 c 4,2,3
 376 1040 376 1040 268.706054688 1061.69433594 c 4,4,5
 163.005662562 1082.60325375 163.005662562 1082.60325375 64.9609375 1126.86328125 c 6,6,-1
 41.41796875 1137.49121094 l 5,7,-1
 41.41796875 1163.32128906 l 5,8,-1
 41.41796875 1373.89746094 l 5,9,-1
 41.41796875 1436.6171875 l 5,10,-1
 98.287109375 1410.16601562 l 6,11,12
 288 1322 288 1322 509.75390625 1321.84277344 c 4,13,14
 572 1322 572 1322 632.74609375 1327.49609375 c 4,15,16
 694 1334 694 1334 754.235351562 1344.65429688 c 4,17,18
 815 1356 815 1356 873.50390625 1373.14746094 c 4,19,20
 894 1379 894 1379 913.15625 1385.05664062 c 4,21,22
 933 1391 933 1391 952.100585938 1398.26367188 c 4,23,24
 970.270838214 1404.74010448 970.270838214 1404.74010448 990.711914062 1412.890625 c 6,25,-1
 1044.796875 1434.45605469 l 5,26,-1
 1045.52441406 1376.23535156 l 6,27,28
 1056.01077556 547.148047541 1056.01077556 547.148047541 1201.38476562 63.0576171875 c 2,29,-1
 1216.8515625 11.5537109375 l 1,30,-1
 1163.07519531 11.5537109375 l 1,31,-1
 974.34765625 11.5537109375 l 1,32,-1
 942.9609375 11.5537109375 l 1,33,-1
 935.49609375 42.0390625 l 2,34,35
 816 531 816 531 802.471679688 1076.07617188 c 5,0,1
EndSplineSet
EndChar

StartChar: afii57399
Encoding: 1639 1639 66
GlifName: afii57399
Width: 1301
VWidth: 2992
GlyphClass: 2
Flags: W
LayerCount: 2
Fore
SplineSet
1238.24707031 1271.98828125 m 6,0,1
 887.250448003 583.060549833 887.250448003 583.060549833 773.41015625 43.298828125 c 2,2,-1
 766.71484375 11.5537109375 l 1,3,-1
 534.436523438 11.5537109375 l 1,4,-1
 527.53515625 42.970703125 l 2,5,6
 410.471549303 573.394448671 410.471549303 573.394448671 62.4580078125 1272.30371094 c 6,7,-1
 44.7705078125 1307.82519531 l 5,8,-1
 285.499023438 1430.1015625 l 5,9,-1
 302.981445312 1392.60449219 l 6,10,11
 533 899 533 899 650.391601562 456.013671875 c 5,12,13
 767.976550195 900.91127468 767.976550195 900.91127468 997.930664062 1392.64746094 c 6,14,-1
 1015.43554688 1430.08007812 l 5,15,-1
 1256.42773438 1307.67285156 l 5,16,-1
 1238.24707031 1271.98828125 l 6,0,1
EndSplineSet
EndChar

StartChar: afii57400
Encoding: 1640 1640 67
GlifName: afii57400
Width: 1301
VWidth: 2992
GlyphClass: 2
Flags: W
LayerCount: 2
Fore
SplineSet
285.436523438 -22.435546875 m 1,0,-1
 44.7783203125 99.8046875 l 1,1,-1
 62.4541015625 135.322265625 l 2,2,3
 412.003973883 839.021157393 412.003973883 839.021157393 527.536132812 1364.66796875 c 6,4,-1
 534.440429688 1396.08105469 l 5,5,-1
 766.5234375 1396.08105469 l 5,6,-1
 773.37109375 1364.57617188 l 6,7,8
 887.812358157 836.865253016 887.812358157 836.865253016 1238.40136719 135.37890625 c 2,9,-1
 1256.16796875 99.830078125 l 1,10,-1
 1015.37792969 -22.4755859375 l 1,11,-1
 997.904296875 15.04296875 l 2,12,13
 768 509 768 509 650.567382812 951.56640625 c 1,14,15
 533.088865348 506.336789106 533.088865348 506.336789106 302.953125 14.96484375 c 2,16,-1
 285.436523438 -22.435546875 l 1,0,-1
EndSplineSet
EndChar

StartChar: afii57401
Encoding: 1641 1641 68
GlifName: afii57401
Width: 1179
VWidth: 2992
GlyphClass: 2
Flags: WO
LayerCount: 2
Fore
SplineSet
510.056640625 535.165039062 m 0,0,1
 370 535 370 535 271.861328125 579.288085938 c 0,2,3
 174 623 174 623 123.057617188 710.962890625 c 128,-1,4
 72 799 72 799 71.9462890625 925.950195312 c 0,5,6
 72 1082 72 1082 148.526367188 1205.61425781 c 0,7,8
 282 1420 282 1420 515.049804688 1420.31542969 c 0,9,10
 578 1420 578 1420 633.411132812 1408.6015625 c 0,11,12
 689 1397 689 1397 735.092773438 1374.09472656 c 0,13,14
 782 1351 782 1351 819.848632812 1317.4921875 c 0,15,16
 858 1284 858 1284 887.764648438 1239.45117188 c 0,17,18
 917 1195 917 1195 938.57421875 1140.671875 c 0,19,20
 960 1086 960 1086 972.365234375 1021.81054688 c 0,21,22
 985 957 985 957 988.889648438 883.565429688 c 0,23,24
 1013.76165675 422.419069118 1013.76165675 422.419069118 1021.77246094 52.4189453125 c 2,25,-1
 1022.65722656 11.5537109375 l 1,26,-1
 981.782226562 11.5537109375 l 1,27,-1
 809.748046875 11.5537109375 l 1,28,-1
 770.5546875 11.5537109375 l 1,29,-1
 769.756835938 50.73828125 l 1,30,-1
 757.30078125 581.859375 l 1,31,32
 638 535 638 535 510.056640625 535.165039062 c 0,0,1
512.721679688 804.890625 m 0,33,34
 627 805 627 805 736.145507812 853.706054688 c 1,35,36
 722 1010 722 1010 669.297851562 1079.44824219 c 0,37,38
 616 1149 616 1149 523.711914062 1148.7265625 c 0,39,40
 431 1149 431 1149 378.15234375 1076.70703125 c 0,41,42
 327 1007 327 1007 327.008789062 935.30078125 c 0,43,44
 327 868 327 868 368.877929688 836.6015625 c 0,45,46
 411 805 411 805 512.721679688 804.890625 c 0,33,34
EndSplineSet
EndChar

StartChar: afii57381
Encoding: 1642 1642 69
GlifName: afii57381
Width: 1288
VWidth: 4078
GlyphClass: 2
Flags: W
LayerCount: 2
Fore
SplineSet
709.512695312 385.344726562 m 128,-1,1
 709.512695312 472.015625 709.512695312 472.015625 771.366210938 532.723632812 c 0,2,3
 786.126953125 547.484375 786.126953125 547.484375 803.049804688 558.86328125 c 128,-1,4
 819.971679688 570.2421875 819.971679688 570.2421875 838.483398438 577.947265625 c 128,-1,5
 856.994140625 585.65234375 856.994140625 585.65234375 877.086914062 589.67578125 c 128,-1,6
 897.1796875 593.69921875 897.1796875 593.69921875 918.235351562 593.838867188 c 0,7,8
 961.379882812 594.124023438 961.379882812 594.124023438 998.553710938 578.646484375 c 128,-1,9
 1035.70898438 563.176757812 1035.70898438 563.176757812 1065.859375 532.458984375 c 0,10,11
 1080.57714844 517.739257812 1080.57714844 517.739257812 1092.09765625 500.756835938 c 128,-1,12
 1103.61816406 483.774414062 1103.61816406 483.774414062 1111.23828125 465.297851562 c 128,-1,13
 1118.89453125 446.733398438 1118.89453125 446.733398438 1122.69921875 426.629882812 c 128,-1,14
 1126.50390625 406.526367188 1126.50390625 406.526367188 1126.50390625 385.344726562 c 0,15,16
 1126.50390625 298.875 1126.50390625 298.875 1065.7265625 238.096679688 c 128,-1,17
 1004.94824219 177.318359375 1004.94824219 177.318359375 918.48046875 177.318359375 c 128,-1,18
 832.01171875 177.318359375 832.01171875 177.318359375 771.346679688 237.984375 c 0,19,0
 709.512695312 298.671875 709.512695312 298.671875 709.512695312 385.344726562 c 128,-1,1
160.96875 1159.37011719 m 4,20,21
 161 1246 161 1246 222.825195312 1306.75 c 4,22,23
 243 1326 243 1326 265.89453125 1339.91601562 c 4,24,25
 289 1353 289 1353 315.294921875 1360.47460938 c 4,26,27
 341 1368 341 1368 369.671875 1367.86523438 c 4,28,29
 412 1368 412 1368 450.01953125 1352.296875 c 4,30,31
 488 1337 488 1337 517.323242188 1306.47558594 c 4,32,33
 578 1246 578 1246 577.959960938 1159.37011719 c 4,34,35
 578 1117 578 1117 562.479492188 1079.18945312 c 4,36,37
 547 1042 547 1042 516.958007812 1011.90039062 c 132,-1,38
 487 982 487 982 450.388671875 966.684570312 c 4,39,40
 413 951 413 951 369.83203125 951.34375 c 4,41,42
 284 951 284 951 222.8203125 1011.99023438 c 4,43,44
 215 1020 215 1020 208.310546875 1027.64355469 c 4,45,46
 202 1036 202 1036 195.73828125 1044.16113281 c 4,47,48
 190 1053 190 1053 185.108398438 1061.49902344 c 4,49,50
 180 1070 180 1070 176.412109375 1079.6328125 c 4,51,52
 173 1089 173 1089 169.654296875 1098.51757812 c 4,53,54
 167 1108 167 1108 164.826171875 1118.12890625 c 4,55,56
 163 1128 163 1128 161.934570312 1138.421875 c 132,-1,57
 161 1149 161 1149 160.96875 1159.37011719 c 4,20,21
914.047851562 1448.52441406 m 5,58,-1
 1067.31933594 1369.55859375 l 5,59,-1
 1102.95117188 1351.20019531 l 5,60,-1
 1084.52050781 1315.60644531 l 5,61,-1
 390.471679688 55.2802734375 l 1,62,-1
 371.619140625 18.873046875 l 1,63,-1
 335.6875 38.6181640625 l 1,64,-1
 182.84765625 122.608398438 l 1,65,-1
 148.602539062 141.426757812 l 1,66,-1
 166.614257812 176.102539062 l 1,67,-1
 860.231445312 1431.40429688 l 5,68,-1
 878.608398438 1466.78222656 l 5,69,-1
 914.047851562 1448.52441406 l 5,58,-1
EndSplineSet
EndChar

StartChar: uni066B
Encoding: 1643 1643 70
GlifName: uni066B_
Width: 822
VWidth: 2992
GlyphClass: 2
Flags: W
LayerCount: 2
Fore
SplineSet
548.385742188 894.825195312 m 1,0,-1
 679.688476562 839.0859375 l 1,1,-1
 716.78515625 823.338867188 l 1,2,-1
 700.760742188 786.361328125 l 1,3,-1
 236.491210938 -284.966796875 l 1,4,-1
 220.560546875 -321.725585938 l 1,5,-1
 183.826171875 -305.73828125 l 1,6,-1
 50.4013671875 -247.668945312 l 1,7,-1
 13.69140625 -231.692382812 l 1,8,-1
 29.7021484375 -194.997070312 l 1,9,-1
 496.09375 874.000976562 l 1,10,-1
 511.930664062 910.301757812 l 1,11,-1
 548.385742188 894.825195312 l 1,0,-1
EndSplineSet
EndChar

StartChar: uni066C
Encoding: 1644 1644 71
GlifName: uni066C_
Width: 588
VWidth: 2882
GlyphClass: 2
Flags: W
LayerCount: 2
Fore
SplineSet
87.0283203125 190.947265625 m 0,0,1
 87.3173828125 219.7421875 87.3173828125 219.7421875 93.0986328125 244.810546875 c 128,-1,2
 98.8798828125 269.877929688 98.8798828125 269.877929688 110.826171875 291.080078125 c 0,3,4
 135.4609375 334.802734375 135.4609375 334.802734375 183.654296875 356.36328125 c 0,5,6
 227.547851562 376 227.547851562 376 290.438476562 376.182617188 c 0,7,8
 332.227539062 376.3671875 332.227539062 376.3671875 367.56640625 366.0390625 c 128,-1,9
 402.90625 355.7109375 402.90625 355.7109375 430.181640625 335.647460938 c 128,-1,10
 457.458007812 315.584960938 457.458007812 315.584960938 476.071289062 285.232421875 c 128,-1,11
 494.684570312 254.87890625 494.684570312 254.87890625 502.837890625 215.926757812 c 0,12,13
 519.255859375 135.903320312 519.255859375 135.903320312 490.528320312 20.8671875 c 0,14,15
 428.7734375 -215.151367188 428.7734375 -215.151367188 214.0703125 -391.934570312 c 2,16,-1
 191.612304688 -410.42578125 l 1,17,-1
 167.100585938 -394.7578125 l 1,18,-1
 127.034179688 -369.146484375 l 1,19,-1
 115.952148438 -362.0625 l 1,20,-1
 74.2890625 -335.4296875 l 1,21,-1
 109.038085938 -300.25 l 2,22,23
 255.661132812 -151.80859375 255.661132812 -151.80859375 279.838867188 -0.0283203125 c 1,24,25
 277.10546875 0.0595703125 277.10546875 0.0595703125 274.6015625 0.1650390625 c 128,-1,26
 272.096679688 0.26953125 272.096679688 0.26953125 269.693359375 0.3994140625 c 128,-1,27
 267.290039062 0.5283203125 267.290039062 0.5283203125 265.07421875 0.6787109375 c 128,-1,28
 262.858398438 0.8291015625 262.858398438 0.8291015625 260.72265625 1.0087890625 c 128,-1,29
 258.586914062 1.1884765625 258.586914062 1.1884765625 256.59765625 1.3935546875 c 128,-1,30
 254.608398438 1.599609375 254.608398438 1.599609375 252.676757812 1.8388671875 c 128,-1,31
 250.74609375 2.0771484375 250.74609375 2.0771484375 248.918945312 2.34765625 c 128,-1,32
 247.092773438 2.6171875 247.092773438 2.6171875 245.303710938 2.9248046875 c 128,-1,33
 243.514648438 3.2333984375 243.514648438 3.2333984375 241.788085938 3.576171875 c 128,-1,34
 240.060546875 3.919921875 240.060546875 3.919921875 238.349609375 4.306640625 c 0,35,36
 165.5703125 19.3056640625 165.5703125 19.3056640625 126.071289062 68.1845703125 c 128,-1,37
 86.5732421875 117.063476562 86.5732421875 117.063476562 87.0283203125 190.947265625 c 0,0,1
EndSplineSet
EndChar

StartChar: afii63167
Encoding: 1645 1645 72
GlifName: afii63167
Width: 1584
VWidth: 2992
GlyphClass: 2
Flags: W
LayerCount: 2
Fore
SplineSet
232.590820312 1118.65136719 m 1,0,-1
 635.94921875 1118.65136719 l 1,1,-1
 761.9921875 1502.41015625 l 1,2,-1
 799.995117188 1618.11523438 l 1,3,-1
 837.998046875 1502.41015625 l 1,4,-1
 964.04296875 1118.65136719 l 1,5,-1
 1367.40136719 1118.65136719 l 1,6,-1
 1489.89648438 1118.65136719 l 1,7,-1
 1391.0078125 1046.359375 l 1,8,-1
 1065.11425781 808.120117188 l 1,9,-1
 1189.73632812 425.275390625 l 1,10,-1
 1227.70996094 308.620117188 l 1,11,-1
 1128.2734375 380.473632812 l 1,12,-1
 799.995117188 617.686523438 l 1,13,-1
 471.719726562 380.473632812 l 1,14,-1
 372.284179688 308.620117188 l 1,15,-1
 410.256835938 425.275390625 l 1,16,-1
 534.876953125 808.120117188 l 1,17,-1
 208.984375 1046.36035156 l 1,18,-1
 110.095703125 1118.65136719 l 1,19,-1
 232.590820312 1118.65136719 l 1,0,-1
EndSplineSet
EndChar

StartChar: uni066E
Encoding: 1646 1646 73
GlifName: uni066E_
Width: 1837
VWidth: 2992
GlyphClass: 2
Flags: W
AnchorPoint: "Anchor-10" 1007.36 1455.35 basechar 0
AnchorPoint: "Anchor-7" 957.36 -217.261 basechar 0
LayerCount: 2
Fore
SplineSet
890.911132812 0 m 2,0,1
 486.134765625 0 486.134765625 0 273.103515625 130.831054688 c 128,-1,2
 60.0732421875 261.662109375 60.0732421875 261.662109375 60.16015625 525.854492188 c 0,3,4
 59.990234375 669.54296875 59.990234375 669.54296875 118.168945312 799.165039062 c 2,5,-1
 134.352539062 835.221679688 l 1,6,-1
 170.6015625 819.473632812 l 1,7,-1
 328.373046875 750.928710938 l 1,8,-1
 364.048828125 735.428710938 l 1,9,-1
 349.551757812 699.333007812 l 2,10,11
 319.04296875 623.374023438 319.04296875 623.374023438 319.424804688 554.606445312 c 0,12,13
 319.303710938 460.380859375 319.303710938 460.380859375 374.46875 397.0234375 c 128,-1,14
 429.633789062 333.666015625 429.633789062 333.666015625 553.883789062 298.87890625 c 128,-1,15
 678.133789062 264.091796875 678.133789062 264.091796875 871.877929688 264.13671875 c 0,16,17
 1113.73632812 264.0703125 1113.73632812 264.0703125 1269.16894531 287.858398438 c 128,-1,18
 1424.6015625 311.646484375 1424.6015625 311.646484375 1479.88574219 352.3359375 c 0,19,20
 1491.07421875 360.48046875 1491.07421875 360.48046875 1499.68359375 371.96875 c 128,-1,21
 1508.29199219 383.45703125 1508.29199219 383.45703125 1514.82714844 399.484375 c 128,-1,22
 1521.36132812 415.512695312 1521.36132812 415.512695312 1524.828125 437.1796875 c 128,-1,23
 1528.29492188 458.845703125 1528.29492188 458.845703125 1528.37988281 485.390625 c 0,24,25
 1528.20507812 526.657226562 1528.20507812 526.657226562 1519.30761719 586.354492188 c 128,-1,26
 1510.41015625 646.05078125 1510.41015625 646.05078125 1492.84863281 721.572265625 c 2,27,-1
 1483.95019531 759.836914062 l 1,28,-1
 1522.04785156 769.422851562 l 1,29,-1
 1685.1328125 810.458007812 l 1,30,-1
 1721.13476562 819.516601562 l 1,31,-1
 1732.84960938 784.290039062 l 2,32,33
 1785.00488281 627.461914062 1785.00488281 627.461914062 1784.90625 499.701171875 c 0,34,35
 1784.95605469 373.861328125 1784.95605469 373.861328125 1746.54882812 281.1328125 c 128,-1,36
 1708.14160156 188.404296875 1708.14160156 188.404296875 1629.72070312 133.549804688 c 0,37,38
 1438.58984375 -0 1438.58984375 -0 894.356445312 0 c 2,39,-1
 890.911132812 0 l 2,0,1
EndSplineSet
Substitution2: "'init' Initial Forms in Arabic lookup 13 subtable" uni066E.init
Substitution2: "'medi' Medial Forms in Arabic lookup 11 subtable" uni066E.medi
Substitution2: "'fina' Terminal Forms in Arabic lookup 9 subtable" uni066E.fina
EndChar

StartChar: uni066F
Encoding: 1647 1647 74
GlifName: uni066F_
Width: 1511
VWidth: 2992
GlyphClass: 2
Flags: W
AnchorPoint: "Anchor-10" 121.809 1402.22 basechar 0
AnchorPoint: "Anchor-7" 335.219 -721.353 basechar 0
LayerCount: 2
Fore
SplineSet
1436.04394531 54.1845703125 m 4,0,1
 1395.98632812 -202.720703125 1395.98632812 -202.720703125 1218.03222656 -333.375 c 132,-1,2
 1040.078125 -464.029296875 1040.078125 -464.029296875 736.865234375 -464.060546875 c 4,3,4
 519.517578125 -463.997070312 519.517578125 -463.997070312 372.326171875 -398.677734375 c 4,5,6
 216.5234375 -329.08984375 216.5234375 -329.08984375 138.546875 -188.94921875 c 4,7,8
 62.0556640625 -51.4794921875 62.0556640625 -51.4794921875 60.9580078125 152.583007812 c 4,9,10
 59.962890625 391.803710938 59.962890625 391.803710938 164.763671875 616.12890625 c 6,11,-1
 180.791015625 650.436523438 l 5,12,-1
 215.924804688 636.311523438 l 5,13,-1
 378.651367188 570.888671875 l 5,14,-1
 415.705078125 555.991210938 l 5,15,-1
 400.8671875 518.9140625 l 6,16,17
 386.973632812 484.196289062 386.973632812 484.196289062 375.541992188 451.118164062 c 132,-1,18
 364.110351562 418.0390625 364.110351562 418.0390625 355.189453125 386.811523438 c 132,-1,19
 346.26953125 355.583007812 346.26953125 355.583007812 339.7578125 325.928710938 c 4,20,21
 320.025390625 237.693359375 320.025390625 237.693359375 320.458984375 161.000976562 c 4,22,23
 321.630859375 -25.7568359375 321.630859375 -25.7568359375 421.950195312 -114.700195312 c 132,-1,24
 522.268554688 -203.64453125 522.268554688 -203.64453125 736.2265625 -203.326171875 c 4,25,26
 945.176757812 -202.741210938 945.176757812 -202.741210938 1056.70703125 -128.580078125 c 132,-1,27
 1168.23730469 -54.4189453125 1168.23730469 -54.4189453125 1195.64257812 94.552734375 c 5,28,29
 1177.01074219 90.759765625 1177.01074219 90.759765625 1158.45507812 87.9482421875 c 132,-1,30
 1139.8984375 85.1376953125 1139.8984375 85.1376953125 1121.06152344 83.263671875 c 132,-1,31
 1102.22558594 81.390625 1102.22558594 81.390625 1083.13574219 80.4189453125 c 132,-1,32
 1064.04589844 79.4462890625 1064.04589844 79.4462890625 1044.02734375 79.3193359375 c 4,33,34
 869.637695312 78.07421875 869.637695312 78.07421875 773.534179688 157.48046875 c 132,-1,35
 677.430664062 236.885742188 677.430664062 236.885742188 675.427734375 390.223632812 c 4,36,37
 675.194335938 414.01171875 675.194335938 414.01171875 677.291992188 436.788085938 c 132,-1,38
 679.389648438 459.564453125 679.389648438 459.564453125 683.862304688 481.495117188 c 4,39,40
 692.51953125 523.934570312 692.51953125 523.934570312 704.365234375 561.416992188 c 132,-1,41
 716.211914062 598.8984375 716.211914062 598.8984375 731.546875 632.084960938 c 132,-1,42
 746.881835938 665.272460938 746.881835938 665.272460938 765.9765625 693.7109375 c 132,-1,43
 785.071289062 722.150390625 785.071289062 722.150390625 807.729492188 745.403320312 c 4,44,45
 854.33984375 793.64453125 854.33984375 793.64453125 914.173828125 818.41796875 c 132,-1,46
 974.008789062 843.19140625 974.008789062 843.19140625 1043.67578125 843.43359375 c 4,47,48
 1055.41015625 843.51171875 1055.41015625 843.51171875 1066.89941406 842.8359375 c 132,-1,49
 1078.38964844 842.16015625 1078.38964844 842.16015625 1089.62109375 840.732421875 c 132,-1,50
 1100.85253906 839.305664062 1100.85253906 839.305664062 1111.80371094 837.112304688 c 132,-1,51
 1122.75585938 834.919921875 1122.75585938 834.919921875 1133.37890625 831.981445312 c 132,-1,52
 1144.00292969 829.04296875 1144.00292969 829.04296875 1154.31445312 825.327148438 c 132,-1,53
 1164.625 821.611328125 1164.625 821.611328125 1174.5390625 817.155273438 c 132,-1,54
 1184.453125 812.700195312 1184.453125 812.700195312 1194.02148438 807.455078125 c 132,-1,55
 1203.58984375 802.209960938 1203.58984375 802.209960938 1212.69335938 796.23046875 c 4,56,57
 1307.55371094 735.41796875 1307.55371094 735.41796875 1363.44824219 620.29296875 c 132,-1,58
 1419.34179688 505.166992188 1419.34179688 505.166992188 1438.49707031 339.340820312 c 4,59,60
 1447.40332031 263.435546875 1447.40332031 263.435546875 1446.81542969 191.916992188 c 132,-1,61
 1446.2265625 120.397460938 1446.2265625 120.397460938 1436.04394531 54.1845703125 c 4,0,1
919.455078125 417.583007812 m 4,62,63
 919.859375 373.6171875 919.859375 373.6171875 949.213867188 353.071289062 c 132,-1,64
 978.568359375 332.524414062 978.568359375 332.524414062 1056.3203125 333.231445312 c 4,65,66
 1118.59667969 333.797851562 1118.59667969 333.797851562 1182.60644531 348.977539062 c 5,67,68
 1168.41894531 436.985351562 1168.41894531 436.985351562 1139.70703125 498.663085938 c 4,69,70
 1118.67578125 545.23828125 1118.67578125 545.23828125 1093.96386719 564.573242188 c 132,-1,71
 1069.25195312 583.908203125 1069.25195312 583.908203125 1037.39746094 583.857421875 c 4,72,73
 999.829101562 583.908203125 999.829101562 583.908203125 973.776367188 559.881835938 c 132,-1,74
 947.723632812 535.85546875 947.723632812 535.85546875 929.737304688 477.41796875 c 4,75,76
 920.03515625 446.064453125 920.03515625 446.064453125 919.455078125 417.583007812 c 4,62,63
EndSplineSet
Substitution2: "'init' Initial Forms in Arabic lookup 13 subtable" uni066F.init
Substitution2: "'medi' Medial Forms in Arabic lookup 11 subtable" uni066F.medi
Substitution2: "'fina' Terminal Forms in Arabic lookup 9 subtable" uni066F.fina
EndChar

StartChar: uni0670
Encoding: 1648 1648 75
GlifName: uni0670
Width: -29
VWidth: 2574
GlyphClass: 4
Flags: W
AnchorPoint: "Anchor-10" 636.984 1500.61 mark 0
AnchorPoint: "Anchor-9" 636.984 1500.61 mark 0
AnchorPoint: "Anchor-1" 636.984 2087.18 basemark 0
AnchorPoint: "Anchor-1" 636.984 1500.61 mark 0
LayerCount: 2
Fore
SplineSet
573.435546875 1568.26757812 m 1,0,-1
 573.435546875 2019.51660156 l 1,1,-1
 573.435546875 2039.51660156 l 1,2,-1
 593.435546875 2039.51660156 l 1,3,-1
 680.533203125 2039.51660156 l 1,4,-1
 700.533203125 2039.51660156 l 1,5,-1
 700.533203125 2019.51660156 l 1,6,-1
 700.533203125 1568.26757812 l 1,7,-1
 700.533203125 1548.26757812 l 1,8,-1
 680.533203125 1548.26757812 l 1,9,-1
 593.435546875 1548.26757812 l 1,10,-1
 573.435546875 1548.26757812 l 1,11,-1
 573.435546875 1568.26757812 l 1,0,-1
EndSplineSet
EndChar

StartChar: uni0674
Encoding: 1652 1652 76
GlifName: uni0674
Width: 711
VWidth: 2537
GlyphClass: 2
Flags: W
LayerCount: 2
Fore
SplineSet
212.143130555 2001.22299924 m 1,0,1
 140.980522291 2072.63963938 140.980522291 2072.63963938 140.78315372 2170.52289297 c 0,2,3
 141.019507073 2266.98593592 141.019507073 2266.98593592 205.190843263 2334.77025453 c 0,4,5
 280.408724149 2413.99875646 280.408724149 2413.99875646 397.016961822 2414.01562473 c 0,6,7
 497.224216119 2413.9991409 497.224216119 2413.9991409 577.641837874 2368.92597695 c 2,8,-1
 587.800825577 2363.23197968 l 1,9,-1
 587.86299626 2351.58626069 l 1,10,-1
 588.565144698 2220.06087006 l 1,11,-1
 588.730245596 2189.13441794 l 1,12,-1
 560.45821553 2201.67096511 l 2,13,14
 471.726173602 2241.01704056 471.726173602 2241.01704056 411.001277799 2241.26146433 c 0,15,16
 392.128591001 2241.18308831 392.128591001 2241.18308831 376.494907682 2237.77930651 c 128,-1,17
 360.861224363 2234.3755247 360.861224363 2234.3755247 349.097933646 2228.18728951 c 128,-1,18
 337.334642929 2221.99905432 337.334642929 2221.99905432 328.264785851 2212.91044064 c 0,19,20
 317.000578661 2201.27222657 317.000578661 2201.27222657 311.646136655 2187.84464547 c 128,-1,21
 306.291694649 2174.41706437 306.291694649 2174.41706437 306.489714242 2158.32404354 c 0,22,23
 307.716000453 2097.32742368 307.716000453 2097.32742368 407.445292399 2062.71378821 c 0,24,25
 414.367816712 2060.33451355 414.367816712 2060.33451355 422.852703238 2061.17906635 c 0,26,27
 471.084159095 2066.79559996 471.084159095 2066.79559996 591.234106947 2088.23300543 c 2,28,-1
 614.747070312 2092.42823762 l 1,29,-1
 614.747070312 2068.54394531 l 1,30,-1
 614.747070312 1933.015625 l 1,31,-1
 614.747070312 1917.00791803 l 1,32,-1
 599.128145945 1913.50136928 l 1,33,-1
 162.667208445 1815.51308803 l 1,34,-1
 138.286132812 1810.0393801 l 1,35,-1
 138.286132812 1835.02734375 l 1,36,-1
 138.286132812 1968.27050781 l 1,37,-1
 138.286132812 1984.18120749 l 1,38,-1
 153.789476487 1987.7584549 l 1,39,-1
 212.143130555 2001.22299924 l 1,0,1
EndSplineSet
EndChar

StartChar: uni06A1
Encoding: 1697 1697 80
GlifName: uni06A_1
Width: 1851
VWidth: 2992
GlyphClass: 2
Flags: W
AnchorPoint: "Anchor-10" 670.853 1670.62 basechar 0
AnchorPoint: "Anchor-7" 653.182 -312.248 basechar 0
LayerCount: 2
Fore
SplineSet
1787.56054688 513.411132812 m 0,0,1
 1785.88964844 209.921875 1785.88964844 209.921875 1636.11914062 97.5537109375 c 0,2,3
 1590.38769531 63.458984375 1590.38769531 63.458984375 1524.43359375 41.6337890625 c 128,-1,4
 1458.47949219 19.8095703125 1458.47949219 19.8095703125 1376.32421875 9.904296875 c 128,-1,5
 1294.16894531 0 1294.16894531 0 1190.20996094 -0 c 2,6,-1
 859.911132812 0 l 2,7,8
 469.901367188 0 469.901367188 0 264.487304688 131.129882812 c 128,-1,9
 59.0732421875 262.259765625 59.0732421875 262.259765625 59.16015625 525.854492188 c 0,10,11
 58.990234375 669.54296875 58.990234375 669.54296875 117.168945312 799.165039062 c 2,12,-1
 133.352539062 835.221679688 l 1,13,-1
 169.6015625 819.473632812 l 1,14,-1
 327.373046875 750.928710938 l 1,15,-1
 362.759765625 735.553710938 l 1,16,-1
 348.671875 699.635742188 l 2,17,18
 340.8984375 679.817382812 340.8984375 679.817382812 335.142578125 660.62890625 c 128,-1,19
 329.385742188 641.44140625 329.385742188 641.44140625 325.654296875 622.94140625 c 128,-1,20
 321.921875 604.442382812 321.921875 604.442382812 320.12890625 586.612304688 c 128,-1,21
 318.336914062 568.782226562 318.336914062 568.782226562 318.43359375 551.359375 c 0,22,23
 318.24609375 410.084960938 318.24609375 410.084960938 444.647460938 337.182617188 c 128,-1,24
 571.047851562 264.280273438 571.047851562 264.280273438 846.166992188 264.159179688 c 2,25,-1
 1211.35058594 263.999023438 l 2,26,27
 1318.00390625 263.999023438 1318.00390625 263.999023438 1391.56542969 280.529296875 c 128,-1,28
 1465.12695312 297.05859375 1465.12695312 297.05859375 1500.58007812 323.495117188 c 128,-1,29
 1536.03320312 349.931640625 1536.03320312 349.931640625 1546.28125 386.528320312 c 1,30,31
 1509.23242188 378.692382812 1509.23242188 378.692382812 1470.57617188 374.774414062 c 128,-1,32
 1431.91992188 370.857421875 1431.91992188 370.857421875 1391.17675781 370.76953125 c 0,33,34
 1276.33886719 370.8515625 1276.33886719 370.8515625 1194.92285156 405.598632812 c 128,-1,35
 1113.5078125 440.346679688 1113.5078125 440.346679688 1069.13867188 510.206054688 c 128,-1,36
 1024.76855469 580.064453125 1024.76855469 580.064453125 1022.83789062 681.357421875 c 0,37,38
 1021.9296875 728.23046875 1021.9296875 728.23046875 1031.22851562 772.770507812 c 0,39,40
 1047.15527344 857.287109375 1047.15527344 857.287109375 1077.81542969 923.140625 c 128,-1,41
 1108.47460938 988.994140625 1108.47460938 988.994140625 1155.14355469 1036.86425781 c 0,42,43
 1202.046875 1085.37011719 1202.046875 1085.37011719 1261.921875 1110.16015625 c 128,-1,44
 1321.796875 1134.94921875 1321.796875 1134.94921875 1391.27636719 1134.88476562 c 0,45,46
 1486.76269531 1135.01660156 1486.76269531 1135.01660156 1560.03515625 1087.72265625 c 0,47,48
 1653.85351562 1027.02539062 1653.85351562 1027.02539062 1708.234375 914.393554688 c 128,-1,49
 1762.61425781 801.76171875 1762.61425781 801.76171875 1779.9453125 640.400390625 c 0,50,51
 1783.4609375 606.860351562 1783.4609375 606.860351562 1785.36523438 575.125 c 128,-1,52
 1787.26953125 543.389648438 1787.26953125 543.389648438 1787.56054688 513.411132812 c 0,0,1
1266.85839844 709.197265625 m 0,53,54
 1266.90722656 665.829101562 1266.90722656 665.829101562 1296.32617188 645.10546875 c 128,-1,55
 1325.74511719 624.381835938 1325.74511719 624.381835938 1403.93847656 624.684570312 c 0,56,57
 1466.24707031 625.154296875 1466.24707031 625.154296875 1529.90722656 640.2890625 c 1,58,59
 1522.5234375 685.271484375 1522.5234375 685.271484375 1511.92382812 722.171875 c 128,-1,60
 1501.32421875 759.072265625 1501.32421875 759.072265625 1487.09375 790.154296875 c 0,61,62
 1466.01367188 836.264648438 1466.01367188 836.264648438 1441.13183594 855.732421875 c 128,-1,63
 1416.24902344 875.19921875 1416.24902344 875.19921875 1384.78710938 875.30859375 c 0,64,65
 1347.91796875 875.200195312 1347.91796875 875.200195312 1321.70605469 851.021484375 c 128,-1,66
 1295.49414062 826.842773438 1295.49414062 826.842773438 1277.05761719 768.594726562 c 0,67,68
 1266.97363281 736.73828125 1266.97363281 736.73828125 1266.85839844 709.197265625 c 0,53,54
EndSplineSet
Substitution2: "'init' Initial Forms in Arabic lookup 13 subtable" uni06A1.init
Substitution2: "'medi' Medial Forms in Arabic lookup 11 subtable" uni06A1.medi
Substitution2: "'fina' Terminal Forms in Arabic lookup 9 subtable" uni06A1.fina
EndChar

StartChar: uni06A9
Encoding: 1705 1705 81
GlifName: uni06A_9
Width: 1898
VWidth: 2992
GlyphClass: 2
Flags: W
AnchorPoint: "Anchor-7" 750.268 -196.468 basechar 0
AnchorPoint: "Anchor-10" 693.878 1414.89 basechar 0
LayerCount: 2
Fore
SplineSet
1558.61816406 726.829101562 m 0,0,1
 1699.21289062 574.399414062 1699.21289062 574.399414062 1696.70507812 389.703125 c 0,2,3
 1692.92773438 192.499023438 1692.92773438 192.499023438 1524.5234375 96.2490234375 c 128,-1,4
 1356.11816406 0 1356.11816406 0 1044.10449219 0 c 2,5,-1
 862.553710938 0 l 2,6,7
 471.247070312 0 471.247070312 0 265.16015625 131.106445312 c 128,-1,8
 59.0732421875 262.212890625 59.0732421875 262.212890625 59.16015625 525.854492188 c 0,9,10
 58.990234375 669.54296875 58.990234375 669.54296875 117.168945312 799.165039062 c 2,11,-1
 133.352539062 835.221679688 l 1,12,-1
 169.6015625 819.473632812 l 1,13,-1
 327.373046875 750.928710938 l 1,14,-1
 362.759765625 735.553710938 l 1,15,-1
 348.671875 699.635742188 l 2,16,17
 318.041992188 621.543945312 318.041992188 621.543945312 318.432617188 551.481445312 c 0,18,19
 319.108398438 410.411132812 319.108398438 410.411132812 449.646484375 337.202148438 c 128,-1,20
 580.184570312 263.993164062 580.184570312 263.993164062 862.553710938 263.993164062 c 2,21,-1
 1043.2734375 263.993164062 l 2,22,23
 1150.73046875 263.995117188 1150.73046875 263.995117188 1228.93164062 275.475585938 c 128,-1,24
 1307.1328125 286.955078125 1307.1328125 286.955078125 1351.68457031 308.025390625 c 128,-1,25
 1396.23730469 329.095703125 1396.23730469 329.095703125 1416.79492188 355.513671875 c 128,-1,26
 1437.35253906 381.931640625 1437.35253906 381.931640625 1437.21679688 414.9921875 c 0,27,28
 1437.03808594 495.666992188 1437.03808594 495.666992188 1346.34570312 580.921875 c 0,29,30
 1193.97363281 722.581054688 1193.97363281 722.581054688 1075.85253906 815.489257812 c 0,31,32
 945.91796875 916.493164062 945.91796875 916.493164062 946.411132812 1034.4765625 c 0,33,34
 946.165039062 1110.1640625 946.165039062 1110.1640625 989.364257812 1166.35058594 c 128,-1,35
 1032.56347656 1222.53710938 1032.56347656 1222.53710938 1111.84277344 1254.02148438 c 2,36,-1
 1825.09960938 1537.27636719 l 1,37,-1
 1879.86328125 1559.02441406 l 1,38,-1
 1879.86328125 1500.10058594 l 1,39,-1
 1879.86328125 1319.46289062 l 1,40,-1
 1879.86328125 1292.15429688 l 1,41,-1
 1854.43066406 1282.20996094 l 1,42,-1
 1224.16503906 1035.7578125 l 1,43,44
 1451.48925781 842.251953125 1451.48925781 842.251953125 1558.61816406 726.829101562 c 0,0,1
EndSplineSet
Substitution2: "'init' Initial Forms in Arabic lookup 13 subtable" uniFB90
Substitution2: "'medi' Medial Forms in Arabic lookup 11 subtable" uniFB91
Substitution2: "'fina' Terminal Forms in Arabic lookup 9 subtable" uniFB8F
EndChar

StartChar: afii57514
Encoding: 1722 1722 83
GlifName: afii57514
Width: 1475
VWidth: 2992
GlyphClass: 2
Flags: W
AnchorPoint: "Anchor-10" 727.479 1237.75 basechar 0
AnchorPoint: "Anchor-7" 758.023 -683.042 basechar 0
LayerCount: 2
Fore
SplineSet
716.305664062 -199.6953125 m 4,0,1
 940.938476562 -198.89453125 940.938476562 -198.89453125 1046.21191406 -100.584960938 c 132,-1,2
 1151.48535156 -2.2744140625 1151.48535156 -2.2744140625 1151.03710938 203.381835938 c 4,3,4
 1151.00195312 385.790039062 1151.00195312 385.790039062 1065.05371094 562.611328125 c 6,5,-1
 1045.40527344 603.034179688 l 5,6,-1
 1087.8359375 617.859375 l 5,7,-1
 1260.9609375 678.346679688 l 5,8,-1
 1297.03027344 690.948242188 l 5,9,-1
 1311.27148438 655.495117188 l 6,10,11
 1412.01269531 404.702148438 1412.01269531 404.702148438 1411.67871094 202.060546875 c 4,12,13
 1410.96582031 6.59765625 1410.96582031 6.59765625 1340.18261719 -136.826171875 c 4,14,15
 1179.67773438 -457.03125 1179.67773438 -457.03125 706.993164062 -456.431640625 c 4,16,17
 392.484375 -456.206054688 392.484375 -456.206054688 228.065429688 -305.622070312 c 132,-1,18
 63.6455078125 -155.037109375 63.6455078125 -155.037109375 63.25 136.546875 c 4,19,20
 62.990234375 357.903320312 62.990234375 357.903320312 166.444335938 608.7109375 c 6,21,-1
 181.692382812 645.678710938 l 5,22,-1
 218.665039062 630.439453125 l 5,23,-1
 377.27734375 565.0625 l 5,24,-1
 413.755859375 550.02734375 l 5,25,-1
 399.221679688 513.345703125 l 6,26,27
 318.032226562 308.444335938 318.032226562 308.444335938 318.751953125 135.260742188 c 4,28,29
 319.779296875 -36.6259765625 319.779296875 -36.6259765625 415.334960938 -118.46875 c 132,-1,30
 510.889648438 -200.310546875 510.889648438 -200.310546875 716.305664062 -199.6953125 c 4,0,1
EndSplineSet
Substitution2: "'init' Initial Forms in Arabic lookup 13 subtable" uni06BA.init
Substitution2: "'medi' Medial Forms in Arabic lookup 11 subtable" uni06BA.medi
Substitution2: "'fina' Terminal Forms in Arabic lookup 9 subtable" uniFB9F
EndChar

StartChar: uni06F4
Encoding: 1780 1780 90
GlifName: uni06F_4
Width: 1244
VWidth: 2992
GlyphClass: 2
Flags: W
LayerCount: 2
Fore
SplineSet
1122.14648438 1330.74316406 m 1,0,-1
 1079.15136719 1158.35449219 l 1,1,-1
 1068.05175781 1113.8515625 l 1,2,-1
 1025.47167969 1130.90039062 l 2,3,4
 991 1145 991 1145 954.080078125 1151.98242188 c 0,5,6
 918 1159 918 1159 880.239257812 1158.92675781 c 0,7,8
 849 1159 849 1159 822.407226562 1153.94921875 c 0,9,10
 795 1149 795 1149 772.864257812 1139.39648438 c 0,11,12
 750 1130 750 1130 730.854492188 1115.57617188 c 0,13,14
 644.801586892 1051.55873529 644.801586892 1051.55873529 616.443359375 923.009765625 c 4,15,16
 616 919 616 919 618.74609375 916.463867188 c 0,17,18
 696.538399917 842.538062996 696.538399917 842.538062996 862.94921875 840.590820312 c 0,19,20
 914 840 914 840 980.923828125 852.549804688 c 0,21,22
 1042.71816803 864.327473587 1042.71816803 864.327473587 1100.08886719 887.594726562 c 2,23,-1
 1147.93457031 906.999023438 l 1,24,-1
 1154.76953125 855.823242188 l 1,25,-1
 1178.09667969 681.186523438 l 1,26,-1
 1182.07421875 651.4140625 l 1,27,-1
 1154.59179688 639.291992188 l 2,28,29
 1022 581 1022 581 873.107421875 581.181640625 c 0,30,31
 660 582 660 582 530.743164062 665.624023438 c 1,32,33
 539 599 539 599 543.743164062 532.35546875 c 0,34,35
 549 466 549 466 551.525390625 400.196289062 c 0,36,37
 554.115234375 327.777757652 554.115234375 327.777757652 554.115234375 268.771484375 c 2,38,-1
 554.115234375 51.5537109375 l 1,39,-1
 554.115234375 11.5537109375 l 1,40,-1
 514.115234375 11.5537109375 l 1,41,-1
 334.796875 11.5537109375 l 1,42,-1
 294.797851562 11.5537109375 l 1,43,-1
 294.796875 51.552734375 l 1,44,-1
 294.791992188 271.930664062 l 2,45,46
 294.999890499 923.656731585 294.999890499 923.656731585 109.013671875 1300.19335938 c 2,47,-1
 89.037109375 1340.63671875 l 1,48,-1
 131.579101562 1355.6328125 l 1,49,-1
 296.275390625 1413.68847656 l 1,50,-1
 334.202148438 1427.05761719 l 1,51,-1
 347.369140625 1389.05957031 l 2,52,53
 375 1308 375 1308 388.12109375 1270.54101562 c 0,54,55
 409 1209 409 1209 431.611328125 1142.34570312 c 1,56,57
 480 1256 480 1256 570.435546875 1330.76464844 c 0,58,59
 690 1430 690 1430 855.190429688 1429.43164062 c 0,60,61
 920 1429 920 1429 981.041015625 1416.03808594 c 128,-1,62
 1042.14366747 1402.96927198 1042.14366747 1402.96927198 1099.82714844 1376.86425781 c 2,63,-1
 1130.21875 1363.11035156 l 1,64,-1
 1122.14648438 1330.74316406 l 1,0,-1
EndSplineSet
EndChar

StartChar: uni06F5
Encoding: 1781 1781 91
GlifName: uni06F_5
Width: 1328
VWidth: 2992
GlyphClass: 2
Flags: W
LayerCount: 2
Fore
SplineSet
323.965820312 379.413085938 m 0,0,1
 324 278 324 278 398.056640625 277.844726562 c 0,2,3
 449 278 449 278 493.784179688 345.067382812 c 0,4,5
 539.011245276 412.016646292 539.011245276 412.016646292 570.584960938 560.881835938 c 2,6,-1
 577.314453125 592.610351562 l 1,7,-1
 767.818359375 592.44921875 l 1,8,-1
 773.459960938 559.162109375 l 2,9,10
 799 409 799 409 842.427734375 341.2890625 c 0,11,12
 886 274 886 274 939.26171875 274.079101562 c 0,13,14
 1004 274 1004 274 1003.97851562 379.678710938 c 0,15,16
 1004 595 1004 595 633.073242188 979.283203125 c 5,17,18
 324 561 324 561 323.965820312 379.413085938 c 0,0,1
383.447265625 11.9833984375 m 0,19,20
 69 12 69 12 68.9842727008 369.266601562 c 0,21,22
 69 657 69 657 442.087890625 1166.84082031 c 5,23,-1
 384.52734375 1220.72070312 l 5,24,-1
 559.745117188 1434.83203125 l 5,25,-1
 716.48828125 1286.140625 l 6,26,27
 1264 767 1264 767 1259.44238281 389.233398438 c 0,28,29
 1255 12 1255 12 954.297851562 11.943359375 c 0,30,31
 770 12 770 12 673.119140625 184.276367188 c 1,32,33
 579 12 579 12 383.447265625 11.9833984375 c 0,19,20
EndSplineSet
EndChar

StartChar: uni06F6
Encoding: 1782 1782 92
GlifName: uni06F_6
Width: 1124
VWidth: 2992
GlyphClass: 2
Flags: W
LayerCount: 2
Fore
SplineSet
645.937900969 1150.50982641 m 0,0,1
 598.166340637 1150.50982641 598.166340637 1150.50982641 555.870117188 1146.3359375 c 0,2,3
 354.048760161 1122.60168177 354.048760161 1122.60168177 351.594726562 963.76953125 c 0,4,5
 352 885 352 885 418.25 843.40625 c 0,6,7
 501 792 501 792 647.400390625 790.4140625 c 1,8,9
 884 914 884 914 1011.65820312 946.467773438 c 1,10,-1
 1013.84570312 893.4140625 l 1,11,-1
 1021.52246094 707.28515625 l 1,12,-1
 1022.63476562 680.318359375 l 1,13,14
 588 466 588 466 341.008789062 -38.2138671875 c 1,15,-1
 305.55078125 -26.3388671875 l 1,16,-1
 136.307617188 30.34375 l 1,17,-1
 96.5302734375 43.666015625 l 1,18,19
 196 300 196 300 442.178710938 566.385742188 c 1,20,21
 267 600 267 600 175.958984375 705.513671875 c 0,22,23
 87.7235587736 808.1582813 87.7235587736 808.1582813 87.7235587736 976.287966503 c 0,24,25
 87.7235587736 1025.87184256 87.7235587736 1025.87184256 99.1396484375 1072.4609375 c 0,26,27
 110 1118 110 1118 130.499023438 1160.05761719 c 0,28,29
 209 1320 209 1320 375.186523438 1379.23144531 c 0,30,31
 477.277383002 1416.03076494 477.277383002 1416.03076494 608.981162513 1416.03076494 c 0,32,33
 690.953563542 1416.03076494 690.953563542 1416.03076494 823.682617188 1395.78222656 c 5,34,-1
 817.946289062 1356.45800781 l 5,35,-1
 792.080078125 1179.14941406 l 5,36,-1
 786.579101562 1141.44238281 l 5,37,38
 692.789618387 1150.50982641 692.789618387 1150.50982641 645.937900969 1150.50982641 c 0,0,1
EndSplineSet
EndChar

StartChar: uniFB8F
Encoding: 64399 64399 107
GlifName: uniF_B_8F_
Width: 1954
VWidth: 2992
GlyphClass: 2
Flags: W
AnchorPoint: "Anchor-10" 743.878 1414.89 basechar 0
AnchorPoint: "Anchor-7" 750.268 -196.468 basechar 0
LayerCount: 2
Fore
SplineSet
860.911132812 0 m 2,0,1
 470.409179688 0 470.409179688 0 264.741210938 131.119140625 c 128,-1,2
 59.0732421875 262.239257812 59.0732421875 262.239257812 59.16015625 525.854492188 c 0,3,4
 58.990234375 669.54296875 58.990234375 669.54296875 117.168945312 799.165039062 c 2,5,-1
 133.352539062 835.221679688 l 1,6,-1
 169.6015625 819.473632812 l 1,7,-1
 327.373046875 750.928710938 l 1,8,-1
 362.759765625 735.553710938 l 1,9,-1
 348.671875 699.635742188 l 2,10,11
 318.041992188 621.543945312 318.041992188 621.543945312 318.432617188 551.481445312 c 0,12,13
 319.108398438 410.3671875 319.108398438 410.3671875 449.241210938 337.1796875 c 128,-1,14
 579.374023438 263.993164062 579.374023438 263.993164062 860.911132812 263.993164062 c 2,15,-1
 1042.63085938 263.993164062 l 2,16,17
 1104.60742188 263.994140625 1104.60742188 263.994140625 1157.00878906 267.952148438 c 128,-1,18
 1209.41015625 271.91015625 1209.41015625 271.91015625 1249.44042969 279.115234375 c 128,-1,19
 1289.47070312 286.319335938 1289.47070312 286.319335938 1321.05273438 296.852539062 c 128,-1,20
 1352.63574219 307.384765625 1352.63574219 307.384765625 1374.14160156 320.08203125 c 128,-1,21
 1395.6484375 332.780273438 1395.6484375 332.780273438 1409.75585938 348.20703125 c 128,-1,22
 1423.86425781 363.633789062 1423.86425781 363.633789062 1430.19140625 380.14453125 c 128,-1,23
 1436.51855469 396.654296875 1436.51855469 396.654296875 1436.57421875 415.265625 c 0,24,25
 1436.92480469 495.700195312 1436.92480469 495.700195312 1345.74707031 580.879882812 c 0,26,27
 1188.03515625 727.5234375 1188.03515625 727.5234375 1075.234375 815.470703125 c 0,28,29
 946.045898438 916.461914062 946.045898438 916.461914062 945.768554688 1034.44726562 c 0,30,31
 945.907226562 1110.42480469 945.907226562 1110.42480469 989.03515625 1166.52929688 c 128,-1,32
 1032.16308594 1222.63378906 1032.16308594 1222.63378906 1111.20019531 1254.02148438 c 2,33,-1
 1824.45703125 1537.27636719 l 1,34,-1
 1879.22070312 1559.02441406 l 1,35,-1
 1879.22070312 1500.10058594 l 1,36,-1
 1879.22070312 1319.46289062 l 1,37,-1
 1879.22070312 1292.15429688 l 1,38,-1
 1853.78808594 1282.20996094 l 1,39,-1
 1223.68945312 1035.82324219 l 1,40,41
 1448.0546875 845.609375 1448.0546875 845.609375 1557.95800781 726.848632812 c 0,42,43
 1601.2109375 680.216796875 1601.2109375 680.216796875 1635.58300781 620.465820312 c 128,-1,44
 1669.95507812 560.713867188 1669.95507812 560.713867188 1695.6171875 488.264648438 c 0,45,46
 1737.06542969 371.528320312 1737.06542969 371.528320312 1798.76953125 317.760742188 c 128,-1,47
 1860.47460938 263.993164062 1860.47460938 263.993164062 1945.76367188 263.993164062 c 2,48,-1
 1962.08300781 263.993164062 l 2,49,50
 1974.38378906 263.997070312 1974.38378906 263.997070312 1984.12988281 259.966796875 c 128,-1,51
 1993.875 255.936523438 1993.875 255.936523438 2000.14941406 250.838867188 c 128,-1,52
 2006.42285156 245.740234375 2006.42285156 245.740234375 2010.90527344 235.474609375 c 128,-1,53
 2015.38671875 225.208984375 2015.38671875 225.208984375 2017.62207031 218.51953125 c 128,-1,54
 2019.85742188 211.830078125 2019.85742188 211.830078125 2021.03417969 198.455078125 c 128,-1,55
 2022.20996094 185.081054688 2022.20996094 185.081054688 2022.36425781 179.92578125 c 128,-1,56
 2022.51855469 174.770507812 2022.51855469 174.770507812 2022.34570312 161.413085938 c 128,-1,57
 2022.17382812 148.0546875 2022.17382812 148.0546875 2022.17382812 147.174804688 c 2,58,-1
 2022.17382812 128.265625 l 2,59,60
 2022.16894531 125.686523438 2022.16894531 125.686523438 2022.55273438 109.576171875 c 128,-1,61
 2022.93652344 93.4658203125 2022.93652344 93.4658203125 2022.50097656 85.5849609375 c 128,-1,62
 2022.06542969 77.7041015625 2022.06542969 77.7041015625 2020.69042969 62.1748046875 c 128,-1,63
 2019.31445312 46.6455078125 2019.31445312 46.6455078125 2015.22070312 37.92578125 c 128,-1,64
 2011.12695312 29.2060546875 2011.12695312 29.2060546875 2004.80273438 19.2099609375 c 128,-1,65
 1998.47851562 9.212890625 1998.47851562 9.212890625 1987.53710938 4.6064453125 c 128,-1,66
 1976.59667969 0 1976.59667969 0 1962.09570312 0 c 2,67,-1
 1945.65722656 0 l 2,68,69
 1841.60253906 0 1841.60253906 0 1753.54589844 38.7666015625 c 128,-1,70
 1665.48925781 77.5322265625 1665.48925781 77.5322265625 1597.40722656 153.045898438 c 1,71,72
 1522.39355469 73.8037109375 1522.39355469 73.8037109375 1384.33300781 36.9013671875 c 128,-1,73
 1246.27148438 0 1246.27148438 0 1043.46191406 0 c 2,74,-1
 860.911132812 0 l 2,0,1
EndSplineSet
EndChar

StartChar: uniFB9F
Encoding: 64415 64415 115
GlifName: uniF_B_9F_
Width: 1549
VWidth: 2992
GlyphClass: 2
Flags: W
AnchorPoint: "Anchor-10" 703.458 1406.61 basechar 0
AnchorPoint: "Anchor-7" 595.902 -760.086 basechar 0
LayerCount: 2
Fore
SplineSet
1405.52539062 25.4482421875 m 1,0,1
 1398.78320312 -30.958984375 1398.78320312 -30.958984375 1382.46777344 -85.453125 c 128,-1,2
 1366.15234375 -139.948242188 1366.15234375 -139.948242188 1339.83105469 -194.499023438 c 0,3,4
 1179.90722656 -520.015625 1179.90722656 -520.015625 707.327148438 -519.724609375 c 0,5,6
 391.53125 -519.868164062 391.53125 -519.868164062 226.70703125 -367.251953125 c 128,-1,7
 61.8837890625 -214.635742188 61.8837890625 -214.635742188 61.7529296875 81.0595703125 c 0,8,9
 62.009765625 293.97265625 62.009765625 293.97265625 166.068359375 545.420898438 c 2,10,-1
 181.341796875 582.328125 l 1,11,-1
 218.271484375 567.106445312 l 1,12,-1
 376.791992188 501.768554688 l 1,13,-1
 413.215820312 486.755859375 l 1,14,-1
 398.7578125 450.108398438 l 2,15,16
 318.01171875 245.42578125 318.01171875 245.42578125 318.268554688 82.8779296875 c 0,17,18
 318.145507812 -94.30078125 318.145507812 -94.30078125 413.469726562 -178.704101562 c 128,-1,19
 508.793945312 -263.107421875 508.793945312 -263.107421875 714.401367188 -263.203125 c 0,20,21
 938.413085938 -263.107421875 938.413085938 -263.107421875 1044.12109375 -164.274414062 c 128,-1,22
 1149.83007812 -65.4404296875 1149.83007812 -65.4404296875 1150.5546875 142.051757812 c 0,23,24
 1150.97753906 316.815429688 1150.97753906 316.815429688 1064.49023438 494.2421875 c 2,25,-1
 1044.77441406 534.689453125 l 1,26,-1
 1087.25292969 549.530273438 l 1,27,-1
 1259.89453125 609.84765625 l 1,28,-1
 1298.63378906 623.381835938 l 1,29,-1
 1311.17382812 584.310546875 l 1,30,-1
 1384.34570312 356.33203125 l 2,31,32
 1399.56933594 309.135742188 1399.56933594 309.135742188 1435.78320312 286.567382812 c 128,-1,33
 1471.99707031 263.999023438 1471.99707031 263.999023438 1539.02050781 263.999023438 c 2,34,-1
 1558.1328125 263.999023438 l 2,35,36
 1568.90625 264 1568.90625 264 1577.72851562 261.4921875 c 128,-1,37
 1586.55078125 258.985351562 1586.55078125 258.985351562 1592.61035156 253.201171875 c 128,-1,38
 1598.66992188 247.416992188 1598.66992188 247.416992188 1603.31347656 242.259765625 c 128,-1,39
 1607.95605469 237.102539062 1607.95605469 237.102539062 1610.6328125 227.3671875 c 128,-1,40
 1613.30859375 217.631835938 1613.30859375 217.631835938 1615.0859375 211.953125 c 128,-1,41
 1616.86230469 206.275390625 1616.86230469 206.275390625 1617.46875 194.717773438 c 128,-1,42
 1618.07421875 183.16015625 1618.07421875 183.16015625 1618.29785156 179.08984375 c 128,-1,43
 1618.52050781 175.01953125 1618.52050781 175.01953125 1618.37011719 163.76953125 c 128,-1,44
 1618.21875 152.518554688 1618.21875 152.518554688 1618.21875 151.889648438 c 2,45,-1
 1618.21875 128.26171875 l 2,46,47
 1618.06445312 65.955078125 1618.06445312 65.955078125 1614.77148438 50.865234375 c 0,48,49
 1602.03027344 1.017578125 1602.03027344 1.017578125 1558.13671875 -0 c 2,50,-1
 1543.41894531 0 l 2,51,52
 1463.26074219 0 1463.26074219 0 1405.52539062 25.4482421875 c 1,0,1
EndSplineSet
EndChar

StartChar: uniFBE8
Encoding: 64488 64488 118
GlifName: uniF_B_E_8
Width: 646
VWidth: 2992
GlyphClass: 2
Flags: W
AnchorPoint: "Anchor-10" 311.384 1393 basechar 0
AnchorPoint: "Anchor-7" 303.422 -183.625 basechar 0
LayerCount: 2
Fore
SplineSet
68.673828125 0 m 2,0,-1
 -6.9384765625 0 l 2,1,2
 -61.728515625 0 -61.728515625 0 -93.2529296875 35.75390625 c 128,-1,3
 -124.778320312 71.5078125 -124.778320312 71.5078125 -124.778320312 128.313476562 c 2,4,-1
 -124.778320312 147.119140625 l 2,5,6
 -124.930664062 199.818359375 -124.930664062 199.818359375 -92.4189453125 231.90625 c 128,-1,7
 -59.908203125 263.993164062 -59.908203125 263.993164062 -6.9384765625 263.993164062 c 2,8,-1
 68.6826171875 263.993164062 l 2,9,10
 217.819335938 264 217.819335938 264 265.602539062 290.827148438 c 0,11,12
 331.032226562 329.478515625 331.032226562 329.478515625 331.221679688 465.024414062 c 0,13,14
 331.008789062 579.005859375 331.008789062 579.005859375 295.549804688 719.869140625 c 2,15,-1
 285.784179688 758.663085938 l 1,16,-1
 324.579101562 768.424804688 l 1,17,-1
 487.6640625 809.458984375 l 1,18,-1
 524.342773438 818.6875 l 1,19,-1
 535.609375 782.583007812 l 2,20,21
 585.990234375 621.125976562 585.990234375 621.125976562 586.223632812 468.340820312 c 0,22,23
 585.1484375 203.12890625 585.1484375 203.12890625 429.655273438 85.318359375 c 0,24,25
 400.233398438 62.9404296875 400.233398438 62.9404296875 362.587890625 46.61328125 c 128,-1,26
 324.943359375 30.28515625 324.943359375 30.28515625 279.422851562 20.0390625 c 128,-1,27
 233.90234375 9.7919921875 233.90234375 9.7919921875 181.791015625 4.8955078125 c 128,-1,28
 129.6796875 -0 129.6796875 -0 68.673828125 0 c 2,0,-1
EndSplineSet
EndChar

StartChar: uniFBE9
Encoding: 64489 64489 119
GlifName: uniF_B_E_9
Width: 717
VWidth: 2992
GlyphClass: 2
Flags: W
AnchorPoint: "Anchor-10" 315.665 1337.09 basechar 0
AnchorPoint: "Anchor-7" 350.537 -137.742 basechar 0
LayerCount: 2
Fore
SplineSet
784.731445312 128.340820312 m 2,0,1
 784.731445312 124.763671875 784.731445312 124.763671875 785.006835938 112.06640625 c 128,-1,2
 785.282226562 99.3701171875 785.282226562 99.3701171875 785.278320312 91.83984375 c 128,-1,3
 785.275390625 84.3095703125 785.275390625 84.3095703125 784.258789062 71.126953125 c 128,-1,4
 783.2421875 57.9453125 783.2421875 57.9453125 781.131835938 49.521484375 c 128,-1,5
 779.020507812 41.09765625 779.020507812 41.09765625 774.577148438 30.748046875 c 128,-1,6
 770.133789062 20.3984375 770.133789062 20.3984375 763.779296875 14.3984375 c 128,-1,7
 757.42578125 8.3984375 757.42578125 8.3984375 747.419921875 4.19921875 c 128,-1,8
 737.4140625 0 737.4140625 0 724.650390625 0 c 2,9,-1
 715.006835938 0 l 2,10,11
 530.043945312 0 530.043945312 0 438.329101562 114.435546875 c 1,12,13
 322.857421875 0 322.857421875 0 95.759765625 0 c 2,14,-1
 -8.1171875 0 l 2,15,16
 -62.5302734375 0 -62.5302734375 0 -93.654296875 35.8515625 c 128,-1,17
 -124.778320312 71.703125 -124.778320312 71.703125 -124.778320312 128.313476562 c 2,18,-1
 -124.778320312 147.12890625 l 2,19,20
 -124.9296875 199.622070312 -124.9296875 199.622070312 -92.8095703125 231.807617188 c 128,-1,21
 -60.689453125 263.993164062 -60.689453125 263.993164062 -8.1171875 263.993164062 c 2,22,-1
 91.01171875 263.993164062 l 2,23,24
 288.745117188 263.999023438 288.745117188 263.999023438 307.221679688 363.477539062 c 0,25,26
 313.022460938 394.793945312 313.022460938 394.793945312 313.291992188 439.267578125 c 0,27,28
 313.0078125 487.62890625 313.0078125 487.62890625 310.094726562 531.000976562 c 2,29,-1
 304.604492188 612.756835938 l 1,30,-1
 302.0546875 650.7265625 l 1,31,-1
 339.850585938 655.1640625 l 1,32,-1
 504.657226562 674.51171875 l 1,33,-1
 546.315429688 679.40234375 l 1,34,-1
 549.224609375 637.55859375 l 1,35,-1
 565.294921875 406.408203125 l 2,36,37
 570.657226562 330.022460938 570.657226562 330.022460938 605.799804688 297.0078125 c 128,-1,38
 640.942382812 263.993164062 640.942382812 263.993164062 716.57421875 263.993164062 c 2,39,-1
 724.637695312 263.993164062 l 2,40,41
 739.041015625 263.998046875 739.041015625 263.998046875 749.940429688 259.526367188 c 128,-1,42
 760.83984375 255.055664062 760.83984375 255.055664062 767.159179688 245.01953125 c 128,-1,43
 773.479492188 234.984375 773.479492188 234.984375 777.600585938 226.741210938 c 128,-1,44
 781.72265625 218.499023438 781.72265625 218.499023438 783.127929688 202.788085938 c 128,-1,45
 784.533203125 187.078125 784.533203125 187.078125 785.008789062 179.974609375 c 128,-1,46
 785.485351562 172.87109375 785.485351562 172.87109375 785.108398438 156.396484375 c 128,-1,47
 784.731445312 139.920898438 784.731445312 139.920898438 784.731445312 138.322265625 c 2,48,-1
 784.731445312 128.340820312 l 2,0,1
EndSplineSet
EndChar

StartChar: uniFE73
Encoding: 65139 65139 127
GlifName: uniF_E_73
Width: 742
VWidth: 2992
GlyphClass: 2
Flags: W
AnchorPoint: "Anchor-10" 274.943 1758.47 basechar 0
AnchorPoint: "Anchor-7" 274.943 -132.304 basechar 0
LayerCount: 2
Fore
SplineSet
410.336914062 496.018554688 m 2,0,1
 410.336914062 456.864257812 410.336914062 456.864257812 427.306640625 420.217773438 c 0,2,3
 444.9921875 382.02734375 444.9921875 382.02734375 481.14453125 345.875976562 c 0,4,5
 496.466796875 330.55078125 496.466796875 330.55078125 516.348632812 318.969726562 c 0,6,7
 536.827148438 307.038085938 536.827148438 307.038085938 562.208007812 299.004882812 c 0,8,9
 566.487304688 297.650390625 566.487304688 297.650390625 570.907226562 296.405273438 c 128,-1,10
 575.326171875 295.159179688 575.326171875 295.159179688 579.9296875 294.013671875 c 128,-1,11
 584.533203125 292.8671875 584.533203125 292.8671875 589.271484375 291.833984375 c 0,12,13
 603.638671875 288.704101562 603.638671875 288.704101562 619.268554688 286.606445312 c 0,14,15
 651.055664062 282.342773438 651.055664062 282.342773438 688.00390625 282.342773438 c 2,16,-1
 758.674804688 282.342773438 l 1,17,-1
 798.674804688 282.342773438 l 1,18,-1
 798.674804688 242.342773438 l 1,19,-1
 798.674804688 51.5537109375 l 1,20,-1
 798.674804688 11.5537109375 l 1,21,-1
 758.674804688 11.5537109375 l 1,22,-1
 608.006835938 11.5537109375 l 2,23,24
 400.821289062 11.5537109375 400.821289062 11.5537109375 266.546875 145.827148438 c 0,25,26
 139.544921875 272.830078125 139.544921875 272.830078125 139.544921875 478.563476562 c 2,27,-1
 139.544921875 502.69140625 l 1,28,-1
 139.544921875 542.69140625 l 1,29,-1
 179.544921875 542.69140625 l 1,30,-1
 370.336914062 542.69140625 l 1,31,-1
 410.336914062 542.69140625 l 1,32,-1
 410.336914062 502.69140625 l 1,33,-1
 410.336914062 496.018554688 l 2,0,1
EndSplineSet
EndChar

StartChar: uniFE8E
Encoding: 65166 65166 153
GlifName: uniF_E_8E_
Width: 571
VWidth: 2992
GlyphClass: 2
Flags: W
AnchorPoint: "Anchor-10" 256.697 1583.11 basechar 0
AnchorPoint: "Anchor-7" 316.078 -199.903 basechar 0
LayerCount: 2
Fore
SplineSet
638.618164062 128.623046875 m 1,0,1
 640 64 640 64 633.637695312 43.2001953125 c 0,2,3
 619 0 619 0 578.537109375 -0 c 2,4,-1
 557.658203125 0 l 2,5,6
 348 0 348 0 239.288085938 122.2578125 c 0,7,8
 130.283203125 244.681932657 130.283203125 244.681932657 130.283203125 474.395507812 c 2,9,-1
 130.283203125 1418.171875 l 5,10,-1
 130.283203125 1458.171875 l 5,11,-1
 170.283203125 1458.171875 l 5,12,-1
 343.598632812 1458.171875 l 5,13,-1
 383.598632812 1458.171875 l 5,14,-1
 383.598632812 1418.171875 l 5,15,-1
 383.598632812 476.482421875 l 2,16,17
 384 363 384 363 426.172851562 313.256835938 c 0,18,19
 469.005943616 263.993164062 469.005943616 263.993164062 560.712890625 263.993164062 c 2,20,-1
 578.524414062 263.993164062 l 2,21,22
 591 264 591 264 600.571289062 259.966796875 c 128,-1,23
 610 256 610 256 616.590820312 250.838867188 c 0,24,25
 623 246 623 246 627.34765625 235.474609375 c 0,26,27
 632 225 632 225 634.065429688 218.521484375 c 128,-1,28
 636 212 636 212 637.477539062 198.456054688 c 128,-1,29
 639 185 639 185 638.807617188 179.927734375 c 0,30,31
 639 175 639 175 638.790039062 161.413085938 c 0,32,33
 639 148 639 148 638.618164062 147.174804688 c 2,34,-1
 638.618164062 128.623046875 l 1,0,1
EndSplineSet
EndChar

StartChar: uniFEA2
Encoding: 65186 65186 173
GlifName: uniF_E_A_2
Width: 1366
VWidth: 2992
GlyphClass: 2
Flags: W
AnchorPoint: "Anchor-10" 633.478 1406.07 basechar 0
AnchorPoint: "Anchor-7" 536.833 -882.619 basechar 0
LayerCount: 2
Fore
SplineSet
1297.796875 697.709960938 m 1,0,-1
 1284.80273438 523.87890625 l 1,1,-1
 1282.24023438 489.594726562 l 1,2,-1
 1247.95996094 486.9765625 l 2,3,4
 1220.72558594 484.896484375 1220.72558594 484.896484375 1193.72460938 482.418945312 c 128,-1,5
 1166.72265625 479.942382812 1166.72265625 479.942382812 1140.92480469 477.170898438 c 128,-1,6
 1115.12597656 474.3984375 1115.12597656 474.3984375 1090.54980469 471.344726562 c 1,7,8
 1095.00097656 398.404296875 1095.00097656 398.404296875 1121.16015625 352.950195312 c 128,-1,9
 1147.31835938 307.497070312 1147.31835938 307.497070312 1198.62304688 285.576171875 c 128,-1,10
 1249.92773438 263.65625 1249.92773438 263.65625 1330.41894531 264.060546875 c 2,11,-1
 1374.06933594 264.280273438 l 2,12,13
 1384.86132812 264.130859375 1384.86132812 264.130859375 1393.68652344 261.506835938 c 128,-1,14
 1402.51171875 258.8828125 1402.51171875 258.8828125 1408.56738281 253.150390625 c 128,-1,15
 1414.62207031 247.416992188 1414.62207031 247.416992188 1419.25097656 242.126953125 c 128,-1,16
 1423.87890625 236.8359375 1423.87890625 236.8359375 1426.53808594 227.322265625 c 128,-1,17
 1429.19726562 217.807617188 1429.19726562 217.807617188 1430.953125 211.920898438 c 128,-1,18
 1432.70996094 206.034179688 1432.70996094 206.034179688 1433.296875 194.80859375 c 128,-1,19
 1433.88476562 183.583984375 1433.88476562 183.583984375 1434.09179688 179.170898438 c 128,-1,20
 1434.29882812 174.7578125 1434.29882812 174.7578125 1434.13867188 163.892578125 c 128,-1,21
 1433.97851562 153.02734375 1433.97851562 153.02734375 1433.97851562 151.889648438 c 2,22,-1
 1433.97851562 128.321289062 l 2,23,24
 1433.97949219 126.015625 1433.97949219 126.015625 1434.38574219 109.641601562 c 128,-1,25
 1434.79296875 93.2666015625 1434.79296875 93.2666015625 1434.35351562 85.58984375 c 128,-1,26
 1433.91503906 77.9140625 1433.91503906 77.9140625 1432.546875 62.216796875 c 128,-1,27
 1431.1796875 46.5185546875 1431.1796875 46.5185546875 1427.07714844 37.9130859375 c 128,-1,28
 1422.97460938 29.306640625 1422.97460938 29.306640625 1416.64648438 19.2373046875 c 128,-1,29
 1410.31738281 9.16796875 1410.31738281 9.16796875 1399.36425781 4.583984375 c 128,-1,30
 1388.41210938 -0 1388.41210938 -0 1373.8984375 0 c 2,31,-1
 1331.49511719 0 l 2,32,33
 1185.17382812 0 1185.17382812 0 1081.61914062 48.287109375 c 128,-1,34
 978.064453125 96.57421875 978.064453125 96.57421875 921.212890625 191.4609375 c 128,-1,35
 864.360351562 286.34765625 864.360351562 286.34765625 857.247070312 424.109375 c 1,36,37
 589.927734375 348.783203125 589.927734375 348.783203125 462.533203125 221.091796875 c 128,-1,38
 335.139648438 93.400390625 335.139648438 93.400390625 335.249023438 -89.3046875 c 0,39,40
 335.137695312 -254.271484375 335.137695312 -254.271484375 452.982421875 -336.079101562 c 128,-1,41
 570.827148438 -417.887695312 570.827148438 -417.887695312 826.3984375 -417.783203125 c 0,42,43
 1033.953125 -417.991210938 1033.953125 -417.991210938 1226.06542969 -326.192382812 c 2,44,-1
 1272.37695312 -304.0625 l 1,45,-1
 1282.52246094 -354.376953125 l 1,46,-1
 1318.58203125 -533.204101562 l 1,47,-1
 1324.70214844 -563.553710938 l 1,48,-1
 1296.85449219 -577.086914062 l 2,49,50
 1089.22265625 -677.991210938 1089.22265625 -677.991210938 811.534179688 -678.249023438 c 0,51,52
 408.517578125 -677.98828125 408.517578125 -677.98828125 224.650390625 -479.484375 c 0,53,54
 178.223632812 -429.34765625 178.223632812 -429.34765625 147.086914062 -370.379882812 c 128,-1,55
 115.94921875 -311.412109375 115.94921875 -311.412109375 100.46875 -244.895507812 c 128,-1,56
 84.9873046875 -178.37890625 84.9873046875 -178.37890625 84.98046875 -104.543945312 c 0,57,58
 84.990234375 177.5703125 84.990234375 177.5703125 246.215820312 367.140625 c 128,-1,59
 407.442382812 556.709960938 407.442382812 556.709960938 720.944335938 648.379882812 c 1,60,61
 534.04296875 723.96484375 534.04296875 723.96484375 469.58203125 723.6875 c 0,62,63
 376.053710938 723.947265625 376.053710938 723.947265625 315.234375 645.607421875 c 2,64,-1
 287.206054688 609.504882812 l 1,65,-1
 267.182617188 583.711914062 l 1,66,-1
 237.903320312 598.166992188 l 1,67,-1
 84.04296875 674.126953125 l 1,68,-1
 44.9541015625 693.424804688 l 1,69,-1
 67.5341796875 730.713867188 l 1,70,-1
 84.244140625 758.306640625 l 2,71,72
 222.5 986.015625 222.5 986.015625 471.779296875 985.841796875 c 0,73,74
 506.51171875 985.885742188 506.51171875 985.885742188 544.037109375 980.161132812 c 128,-1,75
 581.563476562 974.435546875 581.563476562 974.435546875 621.6796875 963.017578125 c 128,-1,76
 661.796875 951.598632812 661.796875 951.598632812 704.245117188 934.920898438 c 128,-1,77
 746.693359375 918.243164062 746.693359375 918.243164062 792.490234375 895.999023438 c 0,78,79
 1097.03222656 747.607421875 1097.03222656 747.607421875 1259.6171875 740.655273438 c 2,80,-1
 1300.875 738.890625 l 1,81,-1
 1297.796875 697.709960938 l 1,0,-1
EndSplineSet
EndChar

StartChar: uniFEA3
Encoding: 65187 65187 174
GlifName: uniF_E_A_3
Width: 1337
VWidth: 2992
GlyphClass: 2
Flags: W
AnchorPoint: "Anchor-10" 581.825 1412.07 basechar 0
AnchorPoint: "Anchor-7" 513.524 -194.745 basechar 0
LayerCount: 2
Fore
SplineSet
-6.9384765625 0 m 2,0,1
 -61.728515625 0 -61.728515625 0 -93.2529296875 35.75390625 c 128,-1,2
 -124.778320312 71.5078125 -124.778320312 71.5078125 -124.778320312 128.313476562 c 2,3,-1
 -124.778320312 147.12890625 l 2,4,5
 -124.930664062 199.827148438 -124.930664062 199.827148438 -92.4189453125 231.913085938 c 128,-1,6
 -59.9072265625 263.999023438 -59.9072265625 263.999023438 -6.9384765625 263.999023438 c 2,7,-1
 52.54296875 263.999023438 l 2,8,9
 371.254882812 264 371.254882812 264 844.100585938 507.005859375 c 1,10,11
 792.708007812 527.21484375 792.708007812 527.21484375 711.897460938 559.967773438 c 0,12,13
 523.3359375 635.961914062 523.3359375 635.961914062 460.35546875 635.657226562 c 0,14,15
 366.08203125 635.942382812 366.08203125 635.942382812 305.243164062 557.578125 c 2,16,-1
 277.21484375 521.475585938 l 1,17,-1
 257.19140625 495.682617188 l 1,18,-1
 227.912109375 510.137695312 l 1,19,-1
 74.0517578125 586.09765625 l 1,20,-1
 34.962890625 605.395507812 l 1,21,-1
 57.54296875 642.684570312 l 1,22,-1
 74.234375 670.247070312 l 2,23,24
 141.737304688 781.795898438 141.737304688 781.795898438 239.647460938 839.583007812 c 128,-1,25
 337.55859375 897.370117188 337.55859375 897.370117188 461.231445312 897.8125 c 0,26,27
 597.174804688 898.013671875 597.174804688 898.013671875 782.5 807.96875 c 0,28,29
 1087.03417969 659.606445312 1087.03417969 659.606445312 1249.6328125 652.625 c 2,30,-1
 1288.32128906 650.963867188 l 1,31,-1
 1287.91503906 612.2421875 l 1,32,-1
 1286.08984375 438.573242188 l 1,33,-1
 1285.70800781 402.282226562 l 1,34,-1
 1249.55175781 399.143554688 l 2,35,36
 1142.49609375 389.84765625 1142.49609375 389.84765625 840.33203125 230.764648438 c 0,37,38
 402.904296875 0 402.904296875 0 40.767578125 0 c 2,39,-1
 -6.9384765625 0 l 2,0,1
EndSplineSet
EndChar

StartChar: uniFEA4
Encoding: 65188 65188 175
GlifName: uniF_E_A_4
Width: 1351
VWidth: 2992
GlyphClass: 2
Flags: W
AnchorPoint: "Anchor-7" 513.524 -194.745 basechar 0
AnchorPoint: "Anchor-10" 581.825 1412.07 basechar 0
LayerCount: 2
Fore
SplineSet
843.986328125 506.947265625 m 1,0,1
 818.248046875 517.080078125 818.248046875 517.080078125 785.276367188 530.315429688 c 128,-1,2
 752.3046875 543.55078125 752.3046875 543.55078125 711.881835938 559.974609375 c 0,3,4
 523.3359375 635.961914062 523.3359375 635.961914062 460.35546875 635.657226562 c 0,5,6
 366.08203125 635.942382812 366.08203125 635.942382812 305.243164062 557.578125 c 2,7,-1
 277.21484375 521.475585938 l 1,8,-1
 257.19140625 495.682617188 l 1,9,-1
 227.912109375 510.137695312 l 1,10,-1
 74.0517578125 586.09765625 l 1,11,-1
 34.962890625 605.395507812 l 1,12,-1
 57.54296875 642.684570312 l 1,13,-1
 74.234375 670.247070312 l 2,14,15
 141.737304688 781.795898438 141.737304688 781.795898438 239.647460938 839.583007812 c 128,-1,16
 337.55859375 897.370117188 337.55859375 897.370117188 461.231445312 897.8125 c 0,17,18
 597.174804688 898.013671875 597.174804688 898.013671875 782.5 807.96875 c 0,19,20
 1087.03417969 659.606445312 1087.03417969 659.606445312 1249.6328125 652.625 c 2,21,-1
 1288.32128906 650.963867188 l 1,22,-1
 1287.91503906 612.2421875 l 1,23,-1
 1286.08984375 438.573242188 l 1,24,-1
 1285.703125 401.778320312 l 1,25,-1
 1249.00390625 399.099609375 l 2,26,27
 1183.25585938 394.298828125 1183.25585938 394.298828125 1082.67871094 346.819335938 c 1,28,29
 1094.00390625 309.853515625 1094.00390625 309.853515625 1149.90429688 287.06640625 c 128,-1,30
 1205.8046875 264.279296875 1205.8046875 264.279296875 1316.61132812 264.279296875 c 2,31,-1
 1360.66894531 264.279296875 l 2,32,33
 1371.4296875 264.133789062 1371.4296875 264.133789062 1380.23339844 261.522460938 c 128,-1,34
 1389.03710938 258.911132812 1389.03710938 258.911132812 1395.08105469 253.151367188 c 128,-1,35
 1401.12402344 247.391601562 1401.12402344 247.391601562 1405.74707031 242.149414062 c 128,-1,36
 1410.37011719 236.908203125 1410.37011719 236.908203125 1413.03027344 227.327148438 c 128,-1,37
 1415.68945312 217.745117188 1415.68945312 217.745117188 1417.44921875 211.944335938 c 128,-1,38
 1419.20800781 206.143554688 1419.20800781 206.143554688 1419.80078125 194.811523438 c 128,-1,39
 1420.39453125 183.478515625 1420.39453125 183.478515625 1420.60644531 179.189453125 c 128,-1,40
 1420.81933594 174.899414062 1420.81933594 174.899414062 1420.66210938 163.887695312 c 128,-1,41
 1420.50585938 152.875976562 1420.50585938 152.875976562 1420.50585938 151.889648438 c 2,42,-1
 1420.50585938 128.439453125 l 2,43,44
 1420.51464844 126.919921875 1420.51464844 126.919921875 1420.98339844 109.802734375 c 128,-1,45
 1421.45214844 92.685546875 1421.45214844 92.685546875 1421.00097656 85.595703125 c 128,-1,46
 1420.54980469 78.5068359375 1420.54980469 78.5068359375 1419.20605469 62.3330078125 c 128,-1,47
 1417.86328125 46.1591796875 1417.86328125 46.1591796875 1413.73632812 37.876953125 c 128,-1,48
 1409.61035156 29.59375 1409.61035156 29.59375 1403.2734375 19.318359375 c 128,-1,49
 1396.9375 9.04296875 1396.9375 9.04296875 1385.95507812 4.521484375 c 128,-1,50
 1374.97265625 0 1374.97265625 0 1360.42773438 0 c 2,51,-1
 1301.09667969 0 l 2,52,53
 1185.91894531 0 1185.91894531 0 1099.1796875 26.66796875 c 128,-1,54
 1012.43945312 53.3369140625 1012.43945312 53.3369140625 954.6640625 109.26953125 c 128,-1,55
 896.887695312 165.202148438 896.887695312 165.202148438 874.66015625 248.680664062 c 1,56,57
 868.5859375 245.544921875 868.5859375 245.544921875 862.953125 242.616210938 c 128,-1,58
 857.3203125 239.686523438 857.3203125 239.686523438 851.830078125 236.810546875 c 128,-1,59
 846.33984375 233.93359375 846.33984375 233.93359375 840.346679688 230.772460938 c 0,60,61
 402.904296875 0 402.904296875 0 40.767578125 0 c 2,62,-1
 -6.9384765625 0 l 2,63,64
 -61.728515625 0 -61.728515625 0 -93.2529296875 35.75390625 c 128,-1,65
 -124.778320312 71.5078125 -124.778320312 71.5078125 -124.778320312 128.313476562 c 2,66,-1
 -124.778320312 147.12890625 l 2,67,68
 -124.930664062 199.827148438 -124.930664062 199.827148438 -92.4189453125 231.913085938 c 128,-1,69
 -59.9072265625 263.999023438 -59.9072265625 263.999023438 -6.9384765625 263.999023438 c 2,70,-1
 52.54296875 263.999023438 l 2,71,72
 370.8828125 264 370.8828125 264 843.986328125 506.947265625 c 1,0,1
EndSplineSet
EndChar

StartChar: uniFEAA
Encoding: 65194 65194 181
GlifName: uniF_E_A_A_
Width: 1101
VWidth: 2992
GlyphClass: 2
Flags: W
AnchorPoint: "Anchor-7" 437.24 -199.316 basechar 0
AnchorPoint: "Anchor-10" 578.848 1421.53 basechar 0
LayerCount: 2
Fore
SplineSet
387.543945312 0.8193359375 m 0,0,1
 250.248046875 1.0048828125 250.248046875 1.0048828125 94.7099609375 30.2294921875 c 2,2,-1
 62.0966796875 36.357421875 l 1,3,-1
 62.0966796875 69.5419921875 l 1,4,-1
 62.0966796875 254.252929688 l 1,5,-1
 62.0966796875 303.481445312 l 1,6,-1
 110.283203125 293.40625 l 2,7,8
 246.127929688 265.001953125 246.127929688 265.001953125 392.990234375 265.068359375 c 0,9,10
 445.240234375 265.056640625 445.240234375 265.056640625 487.680664062 268.93359375 c 128,-1,11
 530.120117188 272.809570312 530.120117188 272.809570312 559.736328125 280.026367188 c 128,-1,12
 589.352539062 287.244140625 589.352539062 287.244140625 610.797851562 296.666992188 c 128,-1,13
 632.243164062 306.090820312 632.243164062 306.090820312 644.536132812 318.063476562 c 128,-1,14
 656.828125 330.03515625 656.828125 330.03515625 662.454101562 342.473632812 c 128,-1,15
 668.080078125 354.912109375 668.080078125 354.912109375 668.088867188 369.047851562 c 0,16,17
 668.056640625 391.543945312 668.056640625 391.543945312 645.204101562 462.002929688 c 128,-1,18
 622.350585938 532.4609375 622.350585938 532.4609375 579.986328125 632.857421875 c 2,19,-1
 453.146484375 933.44921875 l 1,20,-1
 438.076171875 969.163085938 l 1,21,-1
 473.299804688 985.346679688 l 1,22,-1
 637.931640625 1060.98828125 l 1,23,-1
 676.360351562 1078.64453125 l 1,24,-1
 691.8515625 1039.29394531 l 1,25,-1
 889.774414062 536.532226562 l 2,26,27
 944.916015625 396.67578125 944.916015625 396.67578125 997.74609375 330.334960938 c 128,-1,28
 1050.57617188 263.993164062 1050.57617188 263.993164062 1088.87988281 263.993164062 c 2,29,-1
 1108.50488281 263.993164062 l 2,30,31
 1120.80664062 263.997070312 1120.80664062 263.997070312 1130.55175781 259.966796875 c 128,-1,32
 1140.296875 255.935546875 1140.296875 255.935546875 1146.57128906 250.838867188 c 128,-1,33
 1152.84570312 245.7421875 1152.84570312 245.7421875 1157.32714844 235.474609375 c 128,-1,34
 1161.80957031 225.208007812 1161.80957031 225.208007812 1164.04492188 218.520507812 c 128,-1,35
 1166.28027344 211.833984375 1166.28027344 211.833984375 1167.45703125 198.456054688 c 128,-1,36
 1168.6328125 185.078125 1168.6328125 185.078125 1168.78710938 179.926757812 c 128,-1,37
 1168.94238281 174.775390625 1168.94238281 174.775390625 1168.76953125 161.413085938 c 128,-1,38
 1168.59765625 148.05078125 1168.59765625 148.05078125 1168.59765625 147.174804688 c 2,39,-1
 1168.59765625 128.559570312 l 2,40,41
 1169.03515625 92.3701171875 1169.03515625 92.3701171875 1165.33007812 71.5791015625 c 0,42,43
 1161.57714844 46.06640625 1161.57714844 46.06640625 1154.94726562 31.8896484375 c 2,44,-1
 1154.50097656 30.935546875 l 1,45,-1
 1154.00488281 30.005859375 l 2,46,47
 1137.99511719 0 1137.99511719 0 1108.51757812 0 c 2,48,-1
 1088.53222656 0 l 2,49,50
 1007.38183594 0 1007.38183594 0 939.818359375 34.8076171875 c 128,-1,51
 872.255859375 69.615234375 872.255859375 69.615234375 821.734375 136.719726562 c 1,52,53
 673.84375 1.28515625 673.84375 1.28515625 387.543945312 0.8193359375 c 0,0,1
EndSplineSet
EndChar

StartChar: uniFEAE
Encoding: 65198 65198 185
GlifName: uniF_E_A_E_
Width: 910
VWidth: 2184
GlyphClass: 2
Flags: W
AnchorPoint: "Anchor-7" 364.969 -729.998 basechar 0
AnchorPoint: "Anchor-10" 459.256 1410.2 basechar 0
LayerCount: 2
Fore
SplineSet
682.512695312 582.87109375 m 1,0,-1
 739.319335938 389.817382812 l 2,1,2
 758.821289062 322.931640625 758.821289062 322.931640625 795.118164062 293.465820312 c 128,-1,3
 831.416015625 263.999023438 831.416015625 263.999023438 891.31640625 263.999023438 c 2,4,-1
 918.572265625 263.999023438 l 2,5,6
 929.327148438 264 929.327148438 264 938.137695312 261.509765625 c 128,-1,7
 946.948242188 259.01953125 946.948242188 259.01953125 953.001953125 253.2265625 c 128,-1,8
 959.055664062 247.432617188 959.055664062 247.432617188 963.697265625 242.33984375 c 128,-1,9
 968.338867188 237.248046875 968.338867188 237.248046875 971.016601562 227.479492188 c 128,-1,10
 973.6953125 217.7109375 973.6953125 217.7109375 975.4765625 212.139648438 c 128,-1,11
 977.256835938 206.569335938 977.256835938 206.569335938 977.868164062 194.94921875 c 128,-1,12
 978.479492188 183.330078125 978.479492188 183.330078125 978.70703125 179.404296875 c 128,-1,13
 978.934570312 175.477539062 978.934570312 175.477539062 978.786132812 164.130859375 c 128,-1,14
 978.638671875 152.784179688 978.638671875 152.784179688 978.638671875 152.322265625 c 2,15,-1
 978.638671875 128.291015625 l 2,16,17
 978.645507812 126.540039062 978.645507812 126.540039062 979.096679688 109.66796875 c 128,-1,18
 979.546875 92.7958984375 979.546875 92.7958984375 979.099609375 85.5341796875 c 128,-1,19
 978.651367188 78.271484375 978.651367188 78.271484375 977.301757812 62.2568359375 c 128,-1,20
 975.951171875 46.2412109375 975.951171875 46.2412109375 971.83203125 37.865234375 c 128,-1,21
 967.713867188 29.48828125 967.713867188 29.48828125 961.380859375 19.283203125 c 128,-1,22
 955.047851562 9.0771484375 955.047851562 9.0771484375 944.077148438 4.5380859375 c 128,-1,23
 933.10546875 -0 933.10546875 -0 918.57421875 0 c 2,24,-1
 901.80078125 0 l 2,25,26
 806.201171875 0 806.201171875 0 749.31640625 23.755859375 c 1,27,28
 701.537109375 -200.1875 701.537109375 -200.1875 520.09375 -328.654296875 c 128,-1,29
 338.650390625 -457.122070312 338.650390625 -457.122070312 33.7158203125 -489.924804688 c 2,30,-1
 -0.919921875 -493.650390625 l 1,31,-1
 -9.3681640625 -459.85546875 l 1,32,-1
 -51.9365234375 -289.580078125 l 1,33,-1
 -63.1572265625 -244.6953125 l 1,34,-1
 -17.1220703125 -240.078125 l 2,35,36
 256.24609375 -212.662109375 256.24609375 -212.662109375 384.919921875 -105.112304688 c 128,-1,37
 513.59375 2.4384765625 513.59375 2.4384765625 513.25 193.276367188 c 0,38,39
 513.014648438 334.081054688 513.014648438 334.081054688 437.763671875 495.061523438 c 2,40,-1
 419.032226562 535.1328125 l 1,41,-1
 460.780273438 549.751953125 l 1,42,-1
 630.919921875 609.331054688 l 1,43,-1
 670.634765625 623.23828125 l 1,44,-1
 682.512695312 582.87109375 l 1,0,-1
EndSplineSet
PairPos2: "'kern' Horizontal Kerning lookup 15-2" uniFBFE dx=60 dy=0 dh=60 dv=0 dx=0 dy=0 dh=0 dv=0
PairPos2: "'kern' Horizontal Kerning lookup 15-1" uniFEE7 dx=-178 dy=0 dh=-178 dv=0 dx=0 dy=0 dh=0 dv=0
PairPos2: "'kern' Horizontal Kerning lookup 15-2" uniFB90 dx=-226 dy=0 dh=-226 dv=0 dx=0 dy=0 dh=0 dv=0
PairPos2: "'kern' Horizontal Kerning lookup 15-2" uniFB8E dx=-226 dy=0 dh=-226 dv=0 dx=0 dy=0 dh=0 dv=0
PairPos2: "'kern' Horizontal Kerning lookup 15-2" uni06A9 dx=-226 dy=0 dh=-226 dv=0 dx=0 dy=0 dh=0 dv=0
PairPos2: "'kern' Horizontal Kerning lookup 15-2" uni064A dx=-60 dy=0 dh=-60 dv=0 dx=0 dy=0 dh=0 dv=0
PairPos2: "'kern' Horizontal Kerning lookup 15-2" afii57414 dx=-60 dy=0 dh=-60 dv=0 dx=0 dy=0 dh=0 dv=0
PairPos2: "'kern' Horizontal Kerning lookup 15-2" uni0649 dx=-60 dy=0 dh=-60 dv=0 dx=0 dy=0 dh=0 dv=0
PairPos2: "'kern' Horizontal Kerning lookup 15-2" uniFEEB dx=-178 dy=0 dh=-178 dv=0 dx=0 dy=0 dh=0 dv=0
PairPos2: "'kern' Horizontal Kerning lookup 15-2" uni0647 dx=-178 dy=0 dh=-178 dv=0 dx=0 dy=0 dh=0 dv=0
PairPos2: "'kern' Horizontal Kerning lookup 15-2" uni0646 dx=-60 dy=0 dh=-60 dv=0 dx=0 dy=0 dh=0 dv=0
PairPos2: "'kern' Horizontal Kerning lookup 15-2" uniFEE3 dx=-178 dy=0 dh=-178 dv=0 dx=0 dy=0 dh=0 dv=0
PairPos2: "'kern' Horizontal Kerning lookup 15-2" uni0645 dx=-178 dy=0 dh=-178 dv=0 dx=0 dy=0 dh=0 dv=0
PairPos2: "'kern' Horizontal Kerning lookup 15-2" uniFEFB dx=-143 dy=0 dh=-143 dv=0 dx=0 dy=0 dh=0 dv=0
PairPos2: "'kern' Horizontal Kerning lookup 15-2" uniFEDF dx=-143 dy=0 dh=-143 dv=0 dx=0 dy=0 dh=0 dv=0
PairPos2: "'kern' Horizontal Kerning lookup 15-2" uni0644 dx=-60 dy=0 dh=-60 dv=0 dx=0 dy=0 dh=0 dv=0
PairPos2: "'kern' Horizontal Kerning lookup 15-2" uniFEDB dx=-226 dy=0 dh=-226 dv=0 dx=0 dy=0 dh=0 dv=0
PairPos2: "'kern' Horizontal Kerning lookup 15-2" uni0643 dx=-143 dy=0 dh=-143 dv=0 dx=0 dy=0 dh=0 dv=0
PairPos2: "'kern' Horizontal Kerning lookup 15-2" uniFED7 dx=-178 dy=0 dh=-178 dv=0 dx=0 dy=0 dh=0 dv=0
PairPos2: "'kern' Horizontal Kerning lookup 15-2" uni0642 dx=-60 dy=0 dh=-60 dv=0 dx=0 dy=0 dh=0 dv=0
PairPos2: "'kern' Horizontal Kerning lookup 15-2" uniFED3 dx=-178 dy=0 dh=-178 dv=0 dx=0 dy=0 dh=0 dv=0
PairPos2: "'kern' Horizontal Kerning lookup 15-2" uni0641 dx=-178 dy=0 dh=-178 dv=0 dx=0 dy=0 dh=0 dv=0
PairPos2: "'kern' Horizontal Kerning lookup 15-2" uniFECF dx=-178 dy=0 dh=-178 dv=0 dx=0 dy=0 dh=0 dv=0
PairPos2: "'kern' Horizontal Kerning lookup 15-2" uniFECB dx=-178 dy=0 dh=-178 dv=0 dx=0 dy=0 dh=0 dv=0
PairPos2: "'kern' Horizontal Kerning lookup 15-2" uniFEC7 dx=-178 dy=0 dh=-178 dv=0 dx=0 dy=0 dh=0 dv=0
PairPos2: "'kern' Horizontal Kerning lookup 15-2" uni0638 dx=-178 dy=0 dh=-178 dv=0 dx=0 dy=0 dh=0 dv=0
PairPos2: "'kern' Horizontal Kerning lookup 15-2" uniFEC3 dx=-178 dy=0 dh=-178 dv=0 dx=0 dy=0 dh=0 dv=0
PairPos2: "'kern' Horizontal Kerning lookup 15-2" uni0637 dx=-178 dy=0 dh=-178 dv=0 dx=0 dy=0 dh=0 dv=0
PairPos2: "'kern' Horizontal Kerning lookup 15-2" uniFEBF dx=-178 dy=0 dh=-178 dv=0 dx=0 dy=0 dh=0 dv=0
PairPos2: "'kern' Horizontal Kerning lookup 15-2" uni0636 dx=-178 dy=0 dh=-178 dv=0 dx=0 dy=0 dh=0 dv=0
PairPos2: "'kern' Horizontal Kerning lookup 15-2" uniFEBB dx=-178 dy=0 dh=-178 dv=0 dx=0 dy=0 dh=0 dv=0
PairPos2: "'kern' Horizontal Kerning lookup 15-2" uni0635 dx=-178 dy=0 dh=-178 dv=0 dx=0 dy=0 dh=0 dv=0
PairPos2: "'kern' Horizontal Kerning lookup 15-2" uniFEB7 dx=-178 dy=0 dh=-178 dv=0 dx=0 dy=0 dh=0 dv=0
PairPos2: "'kern' Horizontal Kerning lookup 15-2" uni0634 dx=-178 dy=0 dh=-178 dv=0 dx=0 dy=0 dh=0 dv=0
PairPos2: "'kern' Horizontal Kerning lookup 15-2" uniFEB3 dx=-178 dy=0 dh=-178 dv=0 dx=0 dy=0 dh=0 dv=0
PairPos2: "'kern' Horizontal Kerning lookup 15-2" uni0633 dx=-178 dy=0 dh=-178 dv=0 dx=0 dy=0 dh=0 dv=0
PairPos2: "'kern' Horizontal Kerning lookup 15-2" uni0630 dx=-178 dy=0 dh=-178 dv=0 dx=0 dy=0 dh=0 dv=0
PairPos2: "'kern' Horizontal Kerning lookup 15-2" uni062F dx=-178 dy=0 dh=-178 dv=0 dx=0 dy=0 dh=0 dv=0
PairPos2: "'kern' Horizontal Kerning lookup 15-2" uniFEA7 dx=-178 dy=0 dh=-178 dv=0 dx=0 dy=0 dh=0 dv=0
PairPos2: "'kern' Horizontal Kerning lookup 15-2" uniFEA3 dx=-178 dy=0 dh=-178 dv=0 dx=0 dy=0 dh=0 dv=0
PairPos2: "'kern' Horizontal Kerning lookup 15-2" uniFE9F dx=-178 dy=0 dh=-178 dv=0 dx=0 dy=0 dh=0 dv=0
PairPos2: "'kern' Horizontal Kerning lookup 15-2" uniFE9B dx=-178 dy=0 dh=-178 dv=0 dx=0 dy=0 dh=0 dv=0
PairPos2: "'kern' Horizontal Kerning lookup 15-2" uni062B dx=-178 dy=0 dh=-178 dv=0 dx=0 dy=0 dh=0 dv=0
PairPos2: "'kern' Horizontal Kerning lookup 15-2" uniFE97 dx=-178 dy=0 dh=-178 dv=0 dx=0 dy=0 dh=0 dv=0
PairPos2: "'kern' Horizontal Kerning lookup 15-2" uni062A dx=-178 dy=0 dh=-178 dv=0 dx=0 dy=0 dh=0 dv=0
PairPos2: "'kern' Horizontal Kerning lookup 15-2" uni0629 dx=-178 dy=0 dh=-178 dv=0 dx=0 dy=0 dh=0 dv=0
PairPos2: "'kern' Horizontal Kerning lookup 15-2" uni0628 dx=-178 dy=0 dh=-178 dv=0 dx=0 dy=0 dh=0 dv=0
PairPos2: "'kern' Horizontal Kerning lookup 15-2" uni0627 dx=-143 dy=0 dh=-143 dv=0 dx=0 dy=0 dh=0 dv=0
PairPos2: "'kern' Horizontal Kerning lookup 15-2" uni0623 dx=-143 dy=0 dh=-143 dv=0 dx=0 dy=0 dh=0 dv=0
PairPos2: "'kern' Horizontal Kerning lookup 15-2" uni0622 dx=-143 dy=0 dh=-143 dv=0 dx=0 dy=0 dh=0 dv=0
PairPos2: "'kern' Horizontal Kerning lookup 15-2" uni0621 dx=-178 dy=0 dh=-178 dv=0 dx=0 dy=0 dh=0 dv=0
PairPos2: "'kern' Horizontal Kerning lookup 15-2" uniFB94 dx=-226 dy=0 dh=-226 dv=0 dx=0 dy=0 dh=0 dv=0
PairPos2: "'kern' Horizontal Kerning lookup 15-2" uniFB92 dx=-226 dy=0 dh=-226 dv=0 dx=0 dy=0 dh=0 dv=0
PairPos2: "'kern' Horizontal Kerning lookup 15-2" uni06AF dx=-226 dy=0 dh=-226 dv=0 dx=0 dy=0 dh=0 dv=0
PairPos2: "'kern' Horizontal Kerning lookup 15-2" afii57506 dx=-178 dy=0 dh=-178 dv=0 dx=0 dy=0 dh=0 dv=0
PairPos2: "'kern' Horizontal Kerning lookup 15-2" afii57440 dx=-178 dy=0 dh=-178 dv=0 dx=0 dy=0 dh=0 dv=0
PairPos2: "'kern' Horizontal Kerning lookup 15-2" uniFE8B dx=-178 dy=0 dh=-178 dv=0 dx=0 dy=0 dh=0 dv=0
EndChar

StartChar: uniFEB2
Encoding: 65202 65202 189
GlifName: uniF_E_B_2
Width: 2589
VWidth: 2992
GlyphClass: 2
Flags: W
AnchorPoint: "Anchor-7" 595.902 -759.086 basechar 0
AnchorPoint: "Anchor-10" 1794.53 1418.1 basechar 0
LayerCount: 2
Fore
SplineSet
1371.05566406 399.318359375 m 2,0,1
 1386.390625 351.9453125 1386.390625 351.9453125 1410.80761719 322.19140625 c 128,-1,2
 1435.22363281 292.438476562 1435.22363281 292.438476562 1470.38671875 278.245117188 c 128,-1,3
 1505.54882812 264.051757812 1505.54882812 264.051757812 1554.08691406 264.073242188 c 0,4,5
 1634.32910156 264.041992188 1634.32910156 264.041992188 1668.15527344 296.874023438 c 128,-1,6
 1701.98144531 329.706054688 1701.98144531 329.706054688 1701.96777344 406.3828125 c 2,7,-1
 1700.20117188 509.973632812 l 1,8,-1
 1694.70996094 591.733398438 l 1,9,-1
 1692.16015625 629.704101562 l 1,10,-1
 1729.95605469 634.141601562 l 1,11,-1
 1894.76269531 653.489257812 l 1,12,-1
 1936.42089844 658.379882812 l 1,13,-1
 1939.33007812 616.536132812 l 1,14,-1
 1955.40625 385.306640625 l 2,15,16
 1959.8125 319.18359375 1959.8125 319.18359375 1986.99023438 291.948242188 c 128,-1,17
 2014.16796875 264.712890625 2014.16796875 264.712890625 2073.21289062 264.520507812 c 0,18,19
 2129.125 264.701171875 2129.125 264.701171875 2155.98144531 300.791992188 c 128,-1,20
 2182.83691406 336.8828125 2182.83691406 336.8828125 2183.51269531 427.103515625 c 0,21,22
 2183.74902344 458.676757812 2183.74902344 458.676757812 2182.52148438 489.561523438 c 128,-1,23
 2181.29492188 520.446289062 2181.29492188 520.446289062 2178.60644531 550.647460938 c 2,24,-1
 2173.18847656 611.524414062 l 1,25,-1
 2169.74316406 650.234375 l 1,26,-1
 2208.33789062 654.793945312 l 1,27,-1
 2373.16601562 674.266601562 l 1,28,-1
 2414.23339844 679.118164062 l 1,29,-1
 2417.71679688 637.913085938 l 1,30,-1
 2433.70410156 448.837890625 l 2,31,32
 2442.37011719 348.635742188 2442.37011719 348.635742188 2477.85546875 306.325195312 c 128,-1,33
 2513.34082031 264.014648438 2513.34082031 264.014648438 2579.3671875 264 c 2,34,-1
 2597.42871094 263.99609375 l 2,35,36
 2609.73144531 263.998046875 2609.73144531 263.998046875 2619.4765625 259.965820312 c 128,-1,37
 2629.22265625 255.932617188 2629.22265625 255.932617188 2635.49804688 250.833984375 c 128,-1,38
 2641.77246094 245.735351562 2641.77246094 245.735351562 2646.25488281 235.463867188 c 128,-1,39
 2650.73730469 225.192382812 2650.73730469 225.192382812 2652.97363281 218.504882812 c 128,-1,40
 2655.20898438 211.81640625 2655.20898438 211.81640625 2656.38574219 198.431640625 c 128,-1,41
 2657.56152344 185.046875 2657.56152344 185.046875 2657.71582031 179.89453125 c 128,-1,42
 2657.87109375 174.741210938 2657.87109375 174.741210938 2657.69824219 161.368164062 c 128,-1,43
 2657.52636719 147.995117188 2657.52636719 147.995117188 2657.52636719 147.1171875 c 2,44,-1
 2657.52636719 127.958984375 l 2,45,46
 2656.46191406 66.3642578125 2656.46191406 66.3642578125 2654.95605469 57.37890625 c 0,47,48
 2643.55371094 1.0869140625 2643.55371094 1.0869140625 2597.4453125 -0.056640625 c 2,49,-1
 2581.10839844 -0.056640625 l 2,50,51
 2405.04003906 -0.0068359375 2405.04003906 -0.0068359375 2328.17773438 103.912109375 c 1,52,53
 2241.62695312 -0 2241.62695312 -0 2082.5 0 c 0,54,55
 1996.88867188 0 1996.88867188 0 1931.40234375 27.56640625 c 128,-1,56
 1865.91503906 55.1328125 1865.91503906 55.1328125 1825.76660156 110.424804688 c 1,57,58
 1720.67871094 0.994140625 1720.67871094 0.994140625 1552.80175781 0.9189453125 c 0,59,60
 1511.34570312 0.9482421875 1511.34570312 0.9482421875 1474.23144531 7.755859375 c 128,-1,61
 1437.1171875 14.564453125 1437.1171875 14.564453125 1405.70703125 28.0751953125 c 1,62,63
 1392.70410156 -82.4892578125 1392.70410156 -82.4892578125 1339.97460938 -194.200195312 c 0,64,65
 1183.13085938 -520.015625 1183.13085938 -520.015625 707.33203125 -519.724609375 c 0,66,67
 269.823242188 -519.923828125 269.823242188 -519.923828125 126.49609375 -232.51953125 c 0,68,69
 62.041015625 -102.09765625 62.041015625 -102.09765625 61.7529296875 81.0595703125 c 0,70,71
 62.009765625 293.97265625 62.009765625 293.97265625 166.068359375 545.420898438 c 2,72,-1
 181.341796875 582.328125 l 1,73,-1
 218.271484375 567.106445312 l 1,74,-1
 376.791992188 501.768554688 l 1,75,-1
 413.215820312 486.755859375 l 1,76,-1
 398.7578125 450.108398438 l 2,77,78
 318.01171875 245.42578125 318.01171875 245.42578125 318.268554688 82.8779296875 c 0,79,80
 318.186523438 -35.419921875 318.186523438 -35.419921875 359.71484375 -111.418945312 c 128,-1,81
 401.2421875 -187.41796875 401.2421875 -187.41796875 488.893554688 -225.278320312 c 128,-1,82
 576.543945312 -263.138671875 576.543945312 -263.138671875 714.36328125 -263.203125 c 0,83,84
 826.903320312 -263.155273438 826.903320312 -263.155273438 908.767578125 -238.606445312 c 128,-1,85
 990.631835938 -214.057617188 990.631835938 -214.057617188 1044.3671875 -163.463867188 c 128,-1,86
 1098.10351562 -112.870117188 1098.10351562 -112.870117188 1124.1484375 -36.734375 c 128,-1,87
 1150.19335938 39.4013671875 1150.19335938 39.4013671875 1150.55664062 143.853515625 c 0,88,89
 1150.69726562 201.690429688 1150.69726562 201.690429688 1141.28613281 259.66015625 c 128,-1,90
 1131.875 317.62890625 1131.875 317.62890625 1112.68945312 376.334960938 c 128,-1,91
 1093.50390625 435.041015625 1093.50390625 435.041015625 1064.52832031 494.165039062 c 2,92,-1
 1044.68359375 534.657226562 l 1,93,-1
 1087.25292969 549.530273438 l 1,94,-1
 1259.89453125 609.84765625 l 1,95,-1
 1298.53808594 623.348632812 l 1,96,-1
 1311.14355469 584.404296875 l 1,97,-1
 1371.05566406 399.318359375 l 2,0,1
EndSplineSet
EndChar

StartChar: uniFEB3
Encoding: 65203 65203 190
GlifName: uniF_E_B_3
Width: 1603
VWidth: 2992
GlyphClass: 2
Flags: W
AnchorPoint: "Anchor-10" 849.961 1420.67 basechar 0
AnchorPoint: "Anchor-7" 759.534 -196.974 basechar 0
LayerCount: 2
Fore
SplineSet
797.931640625 378.826171875 m 4,0,1
 803 404 803 404 802.953125 441.453125 c 4,2,3
 802.999516993 484.551286958 802.999516993 484.551286958 798.938476562 530.208984375 c 6,4,-1
 793.538085938 590.924804688 l 5,5,-1
 790.092773438 629.663085938 l 5,6,-1
 828.71875 634.196289062 l 5,7,-1
 993.444335938 653.529296875 l 5,8,-1
 1035.1015625 658.41796875 l 5,9,-1
 1038.00976562 616.576171875 l 5,10,-1
 1054.08300781 385.388671875 l 6,11,12
 1057 341 1057 341 1070.34960938 314.291992188 c 4,13,14
 1084 288 1084 288 1107.8359375 276.288085938 c 4,15,16
 1132 265 1132 265 1171.49804688 264.538085938 c 4,17,18
 1226 265 1226 265 1253.109375 303.540039062 c 4,19,20
 1280 342 1280 342 1279.98632812 439.403320312 c 4,21,22
 1280.00004622 536.326570931 1280.00004622 536.326570931 1237.5546875 683.202148438 c 6,23,-1
 1226.2265625 722.401367188 l 5,24,-1
 1265.64355469 732.948242188 l 5,25,-1
 1436.59472656 778.688476562 l 5,26,-1
 1473.52246094 788.569335938 l 5,27,-1
 1485.06640625 752.127929688 l 6,28,29
 1537 588 1537 588 1536.01855469 445.775390625 c 4,30,31
 1536 444 1536 444 1536.00488281 442.9921875 c 132,-1,32
 1536 442 1536 442 1536 440.412109375 c 4,33,34
 1534 195 1534 195 1400.71386719 77.166015625 c 4,35,36
 1314 1 1314 1 1174.72363281 0.9931640625 c 4,37,38
 1142 1 1142 1 1112.03613281 5.26171875 c 4,39,40
 1082 10 1082 10 1055.0390625 18.265625 c 4,41,42
 1028 27 1028 27 1004.35644531 40.0400390625 c 4,43,44
 981 53 981 53 960.57421875 70.8994140625 c 4,45,46
 940 89 940 89 924.31640625 110.879882812 c 5,47,48
 817 0 817 0 646.276367188 0 c 4,49,50
 453 1 453 1 368.453125 108.85546875 c 5,51,52
 266 0 266 0 48.849609375 0 c 6,53,-1
 -6.9384765625 0 l 2,54,55
 -62 0 -62 0 -93.2529296875 35.75390625 c 0,56,57
 -124.778320312 71.7469050632 -124.778320312 71.7469050632 -124.778320312 128.313476562 c 2,58,-1
 -124.778320312 147.12890625 l 2,59,60
 -125 200 -125 200 -92.4189453125 231.913085938 c 128,-1,61
 -60.0009866669 263.999023438 -60.0009866669 263.999023438 -6.9384765625 263.999023438 c 2,62,-1
 51.00390625 263.999023438 l 6,63,64
 144 264 144 264 189.640625 292.657226562 c 4,65,66
 236 321 236 321 247.770507812 379.209960938 c 4,67,68
 253 404 253 404 252.715820312 441.466796875 c 4,69,70
 253 462 253 462 251.860351562 483.911132812 c 4,71,72
 251.111616797 503.134324258 251.111616797 503.134324258 248.702148438 530.223632812 c 6,73,-1
 243.301757812 590.939453125 l 5,74,-1
 239.856445312 629.677734375 l 5,75,-1
 278.482421875 634.2109375 l 5,76,-1
 443.208007812 653.543945312 l 5,77,-1
 484.865234375 658.432617188 l 5,78,-1
 487.7734375 616.590820312 l 5,79,-1
 503.844726562 385.427734375 l 6,80,81
 506 353 506 353 514.83984375 330.375 c 4,82,83
 524 308 524 308 540.797851562 292.83984375 c 4,84,85
 558 278 558 278 584.263671875 270.924804688 c 4,86,87
 610 264 610 264 648.065429688 264.073242188 c 4,88,89
 683 264 683 264 707.888671875 270.662109375 c 4,90,91
 733 277 733 277 751.373046875 291.485351562 c 4,92,93
 770 306 770 306 780.702148438 327.053710938 c 4,94,95
 792 348 792 348 797.931640625 378.826171875 c 4,0,1
EndSplineSet
EndChar

StartChar: uniFEB4
Encoding: 65204 65204 191
GlifName: uniF_E_B_4
Width: 1688
VWidth: 2985
GlyphClass: 2
Flags: W
AnchorPoint: "Anchor-7" 759.534 -196.974 basechar 0
AnchorPoint: "Anchor-10" 829.961 1420.67 basechar 0
LayerCount: 2
Fore
SplineSet
1054.08105469 385.40625 m 6,0,1
 1057.19484956 340.617327688 1057.19484956 340.617327688 1070.51269531 314.461914062 c 4,2,3
 1084 288 1084 288 1108.56445312 276.403320312 c 132,-1,4
 1133 265 1133 265 1173.36816406 264.579101562 c 4,5,6
 1211 265 1211 265 1234.05273438 278.689453125 c 4,7,8
 1257 293 1257 293 1269.89257812 328.234375 c 4,9,10
 1283 364 1283 364 1282.38769531 424.060546875 c 4,11,12
 1282.00059981 500.88096563 1282.00059981 500.88096563 1277.56640625 550.704101562 c 6,13,-1
 1272.1484375 611.581054688 l 5,14,-1
 1268.703125 650.291015625 l 5,15,-1
 1307.29785156 654.850585938 l 5,16,-1
 1472.12597656 674.323242188 l 5,17,-1
 1513.19335938 679.174804688 l 5,18,-1
 1516.67675781 637.969726562 l 5,19,-1
 1532.6640625 448.897460938 l 6,20,21
 1541 349 1541 349 1576.83691406 306.314453125 c 4,22,23
 1612.00757472 263.990884758 1612.00757472 263.990884758 1678.31445312 263.998046875 c 6,24,-1
 1696.39648438 264 l 6,25,26
 1709 264 1709 264 1718.4375 259.965820312 c 132,-1,27
 1728 256 1728 256 1734.45507812 250.83984375 c 4,28,29
 1741 246 1741 246 1745.2109375 235.473632812 c 4,30,31
 1750 225 1750 225 1751.92871094 218.525390625 c 132,-1,32
 1754 212 1754 212 1755.34179688 198.459960938 c 4,33,34
 1757 185 1757 185 1756.67382812 179.935546875 c 4,35,36
 1757 175 1757 175 1756.65820312 161.416015625 c 4,37,38
 1756.48632812 157.912723711 1756.48632812 157.912723711 1756.48632812 147.173828125 c 6,39,-1
 1756.48632812 128.250976562 l 6,40,41
 1756 123 1756 123 1756.69628906 111.970703125 c 4,42,43
 1757 100 1757 100 1756.92285156 91.8076171875 c 4,44,45
 1757 84 1757 84 1755.88476562 71.0625 c 4,46,47
 1755 58 1755 58 1752.75195312 49.517578125 c 4,48,49
 1751 41 1751 41 1746.21484375 30.7080078125 c 4,50,51
 1742 20 1742 20 1735.44335938 14.4150390625 c 4,52,53
 1729 8 1729 8 1719.12597656 4.173828125 c 4,54,55
 1709 0 1709 0 1696.40527344 0 c 6,56,-1
 1680.08007812 0 l 6,57,58
 1503 0 1503 0 1426.92285156 103.799804688 c 5,59,60
 1340 0 1340 0 1179 0 c 4,61,62
 1097 0 1097 0 1032.26855469 28.373046875 c 4,63,64
 968 57 968 57 925.754882812 112.374023438 c 5,65,66
 872 56 872 56 801.295898438 28.0234375 c 4,67,68
 731 0 731 0 646.276367188 0 c 4,69,70
 453 1 453 1 368.453125 108.85546875 c 5,71,72
 266 0 266 0 48.849609375 0 c 6,73,-1
 -6.9384765625 0 l 2,74,75
 -62 0 -62 0 -93.2529296875 35.75390625 c 0,76,77
 -124.778320312 71.7469050632 -124.778320312 71.7469050632 -124.778320312 128.313476562 c 2,78,-1
 -124.778320312 147.12890625 l 2,79,80
 -125 200 -125 200 -92.4189453125 231.913085938 c 128,-1,81
 -60.0009866669 263.999023438 -60.0009866669 263.999023438 -6.9384765625 263.999023438 c 2,82,-1
 51.00390625 263.999023438 l 6,83,84
 144 264 144 264 190.419921875 292.682617188 c 4,85,86
 237 321 237 321 248.78125 379.258789062 c 4,87,88
 253 399 253 399 252.715820312 441.481445312 c 4,89,90
 252.999372669 481.910554667 252.999372669 481.910554667 248.702148438 530.223632812 c 6,91,-1
 243.301757812 590.939453125 l 5,92,-1
 239.856445312 629.677734375 l 5,93,-1
 278.482421875 634.2109375 l 5,94,-1
 443.208007812 653.543945312 l 5,95,-1
 484.865234375 658.432617188 l 5,96,-1
 487.7734375 616.590820312 l 5,97,-1
 503.844726562 385.427734375 l 6,98,99
 507 342 507 342 521.872070312 315.786132812 c 4,100,101
 537 290 537 290 567.5 276.815429688 c 4,102,103
 598 264 598 264 648.065429688 264.073242188 c 4,104,105
 717 264 717 264 751.838867188 291.1640625 c 4,106,107
 787 318 787 318 798.932617188 378.83203125 c 4,108,109
 803 399 803 399 802.953125 441.456054688 c 4,110,111
 803 463 803 463 801.974609375 485.178710938 c 4,112,113
 800.99716775 507.063413452 800.99716775 507.063413452 798.938476562 530.208984375 c 6,114,-1
 793.538085938 590.924804688 l 5,115,-1
 790.092773438 629.663085938 l 5,116,-1
 828.71875 634.196289062 l 5,117,-1
 993.444335938 653.529296875 l 5,118,-1
 1035.1015625 658.41796875 l 5,119,-1
 1038.00976562 616.576171875 l 5,120,-1
 1054.08105469 385.40625 l 6,0,1
EndSplineSet
EndChar

